<svg width="93" height="27" viewBox="0 0 93 27" fill="none" xmlns="http://www.w3.org/2000/svg">
<rect width="93" height="27" rx="5" fill="url(#paint0_linear_736_2)"/>
<path d="M19.8438 11.1435C20.4654 11.1435 21.0615 10.8952 21.501 10.4533C21.9406 10.0114 22.1875 9.41203 22.1875 8.78707C22.1875 8.16211 21.9406 7.56275 21.501 7.12084C21.0615 6.67893 20.4654 6.43066 19.8438 6.43066H15.1563C14.5346 6.43066 13.9385 6.67893 13.499 7.12084C13.0594 7.56275 12.8125 8.16211 12.8125 8.78707C12.8125 9.41203 13.0594 10.0114 13.499 10.4533C13.9385 10.8952 14.5346 11.1435 15.1563 11.1435C14.5346 11.1435 13.9385 11.3917 13.499 11.8336C13.0594 12.2756 12.8125 12.8749 12.8125 13.4999C12.8125 14.1248 13.0594 14.7242 13.499 15.1661C13.9385 15.608 14.5346 15.8563 15.1563 15.8563C14.6927 15.8563 14.2396 15.9945 13.8541 16.2534C13.4687 16.5123 13.1683 16.8804 12.9909 17.3109C12.8135 17.7415 12.7671 18.2153 12.8575 18.6724C12.948 19.1295 13.1712 19.5494 13.499 19.8789C13.8267 20.2085 14.2444 20.4329 14.699 20.5238C15.1537 20.6147 15.6249 20.5681 16.0532 20.3897C16.4814 20.2114 16.8475 19.9093 17.105 19.5218C17.3625 19.1343 17.5 18.6787 17.5 18.2127V11.1435H19.8438Z" fill="#141414"/>
<path d="M19.8438 15.8564C21.1382 15.8564 22.1875 14.8014 22.1875 13.5C22.1875 12.1986 21.1382 11.1436 19.8438 11.1436C18.5493 11.1436 17.5 12.1986 17.5 13.5C17.5 14.8014 18.5493 15.8564 19.8438 15.8564Z" fill="#141414"/>
<path d="M41.538 18.5L40.81 16.078H37.156L36.428 18.5H35.084L38.178 8.854H39.858L42.938 18.5H41.538ZM37.478 15H40.488L38.99 9.96L37.478 15ZM47.0434 10.954C47.4821 10.954 47.8834 11.0193 48.2474 11.15C48.6114 11.2713 48.9614 11.472 49.2974 11.752L48.6814 12.564C48.4201 12.3773 48.1634 12.242 47.9114 12.158C47.6687 12.0647 47.3981 12.018 47.0994 12.018C46.5021 12.018 46.0354 12.256 45.6994 12.732C45.3727 13.208 45.2094 13.9127 45.2094 14.846C45.2094 15.7793 45.3727 16.47 45.6994 16.918C46.0261 17.3567 46.4927 17.576 47.0994 17.576C47.3887 17.576 47.6547 17.534 47.8974 17.45C48.1401 17.3567 48.4107 17.212 48.7094 17.016L49.2974 17.856C48.6254 18.3973 47.8741 18.668 47.0434 18.668C46.0447 18.668 45.2561 18.332 44.6774 17.66C44.1081 16.988 43.8234 16.0593 43.8234 14.874C43.8234 14.09 43.9541 13.404 44.2154 12.816C44.4767 12.228 44.8454 11.7707 45.3214 11.444C45.8067 11.1173 46.3807 10.954 47.0434 10.954ZM56.3395 14.594C56.3395 14.8087 56.3302 15.028 56.3115 15.252H51.6075C51.6635 16.064 51.8688 16.6613 52.2235 17.044C52.5782 17.4267 53.0355 17.618 53.5955 17.618C53.9502 17.618 54.2768 17.5667 54.5755 17.464C54.8742 17.3613 55.1868 17.198 55.5135 16.974L56.0735 17.744C55.2895 18.36 54.4308 18.668 53.4975 18.668C52.4708 18.668 51.6682 18.332 51.0895 17.66C50.5202 16.988 50.2355 16.064 50.2355 14.888C50.2355 14.1227 50.3568 13.446 50.5995 12.858C50.8515 12.2607 51.2062 11.794 51.6635 11.458C52.1302 11.122 52.6762 10.954 53.3015 10.954C54.2815 10.954 55.0328 11.276 55.5555 11.92C56.0782 12.564 56.3395 13.4553 56.3395 14.594ZM55.0655 14.216C55.0655 13.488 54.9208 12.9327 54.6315 12.55C54.3422 12.1673 53.9082 11.976 53.3295 11.976C52.2748 11.976 51.7008 12.7507 51.6075 14.3H55.0655V14.216ZM60.3984 10.954C60.9024 10.954 61.3551 11.024 61.7564 11.164C62.1577 11.304 62.5404 11.514 62.9044 11.794L62.3584 12.606C62.0224 12.3913 61.7004 12.2327 61.3924 12.13C61.0937 12.0273 60.7764 11.976 60.4404 11.976C60.0204 11.976 59.6891 12.0647 59.4464 12.242C59.2037 12.41 59.0824 12.6433 59.0824 12.942C59.0824 13.2407 59.1944 13.474 59.4184 13.642C59.6517 13.81 60.0671 13.9733 60.6644 14.132C61.4857 14.3373 62.0971 14.6173 62.4984 14.972C62.9091 15.3267 63.1144 15.812 63.1144 16.428C63.1144 17.156 62.8297 17.7113 62.2604 18.094C61.7004 18.4767 61.0144 18.668 60.2024 18.668C59.0824 18.668 58.1537 18.346 57.4164 17.702L58.1024 16.918C58.7277 17.394 59.4184 17.632 60.1744 17.632C60.6597 17.632 61.0424 17.534 61.3224 17.338C61.6117 17.1327 61.7564 16.8573 61.7564 16.512C61.7564 16.26 61.7051 16.0593 61.6024 15.91C61.4997 15.7513 61.3224 15.616 61.0704 15.504C60.8184 15.3827 60.4497 15.2567 59.9644 15.126C59.1804 14.9207 58.6111 14.6453 58.2564 14.3C57.9111 13.9547 57.7384 13.516 57.7384 12.984C57.7384 12.6013 57.8504 12.256 58.0744 11.948C58.3077 11.6307 58.6251 11.388 59.0264 11.22C59.4371 11.0427 59.8944 10.954 60.3984 10.954ZM66.7968 10.954C67.3008 10.954 67.7535 11.024 68.1548 11.164C68.5562 11.304 68.9388 11.514 69.3028 11.794L68.7568 12.606C68.4208 12.3913 68.0988 12.2327 67.7908 12.13C67.4922 12.0273 67.1748 11.976 66.8388 11.976C66.4188 11.976 66.0875 12.0647 65.8448 12.242C65.6022 12.41 65.4808 12.6433 65.4808 12.942C65.4808 13.2407 65.5928 13.474 65.8168 13.642C66.0502 13.81 66.4655 13.9733 67.0628 14.132C67.8842 14.3373 68.4955 14.6173 68.8968 14.972C69.3075 15.3267 69.5128 15.812 69.5128 16.428C69.5128 17.156 69.2282 17.7113 68.6588 18.094C68.0988 18.4767 67.4128 18.668 66.6008 18.668C65.4808 18.668 64.5522 18.346 63.8148 17.702L64.5008 16.918C65.1262 17.394 65.8168 17.632 66.5728 17.632C67.0582 17.632 67.4408 17.534 67.7208 17.338C68.0102 17.1327 68.1548 16.8573 68.1548 16.512C68.1548 16.26 68.1035 16.0593 68.0008 15.91C67.8982 15.7513 67.7208 15.616 67.4688 15.504C67.2168 15.3827 66.8482 15.2567 66.3628 15.126C65.5788 14.9207 65.0095 14.6453 64.6548 14.3C64.3095 13.9547 64.1368 13.516 64.1368 12.984C64.1368 12.6013 64.2488 12.256 64.4728 11.948C64.7062 11.6307 65.0235 11.388 65.4248 11.22C65.8355 11.0427 66.2928 10.954 66.7968 10.954ZM76.1633 16.778C76.1633 17.0767 76.2146 17.3007 76.3173 17.45C76.4199 17.59 76.5739 17.6973 76.7793 17.772L76.4853 18.668C76.1026 18.6213 75.7946 18.514 75.5613 18.346C75.3279 18.178 75.1553 17.9167 75.0433 17.562C74.5486 18.2993 73.8159 18.668 72.8453 18.668C72.1173 18.668 71.5433 18.4627 71.1233 18.052C70.7033 17.6413 70.4933 17.1047 70.4933 16.442C70.4933 15.658 70.7733 15.056 71.3333 14.636C71.9026 14.216 72.7053 14.006 73.7413 14.006H74.8753V13.46C74.8753 12.9373 74.7493 12.564 74.4973 12.34C74.2453 12.116 73.8579 12.004 73.3353 12.004C72.7939 12.004 72.1313 12.1347 71.3473 12.396L71.0253 11.458C71.9399 11.122 72.7893 10.954 73.5733 10.954C74.4413 10.954 75.0899 11.1687 75.5193 11.598C75.9486 12.018 76.1633 12.62 76.1633 13.404V16.778ZM73.1393 17.702C73.8766 17.702 74.4553 17.3193 74.8753 16.554V14.86H73.9093C72.5466 14.86 71.8653 15.364 71.8653 16.372C71.8653 16.8107 71.9726 17.142 72.1873 17.366C72.4019 17.59 72.7193 17.702 73.1393 17.702ZM82.0145 10.954C82.2758 10.954 82.5185 10.982 82.7425 11.038L82.5045 12.298C82.2805 12.242 82.0658 12.214 81.8605 12.214C81.4032 12.214 81.0345 12.382 80.7545 12.718C80.4745 13.054 80.2552 13.5767 80.0965 14.286V18.5H78.8085V11.122H79.9145L80.0405 12.62C80.2365 12.0693 80.5025 11.654 80.8385 11.374C81.1745 11.094 81.5665 10.954 82.0145 10.954Z" fill="#141414"/>
<defs>
<linearGradient id="paint0_linear_736_2" x1="46.5" y1="0" x2="46.5" y2="27" gradientUnits="userSpaceOnUse">
<stop stop-color="#7B001E"/>
<stop offset="1" stop-color="#BF2D50"/>
</linearGradient>
</defs>
</svg>
