<svg width="89" height="27" viewBox="0 0 89 27" fill="none" xmlns="http://www.w3.org/2000/svg">
<rect width="88.8688" height="27" rx="5" fill="url(#paint0_linear_615_119)"/>
<path d="M15.7166 13.9754C15.3798 13.9396 15.0086 13.7839 14.7507 13.5331C14.7471 13.5295 14.7399 13.5224 14.7363 13.5188C14.6181 13.4006 14.5249 13.2716 14.4533 13.1283C14.3494 12.9312 14.2885 12.7127 14.2813 12.4905C14.2634 12.2577 14.2992 12.0212 14.3888 11.8027C14.464 11.6128 14.5787 11.4336 14.7327 11.2796L17.5094 8.50292C18.1256 7.88668 19.1288 7.88668 19.7486 8.5065C20.3649 9.12274 20.3649 10.1259 19.7486 10.7422L17.3912 13.0996M17.7172 13.7051L20.2144 11.2079C21.0886 10.3337 21.085 8.91135 20.2144 8.04074C19.3402 7.16655 17.9178 7.16296 17.0436 8.03716L14.267 10.8138C13.9051 11.1757 13.6973 11.6343 13.6328 12.1072C13.6006 12.3472 13.6077 12.5909 13.6543 12.8237C13.7009 13.0566 13.7797 13.2788 13.8979 13.483L13.8944 13.4866C13.9947 13.6657 14.1201 13.8341 14.2706 13.9846C14.7184 14.4324 15.3096 14.651 15.9043 14.6295" stroke="#141414" stroke-width="0.7" stroke-miterlimit="10" stroke-linecap="round" stroke-linejoin="round"/>
<path d="M15.1878 13.0315C15.152 12.9885 15.1269 12.9419 15.0982 12.8917C15.023 12.7448 14.98 12.58 14.9728 12.4152C14.9728 12.4009 14.9692 12.383 14.9692 12.3687" stroke="#141414" stroke-width="0.7" stroke-miterlimit="10" stroke-linecap="round" stroke-linejoin="round"/>
<path d="M13.8981 13.4829L13.8945 13.4864M14.7508 13.533L14.7472 13.5294M15.7131 13.9717C15.7167 13.9753 15.7167 13.9753 15.7167 13.9753C15.7633 14.0362 15.8027 14.0971 15.8314 14.1616C15.9102 14.3049 15.8972 14.4502 15.9044 14.615C15.9044 14.6222 15.9044 14.6222 15.9044 14.6293M14.9693 12.3686C15.5569 12.3471 16.1516 12.5692 16.5995 13.0171C16.7499 13.1676 16.8789 13.3395 16.9721 13.5187C17.0939 13.7265 17.1691 13.9522 17.2121 14.1815C17.2587 14.4215 17.2659 14.6652 17.23 14.9088C17.1691 15.3781 16.9577 15.826 16.5995 16.1843L13.8228 18.9609C12.9486 19.8351 11.5298 19.8351 10.6556 18.9609C9.78145 18.0867 9.78145 16.6679 10.6556 15.7937L13.1564 13.293M15.1879 13.0314C15.5318 13.0673 15.8686 13.2177 16.1337 13.4829C16.2519 13.6011 16.3451 13.7301 16.4167 13.8734C16.5206 14.0704 16.5815 14.289 16.5887 14.5111C16.603 14.7476 16.5672 14.9912 16.4705 15.2097C16.3988 15.3961 16.2842 15.568 16.1337 15.7185L13.357 18.4952C12.7408 19.1114 11.7376 19.1114 11.1214 18.4952C10.5052 17.8789 10.5052 16.8757 11.1214 16.2595L13.4789 13.902" stroke="#141414" stroke-width="0.7" stroke-miterlimit="10" stroke-linecap="round" stroke-linejoin="round"/>
<path d="M13.1565 13.293C13.2317 13.5044 13.3392 13.7122 13.4789 13.902" stroke="#141414" stroke-width="0.7" stroke-miterlimit="10" stroke-linecap="round" stroke-linejoin="round"/>
<path d="M17.3914 13.0996C17.5311 13.2895 17.6386 13.4901 17.7174 13.7051" stroke="#141414" stroke-width="0.7" stroke-miterlimit="10" stroke-linecap="round" stroke-linejoin="round"/>
<path d="M37.4069 18.5L36.6789 16.078H33.0249L32.2969 18.5H30.9529L34.0469 8.854H35.7269L38.8069 18.5H37.4069ZM33.3469 15H36.3569L34.8589 9.96L33.3469 15ZM42.9123 10.954C43.351 10.954 43.7523 11.0193 44.1163 11.15C44.4803 11.2713 44.8303 11.472 45.1663 11.752L44.5503 12.564C44.289 12.3773 44.0323 12.242 43.7803 12.158C43.5376 12.0647 43.267 12.018 42.9683 12.018C42.371 12.018 41.9043 12.256 41.5683 12.732C41.2416 13.208 41.0783 13.9127 41.0783 14.846C41.0783 15.7793 41.2416 16.47 41.5683 16.918C41.895 17.3567 42.3616 17.576 42.9683 17.576C43.2576 17.576 43.5236 17.534 43.7663 17.45C44.009 17.3567 44.2796 17.212 44.5783 17.016L45.1663 17.856C44.4943 18.3973 43.743 18.668 42.9123 18.668C41.9136 18.668 41.125 18.332 40.5463 17.66C39.977 16.988 39.6923 16.0593 39.6923 14.874C39.6923 14.09 39.823 13.404 40.0843 12.816C40.3456 12.228 40.7143 11.7707 41.1903 11.444C41.6756 11.1173 42.2496 10.954 42.9123 10.954ZM52.2084 14.594C52.2084 14.8087 52.1991 15.028 52.1804 15.252H47.4764C47.5324 16.064 47.7377 16.6613 48.0924 17.044C48.4471 17.4267 48.9044 17.618 49.4644 17.618C49.8191 17.618 50.1457 17.5667 50.4444 17.464C50.7431 17.3613 51.0557 17.198 51.3824 16.974L51.9424 17.744C51.1584 18.36 50.2997 18.668 49.3664 18.668C48.3397 18.668 47.5371 18.332 46.9584 17.66C46.3891 16.988 46.1044 16.064 46.1044 14.888C46.1044 14.1227 46.2257 13.446 46.4684 12.858C46.7204 12.2607 47.0751 11.794 47.5324 11.458C47.9991 11.122 48.5451 10.954 49.1704 10.954C50.1504 10.954 50.9017 11.276 51.4244 11.92C51.9471 12.564 52.2084 13.4553 52.2084 14.594ZM50.9344 14.216C50.9344 13.488 50.7897 12.9327 50.5004 12.55C50.2111 12.1673 49.7771 11.976 49.1984 11.976C48.1437 11.976 47.5697 12.7507 47.4764 14.3H50.9344V14.216ZM56.2673 10.954C56.7713 10.954 57.224 11.024 57.6253 11.164C58.0266 11.304 58.4093 11.514 58.7733 11.794L58.2273 12.606C57.8913 12.3913 57.5693 12.2327 57.2613 12.13C56.9626 12.0273 56.6453 11.976 56.3093 11.976C55.8893 11.976 55.558 12.0647 55.3153 12.242C55.0726 12.41 54.9513 12.6433 54.9513 12.942C54.9513 13.2407 55.0633 13.474 55.2873 13.642C55.5206 13.81 55.936 13.9733 56.5333 14.132C57.3546 14.3373 57.966 14.6173 58.3673 14.972C58.778 15.3267 58.9833 15.812 58.9833 16.428C58.9833 17.156 58.6986 17.7113 58.1293 18.094C57.5693 18.4767 56.8833 18.668 56.0713 18.668C54.9513 18.668 54.0226 18.346 53.2853 17.702L53.9713 16.918C54.5966 17.394 55.2873 17.632 56.0433 17.632C56.5286 17.632 56.9113 17.534 57.1913 17.338C57.4806 17.1327 57.6253 16.8573 57.6253 16.512C57.6253 16.26 57.574 16.0593 57.4713 15.91C57.3686 15.7513 57.1913 15.616 56.9393 15.504C56.6873 15.3827 56.3186 15.2567 55.8333 15.126C55.0493 14.9207 54.48 14.6453 54.1253 14.3C53.78 13.9547 53.6073 13.516 53.6073 12.984C53.6073 12.6013 53.7193 12.256 53.9433 11.948C54.1766 11.6307 54.494 11.388 54.8953 11.22C55.306 11.0427 55.7633 10.954 56.2673 10.954ZM62.6657 10.954C63.1697 10.954 63.6224 11.024 64.0237 11.164C64.4251 11.304 64.8077 11.514 65.1717 11.794L64.6257 12.606C64.2897 12.3913 63.9677 12.2327 63.6597 12.13C63.3611 12.0273 63.0437 11.976 62.7077 11.976C62.2877 11.976 61.9564 12.0647 61.7137 12.242C61.4711 12.41 61.3497 12.6433 61.3497 12.942C61.3497 13.2407 61.4617 13.474 61.6857 13.642C61.9191 13.81 62.3344 13.9733 62.9317 14.132C63.7531 14.3373 64.3644 14.6173 64.7657 14.972C65.1764 15.3267 65.3817 15.812 65.3817 16.428C65.3817 17.156 65.0971 17.7113 64.5277 18.094C63.9677 18.4767 63.2817 18.668 62.4697 18.668C61.3497 18.668 60.4211 18.346 59.6837 17.702L60.3697 16.918C60.9951 17.394 61.6857 17.632 62.4417 17.632C62.9271 17.632 63.3097 17.534 63.5897 17.338C63.8791 17.1327 64.0237 16.8573 64.0237 16.512C64.0237 16.26 63.9724 16.0593 63.8697 15.91C63.7671 15.7513 63.5897 15.616 63.3377 15.504C63.0857 15.3827 62.7171 15.2567 62.2317 15.126C61.4477 14.9207 60.8784 14.6453 60.5237 14.3C60.1784 13.9547 60.0057 13.516 60.0057 12.984C60.0057 12.6013 60.1177 12.256 60.3417 11.948C60.5751 11.6307 60.8924 11.388 61.2937 11.22C61.7044 11.0427 62.1617 10.954 62.6657 10.954ZM72.0322 16.778C72.0322 17.0767 72.0835 17.3007 72.1862 17.45C72.2888 17.59 72.4428 17.6973 72.6482 17.772L72.3542 18.668C71.9715 18.6213 71.6635 18.514 71.4302 18.346C71.1968 18.178 71.0242 17.9167 70.9122 17.562C70.4175 18.2993 69.6848 18.668 68.7142 18.668C67.9862 18.668 67.4122 18.4627 66.9922 18.052C66.5722 17.6413 66.3622 17.1047 66.3622 16.442C66.3622 15.658 66.6422 15.056 67.2022 14.636C67.7715 14.216 68.5742 14.006 69.6102 14.006H70.7442V13.46C70.7442 12.9373 70.6182 12.564 70.3662 12.34C70.1142 12.116 69.7268 12.004 69.2042 12.004C68.6628 12.004 68.0002 12.1347 67.2162 12.396L66.8942 11.458C67.8088 11.122 68.6582 10.954 69.4422 10.954C70.3102 10.954 70.9588 11.1687 71.3882 11.598C71.8175 12.018 72.0322 12.62 72.0322 13.404V16.778ZM69.0082 17.702C69.7455 17.702 70.3242 17.3193 70.7442 16.554V14.86H69.7782C68.4155 14.86 67.7342 15.364 67.7342 16.372C67.7342 16.8107 67.8415 17.142 68.0562 17.366C68.2708 17.59 68.5882 17.702 69.0082 17.702ZM77.8834 10.954C78.1447 10.954 78.3874 10.982 78.6114 11.038L78.3734 12.298C78.1494 12.242 77.9347 12.214 77.7294 12.214C77.2721 12.214 76.9034 12.382 76.6234 12.718C76.3434 13.054 76.1241 13.5767 75.9654 14.286V18.5H74.6774V11.122H75.7834L75.9094 12.62C76.1054 12.0693 76.3714 11.654 76.7074 11.374C77.0434 11.094 77.4354 10.954 77.8834 10.954Z" fill="#141414"/>
<defs>
<linearGradient id="paint0_linear_615_119" x1="44.4344" y1="0" x2="44.4344" y2="27" gradientUnits="userSpaceOnUse">
<stop stop-color="#7B001E"/>
<stop offset="1" stop-color="#BF2D50"/>
</linearGradient>
</defs>
</svg>
