<svg width="91" height="27" viewBox="0 0 91 27" fill="none" xmlns="http://www.w3.org/2000/svg">
<rect x="0.5" y="0.5" width="90" height="26" rx="4.5" fill="url(#paint0_linear_655_108)"/>
<path d="M16.1447 18.6328C16.1447 18.7024 16.0647 18.7581 15.9639 18.7581C15.8491 18.7684 15.7692 18.7129 15.7692 18.6328C15.7692 18.5633 15.8491 18.5076 15.95 18.5076C16.0544 18.4972 16.1447 18.5528 16.1447 18.6328Z" fill="#141414"/>
<path d="M15.0632 18.4764C15.0389 18.546 15.1084 18.6259 15.2127 18.6468C15.3032 18.6816 15.4076 18.6468 15.4284 18.5773C15.4493 18.5077 15.3832 18.4277 15.2789 18.3964C15.1884 18.3721 15.0876 18.4068 15.0632 18.4764Z" fill="#141414"/>
<path d="M16.6004 18.4175C16.4995 18.4419 16.43 18.5079 16.4404 18.5879C16.4508 18.6574 16.5413 18.7028 16.6456 18.6784C16.7465 18.654 16.816 18.5879 16.8056 18.5184C16.7951 18.4523 16.7012 18.4071 16.6004 18.4175Z" fill="#141414"/>
<path d="M13.7555 17.0851C13.7102 17.1199 13.7207 17.1999 13.7797 17.2659C13.8354 17.3215 13.9154 17.3458 13.9606 17.3007C14.0058 17.2659 13.9953 17.1859 13.9362 17.1199C13.8807 17.0642 13.8007 17.0399 13.7555 17.0851Z" fill="#141414"/>
<path d="M14.1102 17.5308C14.0546 17.5655 14.0546 17.6559 14.1102 17.7359C14.1659 17.8159 14.2598 17.8507 14.305 17.8159C14.3606 17.7707 14.3606 17.6803 14.305 17.6003C14.2563 17.5204 14.1659 17.4855 14.1102 17.5308Z" fill="#141414"/>
<path d="M13.3799 16.8036C13.3556 16.8488 13.3903 16.9044 13.4599 16.9392C13.5156 16.9741 13.5851 16.9636 13.6095 16.9149C13.6338 16.8697 13.599 16.8141 13.5295 16.7793C13.4599 16.7584 13.4043 16.7688 13.3799 16.8036Z" fill="#141414"/>
<path d="M14.5066 18.0417C14.4509 18.0869 14.4718 18.1913 14.5518 18.2573C14.6318 18.3373 14.7326 18.3478 14.7778 18.2921C14.823 18.2469 14.8022 18.1426 14.7326 18.0765C14.6561 17.9965 14.5518 17.9861 14.5066 18.0417Z" fill="#141414"/>
<path d="M18.8888 5.09033C14.0651 5.09033 10.3751 8.75245 10.3751 13.5763C10.3751 17.4332 12.8026 20.7337 16.27 21.8953C16.7152 21.9753 16.8717 21.7005 16.8717 21.4744C16.8717 21.2588 16.8613 20.0694 16.8613 19.3391C16.8613 19.3391 14.4268 19.8608 13.9156 18.3026C13.9156 18.3026 12.7836 16.9108 12.2132 16.6499C12.2132 16.6499 11.4168 15.8895 12.2689 15.8999C12.2689 15.8999 13.8704 15.987 14.3468 16.8147C15.1085 18.1572 16.3848 17.7712 16.8822 17.5416C16.9622 16.9851 17.1882 16.5045 17.4386 16.275C15.4945 16.0593 13.533 16.2456 13.533 12.8999C13.533 11.9435 13.7973 11.4034 14.3538 10.7913C14.2634 10.5652 13.9678 9.63319 14.4443 8.4298C15.1711 8.20375 16.8439 9.36885 16.8439 9.36885C17.5395 9.17407 18.2873 9.07323 19.028 9.07323C19.7689 9.07323 20.5165 9.17407 21.2121 9.36885C21.2121 9.36885 22.885 8.20026 23.6118 8.4298C24.0882 9.6366 23.7927 10.5652 23.7023 10.7913C24.2588 11.4069 24.5995 11.947 24.5995 12.8999C24.5995 16.2561 22.5511 16.6326 20.607 16.8517C20.9269 17.1264 21.1982 17.7428 21.1982 18.5601C21.1982 19.7321 21.1878 21.1824 21.1878 21.4675C21.1878 21.6936 21.3478 21.9683 21.7894 21.8884C25.2673 20.7337 27.6252 17.4333 27.6252 13.5764C27.6252 8.75246 23.7126 5.09033 18.8888 5.09033Z" fill="url(#paint1_linear_655_108)"/>
<path d="M16.4191 22.2845C16.3503 22.2845 16.2778 22.2777 16.2036 22.2644C16.1857 22.2612 16.1681 22.2566 16.1508 22.2509C12.4718 21.0183 10 17.5323 10 13.5763C10 11.1445 10.9086 8.90088 12.5584 7.2586C14.206 5.61853 16.4541 4.71533 18.8887 4.71533C21.335 4.71533 23.621 5.61691 25.3255 7.25391C27.0502 8.9103 28 11.1556 28 13.5763C28 15.5398 27.4183 17.4021 26.3177 18.9619C25.2217 20.5152 23.6966 21.6502 21.9074 22.2442C21.8906 22.2498 21.8735 22.2542 21.8561 22.2573C21.7822 22.2707 21.7098 22.2775 21.641 22.2775H21.641C21.0972 22.2774 20.8126 21.87 20.8126 21.4674C20.8126 21.3729 20.8138 21.151 20.8153 20.8536C20.8183 20.2524 20.823 19.3439 20.823 18.56C20.823 17.8496 20.5917 17.3329 20.3626 17.1361C20.2493 17.0389 20.2046 16.8839 20.2484 16.7413C20.2924 16.5987 20.4166 16.4957 20.5649 16.479C22.6383 16.2453 24.2244 15.8334 24.2244 12.8999C24.2244 12.0784 23.9548 11.6299 23.4239 11.0427C23.3279 10.9365 23.3007 10.7849 23.3539 10.6519C23.4115 10.508 23.6644 9.7779 23.3384 8.77713C22.829 8.81595 21.9068 9.34076 21.4267 9.6762C21.3346 9.74044 21.2188 9.76009 21.1108 9.72986C20.4527 9.54555 19.7324 9.44812 19.0278 9.44812C18.3234 9.44812 17.6031 9.54555 16.9449 9.72986C16.837 9.76005 16.7213 9.74048 16.6294 9.6765C16.1482 9.34177 15.2256 8.81823 14.7169 8.77807C14.3909 9.77693 14.6442 10.5078 14.7019 10.6519C14.7552 10.7852 14.7277 10.9372 14.6312 11.0434C14.1621 11.5594 13.9079 12.0081 13.9079 12.8999C13.9079 15.5748 15.1636 15.6885 16.9017 15.8459C17.0903 15.863 17.2854 15.8807 17.4799 15.9022C17.6261 15.9184 17.7493 16.0186 17.795 16.1585C17.8407 16.2983 17.8004 16.4519 17.6919 16.5513C17.5264 16.7031 17.3266 17.0846 17.2533 17.5949C17.2352 17.7207 17.1546 17.8288 17.0392 17.882C16.8225 17.9821 16.3835 18.1499 15.8785 18.1499C15.3286 18.1499 14.5599 17.9504 14.0206 16.9998C13.7493 16.5285 12.8353 16.3364 12.3856 16.2863C12.402 16.3055 12.4189 16.3244 12.436 16.3423C13.0588 16.6775 14.0152 17.8309 14.2064 18.0661C14.2353 18.1016 14.2575 18.1422 14.2718 18.1858C14.4595 18.758 15.0301 19.0481 15.9676 19.048C16.4197 19.048 16.7796 18.9731 16.7832 18.9723C16.8938 18.949 17.0093 18.9767 17.0971 19.0479C17.185 19.1191 17.2362 19.226 17.2362 19.3391C17.2362 19.8111 17.2405 20.4663 17.2437 20.9446C17.2453 21.2006 17.2466 21.3982 17.2466 21.4744C17.2466 21.877 16.9624 22.2845 16.4191 22.2845ZM16.3604 21.5301C16.3816 21.5329 16.4013 21.5345 16.4191 21.5345C16.4857 21.5345 16.4966 21.526 16.4966 21.4744C16.4966 21.3988 16.4953 21.2031 16.4936 20.9495C16.4913 20.6041 16.4885 20.1666 16.4871 19.7717C16.3378 19.7865 16.1602 19.798 15.9675 19.798C14.7394 19.798 13.8961 19.3339 13.5833 18.489C13.1575 17.972 12.4026 17.1489 12.057 16.9909C12.0191 16.9736 11.9842 16.95 11.954 16.9211C11.7747 16.7499 11.3753 16.3076 11.5389 15.8993C11.6074 15.7284 11.7865 15.5248 12.2514 15.5248L12.2732 15.525C12.2785 15.525 12.2838 15.5252 12.289 15.5255C12.4737 15.5356 14.1099 15.6518 14.6716 16.6277C14.9668 17.148 15.3612 17.4 15.8783 17.4C16.1361 17.4 16.3747 17.3367 16.5487 17.2734C16.6004 17.0275 16.6782 16.7939 16.7752 16.5876C15.0667 16.4324 13.1577 16.2221 13.1577 12.8999C13.1577 11.875 13.4495 11.2754 13.9303 10.7051C13.8116 10.2828 13.6633 9.38276 14.0953 8.29177C14.1371 8.18628 14.2243 8.10543 14.3326 8.07172C14.4308 8.04119 14.54 8.0257 14.6572 8.0257C15.4111 8.0257 16.5047 8.69501 16.9116 8.96242C17.5878 8.78928 18.3156 8.69819 19.0277 8.69819C19.7398 8.69819 20.4674 8.78925 21.1435 8.96235C21.5501 8.69437 22.6415 8.02484 23.3958 8.02484C23.5146 8.02484 23.6252 8.04074 23.7246 8.07213C23.8323 8.10614 23.919 8.18692 23.9605 8.29199C24.3915 9.38374 24.2439 10.2826 24.1254 10.7047C24.6534 11.3241 24.9744 11.9356 24.9744 12.8999C24.9744 14.5397 24.5086 15.6705 23.5505 16.3569C22.894 16.8273 22.0891 17.0257 21.2763 17.1447C21.4654 17.5359 21.573 18.0317 21.573 18.56C21.573 19.3458 21.5683 20.2555 21.5653 20.8575C21.5638 21.153 21.5626 21.3736 21.5626 21.4675C21.5626 21.5185 21.5744 21.5275 21.641 21.5275H21.6411C21.6587 21.5275 21.6781 21.526 21.6991 21.5231C25.0205 20.4067 27.25 17.217 27.25 13.5763C27.25 9.02812 23.5773 5.46537 18.8887 5.46537C14.2489 5.46537 10.75 8.95233 10.75 13.5763C10.75 17.1993 13.0032 20.3917 16.3604 21.5301Z" fill="#141414"/>
<path d="M42.956 8.686C43.5627 8.686 44.0853 8.77467 44.524 8.952C44.972 9.12 45.4153 9.386 45.854 9.75L45.07 10.562C44.7247 10.282 44.3933 10.0813 44.076 9.96C43.7587 9.83867 43.3853 9.778 42.956 9.778C42.4613 9.778 42.004 9.91333 41.584 10.184C41.1733 10.4453 40.8373 10.87 40.576 11.458C40.3147 12.0367 40.184 12.774 40.184 13.67C40.184 15.0233 40.4033 16.0127 40.842 16.638C41.29 17.2633 41.948 17.576 42.816 17.576C43.5253 17.576 44.1367 17.4313 44.65 17.142V14.23H42.942L42.788 13.152H45.966V17.814C44.9673 18.3833 43.9173 18.668 42.816 18.668C41.5467 18.668 40.5527 18.2433 39.834 17.394C39.1247 16.5447 38.77 15.3033 38.77 13.67C38.77 12.6247 38.9567 11.7287 39.33 10.982C39.7127 10.226 40.2213 9.65667 40.856 9.274C41.5 8.882 42.2 8.686 42.956 8.686ZM49.45 11.122V18.5H48.162V11.122H49.45ZM48.792 7.58C49.0627 7.58 49.282 7.664 49.45 7.832C49.618 8 49.702 8.21 49.702 8.462C49.702 8.714 49.618 8.924 49.45 9.092C49.282 9.25067 49.0627 9.33 48.792 9.33C48.5307 9.33 48.316 9.25067 48.148 9.092C47.98 8.924 47.896 8.714 47.896 8.462C47.896 8.21 47.98 8 48.148 7.832C48.316 7.664 48.5307 7.58 48.792 7.58ZM55.8372 18.164C55.3519 18.5 54.8012 18.668 54.1852 18.668C53.5599 18.668 53.0699 18.4907 52.7152 18.136C52.3699 17.772 52.1972 17.2493 52.1972 16.568V12.116H50.9092V11.122H52.1972V9.456L53.4852 9.302V11.122H55.2352L55.0952 12.116H53.4852V16.512C53.4852 16.8947 53.5505 17.1747 53.6812 17.352C53.8212 17.52 54.0499 17.604 54.3672 17.604C54.6565 17.604 54.9832 17.506 55.3472 17.31L55.8372 18.164ZM60.6438 10.954C61.3158 10.954 61.8385 11.1547 62.2118 11.556C62.5945 11.9573 62.7858 12.508 62.7858 13.208V18.5H61.4978V13.39C61.4978 12.8673 61.3951 12.4987 61.1898 12.284C60.9938 12.0693 60.7045 11.962 60.3218 11.962C59.9391 11.962 59.5985 12.074 59.2998 12.298C59.0011 12.522 58.7211 12.8393 58.4598 13.25V18.5H57.1718V8.168L58.4598 8.028V12.144C59.0385 11.3507 59.7665 10.954 60.6438 10.954ZM70.8629 18.5H69.7569L69.6589 17.352C69.3789 17.8093 69.0569 18.1453 68.6929 18.36C68.3289 18.5653 67.8856 18.668 67.3629 18.668C66.7189 18.668 66.2149 18.472 65.8509 18.08C65.4869 17.688 65.3049 17.1327 65.3049 16.414V11.122H66.5929V16.274C66.5929 16.778 66.6816 17.1373 66.8589 17.352C67.0363 17.5573 67.3256 17.66 67.7269 17.66C68.4456 17.66 69.0616 17.2353 69.5749 16.386V11.122H70.8629V18.5ZM76.8974 10.954C77.7374 10.954 78.4047 11.2947 78.8994 11.976C79.394 12.648 79.6414 13.5907 79.6414 14.804C79.6414 15.5693 79.5247 16.246 79.2914 16.834C79.058 17.4127 78.722 17.8653 78.2834 18.192C77.8447 18.5093 77.3314 18.668 76.7434 18.668C75.9687 18.668 75.3154 18.3413 74.7834 17.688L74.6574 18.5H73.5234V8.154L74.8114 8V12.046C75.3434 11.318 76.0387 10.954 76.8974 10.954ZM76.4354 17.646C77.0047 17.646 77.448 17.4173 77.7654 16.96C78.092 16.4933 78.2554 15.7747 78.2554 14.804C78.2554 13.8053 78.106 13.0867 77.8074 12.648C77.5087 12.2 77.084 11.976 76.5334 11.976C75.88 11.976 75.306 12.3587 74.8114 13.124V16.652C75.0074 16.96 75.2454 17.2027 75.5254 17.38C75.8147 17.5573 76.118 17.646 76.4354 17.646Z" fill="#141414"/>
<rect x="0.5" y="0.5" width="90" height="26" rx="4.5" stroke="url(#paint2_linear_655_108)"/>
<defs>
<linearGradient id="paint0_linear_655_108" x1="45.5" y1="0" x2="45.5" y2="27" gradientUnits="userSpaceOnUse">
<stop stop-color="#7B001E"/>
<stop offset="1" stop-color="#BF2D50"/>
</linearGradient>
<linearGradient id="paint1_linear_655_108" x1="19.0002" y1="5.09033" x2="19.0002" y2="21.9095" gradientUnits="userSpaceOnUse">
<stop stop-color="#7B001E"/>
<stop offset="1" stop-color="#BF2D50"/>
</linearGradient>
<linearGradient id="paint2_linear_655_108" x1="45.5" y1="0" x2="45.5" y2="27" gradientUnits="userSpaceOnUse">
<stop stop-color="#7B001E"/>
<stop offset="1" stop-color="#BF2D50"/>
</linearGradient>
</defs>
</svg>
