<svg width="146" height="27" viewBox="0 0 146 27" fill="none" xmlns="http://www.w3.org/2000/svg">
<rect width="146" height="27" rx="5" fill="url(#paint0_linear_616_162)"/>
<path d="M18.5749 6.71659L11.5166 18.4999C11.371 18.7519 11.294 19.0377 11.2932 19.3287C11.2924 19.6197 11.3678 19.9059 11.5119 20.1587C11.656 20.4115 11.8638 20.6222 12.1147 20.7698C12.3655 20.9174 12.6506 20.9967 12.9416 20.9999H27.0582C27.3492 20.9967 27.6343 20.9174 27.8851 20.7698C28.136 20.6222 28.3438 20.4115 28.4879 20.1587C28.632 19.9059 28.7074 19.6197 28.7066 19.3287C28.7058 19.0377 28.6288 18.7519 28.4832 18.4999L21.4249 6.71659C21.2763 6.47168 21.0672 6.26919 20.8176 6.12866C20.568 5.98813 20.2863 5.91431 19.9999 5.91431C19.7134 5.91431 19.4318 5.98813 19.1822 6.12866C18.9326 6.26919 18.7235 6.47168 18.5749 6.71659Z" stroke="#141414" stroke-width="2" stroke-linecap="round" stroke-linejoin="round"/>
<path d="M20 11V14.3333" stroke="#141414" stroke-width="2" stroke-linecap="round" stroke-linejoin="round"/>
<path d="M20 17.6667H20.0083" stroke="#141414" stroke-width="2" stroke-linecap="round" stroke-linejoin="round"/>
<path d="M46.622 8.854L46.468 9.918H42.73V13.068H45.978V14.132H42.73V17.436H46.734V18.5H41.4V8.854H46.622ZM56.0915 10.954C56.6981 10.954 57.1835 11.1593 57.5475 11.57C57.9115 11.9713 58.0935 12.5173 58.0935 13.208V18.5H56.8055V13.39C56.8055 12.438 56.4601 11.962 55.7695 11.962C55.4055 11.962 55.0975 12.0693 54.8455 12.284C54.5935 12.4893 54.3228 12.816 54.0335 13.264V18.5H52.7455V13.39C52.7455 12.438 52.4001 11.962 51.7095 11.962C51.3361 11.962 51.0235 12.0693 50.7715 12.284C50.5195 12.4987 50.2535 12.8253 49.9735 13.264V18.5H48.6855V11.122H49.7915L49.9035 12.2C50.4541 11.3693 51.1635 10.954 52.0315 10.954C52.4888 10.954 52.8761 11.0707 53.1935 11.304C53.5201 11.5373 53.7535 11.864 53.8935 12.284C54.1828 11.8547 54.5001 11.528 54.8455 11.304C55.2001 11.0707 55.6155 10.954 56.0915 10.954ZM69.3645 16.778C69.3645 17.0767 69.4158 17.3007 69.5185 17.45C69.6211 17.59 69.7751 17.6973 69.9805 17.772L69.6865 18.668C69.3038 18.6213 68.9958 18.514 68.7625 18.346C68.5291 18.178 68.3565 17.9167 68.2445 17.562C67.7498 18.2993 67.0171 18.668 66.0465 18.668C65.3185 18.668 64.7445 18.4627 64.3245 18.052C63.9045 17.6413 63.6945 17.1047 63.6945 16.442C63.6945 15.658 63.9745 15.056 64.5345 14.636C65.1038 14.216 65.9065 14.006 66.9425 14.006H68.0765V13.46C68.0765 12.9373 67.9505 12.564 67.6985 12.34C67.4465 12.116 67.0591 12.004 66.5365 12.004C65.9951 12.004 65.3325 12.1347 64.5485 12.396L64.2265 11.458C65.1411 11.122 65.9905 10.954 66.7745 10.954C67.6425 10.954 68.2911 11.1687 68.7205 11.598C69.1498 12.018 69.3645 12.62 69.3645 13.404V16.778ZM66.3405 17.702C67.0778 17.702 67.6565 17.3193 68.0765 16.554V14.86H67.1105C65.7478 14.86 65.0665 15.364 65.0665 16.372C65.0665 16.8107 65.1738 17.142 65.3885 17.366C65.6031 17.59 65.9205 17.702 66.3405 17.702ZM75.4817 10.954C76.1537 10.954 76.6764 11.1547 77.0497 11.556C77.4324 11.9573 77.6237 12.508 77.6237 13.208V18.5H76.3357V13.39C76.3357 12.8673 76.2377 12.4987 76.0417 12.284C75.8457 12.0693 75.5564 11.962 75.1737 11.962C74.7817 11.962 74.4364 12.074 74.1377 12.298C73.839 12.522 73.559 12.844 73.2977 13.264V18.5H72.0097V11.122H73.1157L73.2277 12.214C73.489 11.822 73.811 11.514 74.1937 11.29C74.5857 11.066 75.015 10.954 75.4817 10.954ZM85.9248 8.154V18.5H84.7908L84.6648 17.478C84.4221 17.8513 84.1188 18.1453 83.7548 18.36C83.3908 18.5653 82.9848 18.668 82.5368 18.668C81.6595 18.668 80.9735 18.3227 80.4788 17.632C79.9935 16.9413 79.7508 16.0127 79.7508 14.846C79.7508 14.09 79.8675 13.418 80.1008 12.83C80.3341 12.242 80.6701 11.7847 81.1088 11.458C81.5475 11.122 82.0608 10.954 82.6488 10.954C83.4048 10.954 84.0675 11.2573 84.6368 11.864V8L85.9248 8.154ZM82.8168 17.646C83.2088 17.646 83.5448 17.5573 83.8248 17.38C84.1048 17.1933 84.3755 16.918 84.6368 16.554V12.942C84.3941 12.6247 84.1328 12.3867 83.8528 12.228C83.5821 12.06 83.2741 11.976 82.9288 11.976C82.3595 11.976 81.9161 12.214 81.5988 12.69C81.2908 13.166 81.1368 13.8753 81.1368 14.818C81.1368 15.77 81.2815 16.4793 81.5708 16.946C81.8601 17.4127 82.2755 17.646 82.8168 17.646ZM93.55 16.778C93.55 17.0767 93.6013 17.3007 93.704 17.45C93.8067 17.59 93.9607 17.6973 94.166 17.772L93.872 18.668C93.4893 18.6213 93.1813 18.514 92.948 18.346C92.7147 18.178 92.542 17.9167 92.43 17.562C91.9353 18.2993 91.2027 18.668 90.232 18.668C89.504 18.668 88.93 18.4627 88.51 18.052C88.09 17.6413 87.88 17.1047 87.88 16.442C87.88 15.658 88.16 15.056 88.72 14.636C89.2893 14.216 90.092 14.006 91.128 14.006H92.262V13.46C92.262 12.9373 92.136 12.564 91.884 12.34C91.632 12.116 91.2447 12.004 90.722 12.004C90.1807 12.004 89.518 12.1347 88.734 12.396L88.412 11.458C89.3267 11.122 90.176 10.954 90.96 10.954C91.828 10.954 92.4767 11.1687 92.906 11.598C93.3353 12.018 93.55 12.62 93.55 13.404V16.778ZM90.526 17.702C91.2633 17.702 91.842 17.3193 92.262 16.554V14.86H91.296C89.9333 14.86 89.252 15.364 89.252 16.372C89.252 16.8107 89.3593 17.142 89.574 17.366C89.7887 17.59 90.106 17.702 90.526 17.702ZM103.601 10.954C104.208 10.954 104.693 11.1593 105.057 11.57C105.421 11.9713 105.603 12.5173 105.603 13.208V18.5H104.315V13.39C104.315 12.438 103.97 11.962 103.279 11.962C102.915 11.962 102.607 12.0693 102.355 12.284C102.103 12.4893 101.833 12.816 101.543 13.264V18.5H100.255V13.39C100.255 12.438 99.9099 11.962 99.2192 11.962C98.8459 11.962 98.5332 12.0693 98.2812 12.284C98.0292 12.4987 97.7632 12.8253 97.4832 13.264V18.5H96.1952V11.122H97.3012L97.4132 12.2C97.9639 11.3693 98.6732 10.954 99.5412 10.954C99.9986 10.954 100.386 11.0707 100.703 11.304C101.03 11.5373 101.263 11.864 101.403 12.284C101.693 11.8547 102.01 11.528 102.355 11.304C102.71 11.0707 103.125 10.954 103.601 10.954ZM113.771 14.594C113.771 14.8087 113.762 15.028 113.743 15.252H109.039C109.095 16.064 109.3 16.6613 109.655 17.044C110.01 17.4267 110.467 17.618 111.027 17.618C111.382 17.618 111.708 17.5667 112.007 17.464C112.306 17.3613 112.618 17.198 112.945 16.974L113.505 17.744C112.721 18.36 111.862 18.668 110.929 18.668C109.902 18.668 109.1 18.332 108.521 17.66C107.952 16.988 107.667 16.064 107.667 14.888C107.667 14.1227 107.788 13.446 108.031 12.858C108.283 12.2607 108.638 11.794 109.095 11.458C109.562 11.122 110.108 10.954 110.733 10.954C111.713 10.954 112.464 11.276 112.987 11.92C113.51 12.564 113.771 13.4553 113.771 14.594ZM112.497 14.216C112.497 13.488 112.352 12.9327 112.063 12.55C111.774 12.1673 111.34 11.976 110.761 11.976C109.706 11.976 109.132 12.7507 109.039 14.3H112.497V14.216ZM119.3 10.954C119.972 10.954 120.495 11.1547 120.868 11.556C121.251 11.9573 121.442 12.508 121.442 13.208V18.5H120.154V13.39C120.154 12.8673 120.056 12.4987 119.86 12.284C119.664 12.0693 119.375 11.962 118.992 11.962C118.6 11.962 118.255 12.074 117.956 12.298C117.657 12.522 117.377 12.844 117.116 13.264V18.5H115.828V11.122H116.934L117.046 12.214C117.307 11.822 117.629 11.514 118.012 11.29C118.404 11.066 118.833 10.954 119.3 10.954ZM127.755 18.164C127.27 18.5 126.719 18.668 126.103 18.668C125.478 18.668 124.988 18.4907 124.633 18.136C124.288 17.772 124.115 17.2493 124.115 16.568V12.116H122.827V11.122H124.115V9.456L125.403 9.302V11.122H127.153L127.013 12.116H125.403V16.512C125.403 16.8947 125.469 17.1747 125.599 17.352C125.739 17.52 125.968 17.604 126.285 17.604C126.575 17.604 126.901 17.506 127.265 17.31L127.755 18.164ZM131.657 10.954C132.693 10.954 133.495 11.2993 134.065 11.99C134.643 12.6807 134.933 13.6187 134.933 14.804C134.933 15.5693 134.802 16.246 134.541 16.834C134.279 17.4127 133.901 17.8653 133.407 18.192C132.912 18.5093 132.324 18.668 131.643 18.668C130.607 18.668 129.799 18.3227 129.221 17.632C128.642 16.9413 128.353 16.0033 128.353 14.818C128.353 14.0527 128.483 13.3807 128.745 12.802C129.006 12.214 129.384 11.7613 129.879 11.444C130.373 11.1173 130.966 10.954 131.657 10.954ZM131.657 11.99C130.378 11.99 129.739 12.9327 129.739 14.818C129.739 16.694 130.373 17.632 131.643 17.632C132.912 17.632 133.547 16.6893 133.547 14.804C133.547 12.928 132.917 11.99 131.657 11.99Z" fill="#141414"/>
<defs>
<linearGradient id="paint0_linear_616_162" x1="73" y1="0" x2="73" y2="27" gradientUnits="userSpaceOnUse">
<stop stop-color="#7B001E"/>
<stop offset="1" stop-color="#BF2D50"/>
</linearGradient>
</defs>
</svg>
