<svg width="201" height="265" viewBox="0 0 201 265" fill="none" xmlns="http://www.w3.org/2000/svg">
<rect x="0.5" y="0.5" width="200" height="264" rx="4.5" fill="#010808" stroke="#010808"/>
<path d="M84.136 190.28C85.5227 190.28 86.7493 190.483 87.816 190.888C88.904 191.293 89.928 191.901 90.888 192.712L88.392 195.688C87.7307 195.176 87.08 194.792 86.44 194.536C85.8 194.28 85.1173 194.152 84.392 194.152C82.8987 194.152 81.7147 194.781 80.84 196.04C79.9867 197.299 79.56 199.24 79.56 201.864C79.56 204.445 79.9867 206.365 80.84 207.624C81.7147 208.861 82.92 209.48 84.456 209.48C85.2667 209.48 86.0027 209.331 86.664 209.032C87.3253 208.712 88.04 208.264 88.808 207.688L91.144 210.696C90.312 211.528 89.2987 212.211 88.104 212.744C86.9307 213.277 85.6293 213.544 84.2 213.544C82.152 213.544 80.3707 213.096 78.856 212.2C77.3413 211.304 76.1573 209.981 75.304 208.232C74.472 206.461 74.056 204.339 74.056 201.864C74.056 199.453 74.4827 197.373 75.336 195.624C76.2107 193.875 77.4053 192.552 78.92 191.656C80.456 190.739 82.1947 190.28 84.136 190.28ZM100.31 190.28C101.974 190.28 103.414 190.515 104.63 190.984C105.867 191.453 106.987 192.168 107.99 193.128L105.558 195.976C104.043 194.739 102.422 194.12 100.694 194.12C99.7764 194.12 99.0511 194.312 98.5178 194.696C97.9844 195.059 97.7178 195.592 97.7178 196.296C97.7178 196.787 97.8351 197.192 98.0698 197.512C98.3044 197.811 98.7204 198.099 99.3177 198.376C99.9151 198.653 100.811 198.984 102.006 199.368C104.267 200.093 105.931 200.989 106.998 202.056C108.064 203.101 108.598 204.595 108.598 206.536C108.598 207.923 108.246 209.149 107.542 210.216C106.838 211.261 105.824 212.083 104.502 212.68C103.179 213.256 101.611 213.544 99.7978 213.544C97.9844 213.544 96.3738 213.256 94.9658 212.68C93.5791 212.104 92.3844 211.336 91.3818 210.376L94.0378 207.464C94.8911 208.189 95.7658 208.733 96.6618 209.096C97.5791 209.459 98.5711 209.64 99.6378 209.64C100.726 209.64 101.579 209.405 102.198 208.936C102.838 208.445 103.158 207.773 103.158 206.92C103.158 206.365 103.04 205.907 102.806 205.544C102.571 205.16 102.166 204.819 101.59 204.52C101.014 204.221 100.182 203.901 99.0938 203.56C96.6404 202.813 94.8911 201.896 93.8458 200.808C92.8218 199.72 92.3098 198.344 92.3098 196.68C92.3098 195.4 92.6511 194.28 93.3338 193.32C94.0164 192.339 94.9658 191.592 96.1818 191.08C97.3978 190.547 98.7738 190.28 100.31 190.28ZM118.279 190.28C119.943 190.28 121.383 190.515 122.599 190.984C123.836 191.453 124.956 192.168 125.958 193.128L123.527 195.976C122.012 194.739 120.391 194.12 118.663 194.12C117.745 194.12 117.02 194.312 116.487 194.696C115.953 195.059 115.687 195.592 115.687 196.296C115.687 196.787 115.804 197.192 116.039 197.512C116.273 197.811 116.689 198.099 117.286 198.376C117.884 198.653 118.78 198.984 119.975 199.368C122.236 200.093 123.9 200.989 124.967 202.056C126.033 203.101 126.567 204.595 126.567 206.536C126.567 207.923 126.215 209.149 125.51 210.216C124.807 211.261 123.793 212.083 122.471 212.68C121.148 213.256 119.58 213.544 117.767 213.544C115.953 213.544 114.343 213.256 112.935 212.68C111.548 212.104 110.353 211.336 109.351 210.376L112.007 207.464C112.86 208.189 113.735 208.733 114.631 209.096C115.548 209.459 116.54 209.64 117.607 209.64C118.695 209.64 119.548 209.405 120.167 208.936C120.807 208.445 121.127 207.773 121.127 206.92C121.127 206.365 121.009 205.907 120.775 205.544C120.54 205.16 120.135 204.819 119.559 204.52C118.983 204.221 118.151 203.901 117.062 203.56C114.609 202.813 112.86 201.896 111.815 200.808C110.791 199.72 110.279 198.344 110.279 196.68C110.279 195.4 110.62 194.28 111.303 193.32C111.985 192.339 112.935 191.592 114.151 191.08C115.367 190.547 116.743 190.28 118.279 190.28Z" fill="white"/>
<path d="M136.553 140.278L101.003 150L65.4531 140.278L57.25 50H144.756L136.553 140.278Z" fill="url(#paint0_linear_633_184)"/>
<path d="M101 56.25V142.969L129.85 134.4L137.525 56.25H101Z" fill="url(#paint1_linear_633_184)"/>
<path d="M127.134 68.75H74.772L76.0001 81.25H101L76.7813 90.5938L77.9345 103.125H111.944L110.869 115.625L101 118.719L91.1907 115.575L90.1657 109.375H78.5095L79.9438 124.959L101 131.219L122.025 124.956L125.122 90.5938H101.081L126 81.25L127.134 68.75Z" fill="#010808"/>
<defs>
<linearGradient id="paint0_linear_633_184" x1="101.003" y1="50" x2="101.003" y2="150" gradientUnits="userSpaceOnUse">
<stop stop-color="#7B001E"/>
<stop offset="1" stop-color="#BF2D50"/>
</linearGradient>
<linearGradient id="paint1_linear_633_184" x1="119.262" y1="56.25" x2="119.262" y2="142.969" gradientUnits="userSpaceOnUse">
<stop stop-color="#7B001E"/>
<stop offset="1" stop-color="#BF2D50"/>
</linearGradient>
</defs>
</svg>
