<svg width="206" height="70" viewBox="0 0 206 70" fill="none" xmlns="http://www.w3.org/2000/svg">
<rect opacity="0.5" width="206" height="70" rx="5" fill="#090909"/>
<path d="M72.784 46.352C69.648 46.352 67.2587 45.4133 65.616 43.536C63.9733 41.6373 63.152 39.0453 63.152 35.76C63.152 33.584 63.5253 31.6747 64.272 30.032C65.0187 28.3893 66.1067 27.12 67.536 26.224C68.9653 25.328 70.6613 24.88 72.624 24.88C73.6053 24.88 74.5653 25.008 75.504 25.264C76.464 25.4987 77.2853 25.7653 77.968 26.064C78.672 26.3413 79.024 26.4907 79.024 26.512L78.576 28.848C78.4267 28.7627 78.064 28.6027 77.488 28.368C76.912 28.112 76.2187 27.8667 75.408 27.632C74.6187 27.3973 73.872 27.28 73.168 27.28C71.9733 27.28 71.0027 27.5467 70.256 28.08C69.5093 28.6133 68.944 29.488 68.56 30.704C68.1973 31.92 68.016 33.552 68.016 35.6C68.016 38.608 68.4533 40.752 69.328 42.032C70.2027 43.312 71.5573 43.952 73.392 43.952C74.416 43.952 75.312 43.7387 76.08 43.312C76.8693 42.864 77.4987 42.384 77.968 41.872C78.4587 41.3387 78.704 41.04 78.704 40.976L80.112 42.512C80.112 42.6187 79.824 43.0027 79.248 43.664C78.6933 44.3253 77.872 44.944 76.784 45.52C75.696 46.0747 74.3627 46.352 72.784 46.352ZM87.1575 46.352C85.5148 46.352 84.2775 45.9147 83.4455 45.04C82.6348 44.144 82.2295 42.7573 82.2295 40.88V30H86.4855V39.984C86.4855 41.392 86.6562 42.3627 86.9975 42.896C87.3388 43.4293 87.8935 43.696 88.6615 43.696C89.1735 43.696 89.6322 43.6107 90.0375 43.44C90.4428 43.248 90.7628 43.056 90.9975 42.864C91.2322 42.672 91.3815 42.544 91.4455 42.48V30H95.7015V46H92.2775L91.6695 44.592H91.6055C91.6055 44.6347 91.4348 44.816 91.0935 45.136C90.7522 45.4347 90.2508 45.712 89.5895 45.968C88.9282 46.224 88.1175 46.352 87.1575 46.352ZM99.5763 30H102.584L103.288 32.688H103.416C103.416 32.56 103.502 32.2507 103.672 31.76C103.843 31.248 104.152 30.768 104.6 30.32C105.07 29.872 105.688 29.648 106.456 29.648C106.883 29.648 107.363 29.712 107.896 29.84C108.451 29.968 108.814 30.0533 108.984 30.096L108.6 33.072C108.43 33.0293 108.046 32.944 107.448 32.816C106.872 32.688 106.371 32.624 105.944 32.624C105.454 32.624 105.048 32.7733 104.728 33.072C104.43 33.3493 104.206 33.648 104.056 33.968C103.907 34.288 103.832 34.48 103.832 34.544V46H99.5763V30ZM110.951 30H113.959L114.663 32.688H114.791C114.791 32.56 114.877 32.2507 115.047 31.76C115.218 31.248 115.527 30.768 115.975 30.32C116.445 29.872 117.063 29.648 117.831 29.648C118.258 29.648 118.738 29.712 119.271 29.84C119.826 29.968 120.189 30.0533 120.359 30.096L119.975 33.072C119.805 33.0293 119.421 32.944 118.823 32.816C118.247 32.688 117.746 32.624 117.319 32.624C116.829 32.624 116.423 32.7733 116.103 33.072C115.805 33.3493 115.581 33.648 115.431 33.968C115.282 34.288 115.207 34.48 115.207 34.544V46H110.951V30ZM124.726 27.792L122.902 27.504L125.142 22.64L128.598 23.632L124.726 27.792ZM122.326 46V30H126.582V46H122.326ZM137.044 46.352C134.591 46.352 132.703 45.648 131.38 44.24C130.079 42.832 129.428 40.784 129.428 38.096C129.428 35.4933 130.111 33.4347 131.476 31.92C132.841 30.4053 134.729 29.648 137.14 29.648C137.801 29.648 138.473 29.744 139.156 29.936C139.86 30.1067 140.447 30.2987 140.916 30.512C141.385 30.704 141.684 30.832 141.812 30.896L141.396 32.944C141.289 32.88 141.023 32.7627 140.596 32.592C140.169 32.4 139.679 32.2187 139.124 32.048C138.569 31.8773 138.068 31.792 137.62 31.792C136.809 31.792 136.148 31.9627 135.636 32.304C135.124 32.6453 134.729 33.2747 134.452 34.192C134.175 35.088 134.036 36.368 134.036 38.032C134.036 40.4 134.335 42.0213 134.932 42.896C135.529 43.7707 136.383 44.208 137.492 44.208C138.239 44.208 138.879 44.048 139.412 43.728C139.967 43.3867 140.393 43.0347 140.692 42.672C140.991 42.288 141.14 42.064 141.14 42L142.644 42.96C142.644 43.088 142.452 43.44 142.068 44.016C141.684 44.5707 141.076 45.104 140.244 45.616C139.412 46.1067 138.345 46.352 137.044 46.352ZM149.501 46.352C147.859 46.352 146.621 45.9147 145.789 45.04C144.979 44.144 144.573 42.7573 144.573 40.88V30H148.829V39.984C148.829 41.392 149 42.3627 149.341 42.896C149.683 43.4293 150.237 43.696 151.005 43.696C151.517 43.696 151.976 43.6107 152.381 43.44C152.787 43.248 153.107 43.056 153.341 42.864C153.576 42.672 153.725 42.544 153.789 42.48V30H158.045V46H154.621L154.013 44.592H153.949C153.949 44.6347 153.779 44.816 153.437 45.136C153.096 45.4347 152.595 45.712 151.933 45.968C151.272 46.224 150.461 46.352 149.501 46.352ZM161.92 46V22.128L166.176 21.872V46H161.92ZM176.509 46.352C174.12 46.352 172.274 45.6267 170.973 44.176C169.693 42.7253 169.053 40.6667 169.053 38C169.053 35.3333 169.693 33.2747 170.973 31.824C172.274 30.3733 174.12 29.648 176.509 29.648C178.92 29.648 180.765 30.3733 182.045 31.824C183.346 33.2747 183.997 35.3333 183.997 38C183.997 40.6453 183.325 42.704 181.981 44.176C180.658 45.6267 178.834 46.352 176.509 46.352ZM176.509 44.24C177.213 44.24 177.768 44.0373 178.173 43.632C178.6 43.2267 178.909 42.576 179.101 41.68C179.293 40.784 179.389 39.5573 179.389 38C179.389 36.4427 179.293 35.216 179.101 34.32C178.909 33.424 178.61 32.784 178.205 32.4C177.8 31.9947 177.234 31.792 176.509 31.792C175.784 31.792 175.218 31.9947 174.813 32.4C174.408 32.784 174.109 33.424 173.917 34.32C173.725 35.216 173.629 36.432 173.629 37.968C173.629 39.5253 173.725 40.7627 173.917 41.68C174.109 42.576 174.408 43.2267 174.813 43.632C175.24 44.0373 175.805 44.24 176.509 44.24Z" fill="#F5F5F5"/>
<path d="M23.2535 40.5768V25.0616C23.2535 22.4817 25.3615 20.3738 27.9414 20.3738H44.313C46.8929 20.3738 49.0008 22.4817 49.0008 25.0616V42.2514C49.0008 44.8313 46.8925 46.9393 44.313 46.9393H30.0489V48.8948C30.0489 49.2988 29.7212 49.6265 29.3172 49.6265H21.731C21.327 49.6265 20.9993 49.2988 20.9993 48.8948V41.3085C20.9993 40.9046 21.327 40.5768 21.731 40.5768H23.2535ZM23.0501 45.5768C22.536 44.7697 23.7645 43.9866 24.279 44.7938L24.8123 45.6289L26.7891 42.8471C27.3447 42.0665 28.5335 42.9119 27.9779 43.6929L25.3739 47.3556C25.0784 47.7716 24.4459 47.7638 24.1659 47.3248L23.0501 45.5768ZM47.5378 39.8459H33.4824C32.5201 39.8459 32.5201 38.3828 33.4824 38.3828H47.5378V25.0616C47.5378 23.2896 46.085 21.8369 44.313 21.8369H27.9414C26.1693 21.8369 24.7166 23.2896 24.7166 25.0616V40.5768H29.3172C29.7212 40.5768 30.0489 40.9046 30.0489 41.3085V45.4762H44.313C46.085 45.4762 47.5378 44.0234 47.5378 42.2514V39.8459ZM28.4729 34.9865C28.4729 35.9485 27.0098 35.9485 27.0098 34.9865C27.0098 32.8786 28.1844 30.956 30.0461 29.984C29.4129 29.3175 29.055 28.4335 29.055 27.5115C29.055 25.5262 30.6648 23.9164 32.6501 23.9164C34.6354 23.9164 36.2452 25.5262 36.2452 27.5115C36.2452 28.4335 35.8873 29.3175 35.2541 29.984C37.1158 30.956 38.2904 32.8786 38.2904 34.9865C38.2904 35.9485 36.8273 35.9485 36.8273 34.9865C36.8273 33.0869 35.5489 31.4241 33.711 30.9439C33.3712 31.0495 33.0055 31.1066 32.6501 31.1066C32.2947 31.1066 31.9287 31.0495 31.5892 30.9439C29.7513 31.4241 28.4729 33.0869 28.4729 34.9865ZM32.6501 29.6435C33.841 29.6435 34.7821 28.6932 34.7821 27.5115C34.7821 26.3341 33.8276 25.3795 32.6501 25.3795C31.4727 25.3795 30.5181 26.3341 30.5181 27.5115C30.5181 28.7233 31.4868 29.6435 32.6501 29.6435ZM40.0504 35.7551C39.0883 35.7551 39.0883 34.292 40.0504 34.292H44.5132C45.4752 34.292 45.4752 35.7551 44.5132 35.7551H40.0504ZM40.0504 31.4414C39.0883 31.4414 39.0883 29.9784 40.0504 29.9784H44.5132C45.4752 29.9784 45.4752 31.4414 44.5132 31.4414H40.0504ZM40.0504 27.1274C39.0883 27.1274 39.0883 25.6644 40.0504 25.6644H44.5132C45.4752 25.6644 45.4752 27.1274 44.5132 27.1274H40.0504ZM28.5859 42.0399H22.4623V48.1631H28.5859V42.0399Z" fill="url(#paint0_linear_609_23)"/>
<defs>
<linearGradient id="paint0_linear_609_23" x1="35" y1="20.3738" x2="35" y2="49.6265" gradientUnits="userSpaceOnUse">
<stop stop-color="#7B001E"/>
<stop offset="1" stop-color="#BF2D50"/>
</linearGradient>
</defs>
</svg>
