<svg width="60" height="60" viewBox="0 0 60 60" fill="none" xmlns="http://www.w3.org/2000/svg">
<rect width="60" height="60" rx="5" fill="black"/>
<path d="M10.6227 39.6427V14.5743C10.6227 10.4058 14.0103 7 18.1563 7H44.4664C48.6124 7 52 10.4058 52 14.5743V42.3483C52 46.5168 48.6119 49.9226 44.4664 49.9226H21.5433V53.0823C21.5433 53.7349 21.0166 54.2645 20.3674 54.2645H8.17588C7.52673 54.2645 7 53.7349 7 53.0823V40.8249C7 40.1722 7.52673 39.6427 8.17588 39.6427H10.6227ZM10.2959 47.7213C9.46963 46.4171 11.4439 45.1519 12.2707 46.4561L13.1277 47.8055L16.3045 43.3107C17.1974 42.0495 19.1079 43.4155 18.215 44.6773L14.0302 50.5953C13.5553 51.2674 12.5389 51.2548 12.089 50.5455L10.2959 47.7213ZM49.6488 38.4616H27.0611C25.5145 38.4616 25.5145 36.0977 27.0611 36.0977H49.6488V14.5743C49.6488 11.7112 47.3141 9.36388 44.4664 9.36388H18.1563C15.3086 9.36388 12.9739 11.7112 12.9739 14.5743V39.6427H20.3674C21.0166 39.6427 21.5433 40.1722 21.5433 40.8249V47.5587H44.4664C47.3141 47.5587 49.6488 45.2114 49.6488 42.3483V38.4616ZM19.0105 30.6102C19.0105 32.1646 16.6593 32.1646 16.6593 30.6102C16.6593 27.2044 18.547 24.0979 21.5388 22.5275C20.5212 21.4507 19.9461 20.0223 19.9461 18.5326C19.9461 15.3248 22.533 12.7239 25.7235 12.7239C28.9141 12.7239 31.501 15.3248 31.501 18.5326C31.501 20.0223 30.9259 21.4507 29.9083 22.5275C32.9001 24.0979 34.7878 27.2044 34.7878 30.6102C34.7878 32.1646 32.4366 32.1646 32.4366 30.6102C32.4366 27.541 30.3821 24.8542 27.4284 24.0785C26.8823 24.2491 26.2947 24.3413 25.7235 24.3413C25.1524 24.3413 24.5642 24.2491 24.0186 24.0785C21.065 24.8542 19.0105 27.541 19.0105 30.6102ZM25.7235 21.9774C27.6374 21.9774 29.1498 20.4419 29.1498 18.5326C29.1498 16.6301 27.6157 15.0878 25.7235 15.0878C23.8313 15.0878 22.2972 16.6301 22.2972 18.5326C22.2972 20.4906 23.8541 21.9774 25.7235 21.9774ZM37.6161 31.852C36.0701 31.852 36.0701 29.4881 37.6161 29.4881H44.7881C46.3341 29.4881 46.3341 31.852 44.7881 31.852H37.6161ZM37.6161 24.8823C36.0701 24.8823 36.0701 22.5184 37.6161 22.5184H44.7881C46.3341 22.5184 46.3341 24.8823 44.7881 24.8823H37.6161ZM37.6161 17.912C36.0701 17.912 36.0701 15.5481 37.6161 15.5481H44.7881C46.3341 15.5481 46.3341 17.912 44.7881 17.912H37.6161ZM19.1921 42.0065H9.35119V51.9H19.1921V42.0065Z" fill="url(#paint0_linear_718_7)"/>
<defs>
<linearGradient id="paint0_linear_718_7" x1="29.5" y1="7" x2="29.5" y2="54.2645" gradientUnits="userSpaceOnUse">
<stop stop-color="#7B001E"/>
<stop offset="1" stop-color="#BF2D50"/>
</linearGradient>
</defs>
</svg>
