<svg width="120" height="36" viewBox="0 0 120 36" fill="none" xmlns="http://www.w3.org/2000/svg">
<rect opacity="0.5" width="120" height="36" rx="5" fill="#090909"/>
<path d="M39.74 25.22C37.78 25.22 36.2867 24.6333 35.26 23.46C34.2333 22.2733 33.72 20.6533 33.72 18.6C33.72 17.24 33.9533 16.0467 34.42 15.02C34.8867 13.9933 35.5667 13.2 36.46 12.64C37.3533 12.08 38.4133 11.8 39.64 11.8C40.2533 11.8 40.8533 11.88 41.44 12.04C42.04 12.1867 42.5533 12.3533 42.98 12.54C43.42 12.7133 43.64 12.8067 43.64 12.82L43.36 14.28C43.2667 14.2267 43.04 14.1267 42.68 13.98C42.32 13.82 41.8867 13.6667 41.38 13.52C40.8867 13.3733 40.42 13.3 39.98 13.3C39.2333 13.3 38.6267 13.4667 38.16 13.8C37.6933 14.1333 37.34 14.68 37.1 15.44C36.8733 16.2 36.76 17.22 36.76 18.5C36.76 20.38 37.0333 21.72 37.58 22.52C38.1267 23.32 38.9733 23.72 40.12 23.72C40.76 23.72 41.32 23.5867 41.8 23.32C42.2933 23.04 42.6867 22.74 42.98 22.42C43.2867 22.0867 43.44 21.9 43.44 21.86L44.32 22.82C44.32 22.8867 44.14 23.1267 43.78 23.54C43.4333 23.9533 42.92 24.34 42.24 24.7C41.56 25.0467 40.7267 25.22 39.74 25.22ZM48.7234 25.22C47.6968 25.22 46.9234 24.9467 46.4034 24.4C45.8968 23.84 45.6434 22.9733 45.6434 21.8V15H48.3034V21.24C48.3034 22.12 48.4101 22.7267 48.6234 23.06C48.8368 23.3933 49.1834 23.56 49.6634 23.56C49.9834 23.56 50.2701 23.5067 50.5234 23.4C50.7768 23.28 50.9768 23.16 51.1234 23.04C51.2701 22.92 51.3634 22.84 51.4034 22.8V15H54.0634V25H51.9234L51.5434 24.12H51.5034C51.5034 24.1467 51.3968 24.26 51.1834 24.46C50.9701 24.6467 50.6568 24.82 50.2434 24.98C49.8301 25.14 49.3234 25.22 48.7234 25.22ZM56.4852 15H58.3652L58.8052 16.68H58.8852C58.8852 16.6 58.9385 16.4067 59.0452 16.1C59.1518 15.78 59.3452 15.48 59.6252 15.2C59.9185 14.92 60.3052 14.78 60.7852 14.78C61.0518 14.78 61.3518 14.82 61.6852 14.9C62.0318 14.98 62.2585 15.0333 62.3652 15.06L62.1252 16.92C62.0185 16.8933 61.7785 16.84 61.4052 16.76C61.0452 16.68 60.7318 16.64 60.4652 16.64C60.1585 16.64 59.9052 16.7333 59.7052 16.92C59.5185 17.0933 59.3785 17.28 59.2852 17.48C59.1918 17.68 59.1452 17.8 59.1452 17.84V25H56.4852V15ZM63.5945 15H65.4745L65.9145 16.68H65.9945C65.9945 16.6 66.0479 16.4067 66.1545 16.1C66.2612 15.78 66.4545 15.48 66.7345 15.2C67.0279 14.92 67.4145 14.78 67.8945 14.78C68.1612 14.78 68.4612 14.82 68.7945 14.9C69.1412 14.98 69.3679 15.0333 69.4745 15.06L69.2345 16.92C69.1279 16.8933 68.8879 16.84 68.5145 16.76C68.1545 16.68 67.8412 16.64 67.5745 16.64C67.2679 16.64 67.0145 16.7333 66.8145 16.92C66.6279 17.0933 66.4879 17.28 66.3945 17.48C66.3012 17.68 66.2545 17.8 66.2545 17.84V25H63.5945V15ZM72.2039 13.62L71.0639 13.44L72.4639 10.4L74.6239 11.02L72.2039 13.62ZM70.7039 25V15H73.3639V25H70.7039ZM79.9025 25.22C78.3692 25.22 77.1892 24.78 76.3625 23.9C75.5492 23.02 75.1425 21.74 75.1425 20.06C75.1425 18.4333 75.5692 17.1467 76.4225 16.2C77.2758 15.2533 78.4558 14.78 79.9625 14.78C80.3758 14.78 80.7958 14.84 81.2225 14.96C81.6625 15.0667 82.0292 15.1867 82.3225 15.32C82.6158 15.44 82.8025 15.52 82.8825 15.56L82.6225 16.84C82.5558 16.8 82.3892 16.7267 82.1225 16.62C81.8558 16.5 81.5492 16.3867 81.2025 16.28C80.8558 16.1733 80.5425 16.12 80.2625 16.12C79.7558 16.12 79.3425 16.2267 79.0225 16.44C78.7025 16.6533 78.4558 17.0467 78.2825 17.62C78.1092 18.18 78.0225 18.98 78.0225 20.02C78.0225 21.5 78.2092 22.5133 78.5825 23.06C78.9558 23.6067 79.4892 23.88 80.1825 23.88C80.6492 23.88 81.0492 23.78 81.3825 23.58C81.7292 23.3667 81.9958 23.1467 82.1825 22.92C82.3692 22.68 82.4625 22.54 82.4625 22.5L83.4025 23.1C83.4025 23.18 83.2825 23.4 83.0425 23.76C82.8025 24.1067 82.4225 24.44 81.9025 24.76C81.3825 25.0667 80.7158 25.22 79.9025 25.22ZM87.6883 25.22C86.6616 25.22 85.8883 24.9467 85.3683 24.4C84.8616 23.84 84.6083 22.9733 84.6083 21.8V15H87.2683V21.24C87.2683 22.12 87.3749 22.7267 87.5883 23.06C87.8016 23.3933 88.1483 23.56 88.6283 23.56C88.9483 23.56 89.2349 23.5067 89.4883 23.4C89.7416 23.28 89.9416 23.16 90.0883 23.04C90.2349 22.92 90.3283 22.84 90.3683 22.8V15H93.0283V25H90.8883L90.5083 24.12H90.4683C90.4683 24.1467 90.3616 24.26 90.1483 24.46C89.9349 24.6467 89.6216 24.82 89.2083 24.98C88.7949 25.14 88.2883 25.22 87.6883 25.22ZM95.45 25V10.08L98.11 9.92V25H95.45ZM104.568 25.22C103.075 25.22 101.921 24.7667 101.108 23.86C100.308 22.9533 99.9081 21.6667 99.9081 20C99.9081 18.3333 100.308 17.0467 101.108 16.14C101.921 15.2333 103.075 14.78 104.568 14.78C106.075 14.78 107.228 15.2333 108.028 16.14C108.841 17.0467 109.248 18.3333 109.248 20C109.248 21.6533 108.828 22.94 107.988 23.86C107.161 24.7667 106.021 25.22 104.568 25.22ZM104.568 23.9C105.008 23.9 105.355 23.7733 105.608 23.52C105.875 23.2667 106.068 22.86 106.188 22.3C106.308 21.74 106.368 20.9733 106.368 20C106.368 19.0267 106.308 18.26 106.188 17.7C106.068 17.14 105.881 16.74 105.628 16.5C105.375 16.2467 105.021 16.12 104.568 16.12C104.115 16.12 103.761 16.2467 103.508 16.5C103.255 16.74 103.068 17.14 102.948 17.7C102.828 18.26 102.768 19.02 102.768 19.98C102.768 20.9533 102.828 21.7267 102.948 22.3C103.068 22.86 103.255 23.2667 103.508 23.52C103.775 23.7733 104.128 23.9 104.568 23.9Z" fill="#F5F5F5"/>
<g clip-path="url(#clip0_727_13)">
<path d="M10.1691 21.7179V11.3744C10.1691 9.65449 11.5744 8.24921 13.2943 8.24921H24.2087C25.9287 8.24921 27.334 9.65449 27.334 11.3744V22.8343C27.334 24.5542 25.9284 25.9595 24.2087 25.9595H14.6994V27.2632C14.6994 27.5325 14.4809 27.751 14.2116 27.751H9.15406C8.88477 27.751 8.66626 27.5325 8.66626 27.2632V22.2057C8.66626 21.9364 8.88477 21.7179 9.15406 21.7179H10.1691ZM10.0335 25.0512C9.69076 24.5131 10.5097 23.9911 10.8527 24.5292L11.2082 25.086L12.5261 23.2314C12.8965 22.711 13.6891 23.2746 13.3187 23.7952L11.5827 26.2371C11.3857 26.5144 10.964 26.5092 10.7774 26.2165L10.0335 25.0512ZM26.3586 21.2306H16.9884C16.3468 21.2306 16.3468 20.2552 16.9884 20.2552H26.3586V11.3744C26.3586 10.1931 25.3901 9.22457 24.2087 9.22457H13.2943C12.113 9.22457 11.1445 10.1931 11.1445 11.3744V21.7179H14.2116C14.4809 21.7179 14.6994 21.9364 14.6994 22.2057V24.9841H24.2087C25.3901 24.9841 26.3586 24.0156 26.3586 22.8343V21.2306ZM13.6487 17.991C13.6487 18.6324 12.6733 18.6324 12.6733 17.991C12.6733 16.5857 13.4564 15.304 14.6975 14.656C14.2754 14.2117 14.0368 13.6223 14.0368 13.0077C14.0368 11.6841 15.1099 10.611 16.4335 10.611C17.757 10.611 18.8302 11.6841 18.8302 13.0077C18.8302 13.6223 18.5916 14.2117 18.1695 14.656C19.4106 15.304 20.1937 16.5857 20.1937 17.991C20.1937 18.6324 19.2183 18.6324 19.2183 17.991C19.2183 16.7246 18.366 15.616 17.1407 15.296C16.9142 15.3663 16.6704 15.4044 16.4335 15.4044C16.1966 15.4044 15.9525 15.3663 15.7262 15.296C14.501 15.616 13.6487 16.7246 13.6487 17.991ZM16.4335 14.429C17.2274 14.429 17.8548 13.7955 17.8548 13.0077C17.8548 12.2227 17.2185 11.5863 16.4335 11.5863C15.6485 11.5863 15.0121 12.2227 15.0121 13.0077C15.0121 13.8155 15.658 14.429 16.4335 14.429ZM21.367 18.5034C20.7256 18.5034 20.7256 17.528 21.367 17.528H24.3422C24.9836 17.528 24.9836 18.5034 24.3422 18.5034H21.367ZM21.367 15.6276C20.7256 15.6276 20.7256 14.6522 21.367 14.6522H24.3422C24.9836 14.6522 24.9836 15.6276 24.3422 15.6276H21.367ZM21.367 12.7516C20.7256 12.7516 20.7256 11.7762 21.367 11.7762H24.3422C24.9836 11.7762 24.9836 12.7516 24.3422 12.7516H21.367ZM13.724 22.6933H9.64162V26.7754H13.724V22.6933Z" fill="url(#paint0_linear_727_13)"/>
</g>
<defs>
<linearGradient id="paint0_linear_727_13" x1="18.0001" y1="8.24921" x2="18.0001" y2="27.751" gradientUnits="userSpaceOnUse">
<stop stop-color="#7B001E"/>
<stop offset="1" stop-color="#BF2D50"/>
</linearGradient>
<clipPath id="clip0_727_13">
<rect width="20" height="20" fill="white" transform="translate(8 8)"/>
</clipPath>
</defs>
</svg>
