<svg width="24" height="26" viewBox="0 0 24 26" fill="none" xmlns="http://www.w3.org/2000/svg">
<path d="M18.5 4C16.55 4 14.45 4.4 13 5.5C11.55 4.4 9.45 4 7.5 4C6.05 4 4.51 4.22 3.22 4.79C2.49 5.12 2 5.83 2 6.64V17.92C2 19.22 3.22 20.18 4.48 19.86C5.46 19.61 6.5 19.5 7.5 19.5C9.06 19.5 10.72 19.76 12.06 20.42C12.66 20.72 13.34 20.72 13.93 20.42C15.27 19.75 16.93 19.5 18.49 19.5C19.49 19.5 20.53 19.61 21.51 19.86C22.77 20.19 23.99 19.23 23.99 17.92V6.64C23.99 5.83 23.5 5.12 22.77 4.79C21.49 4.22 19.95 4 18.5 4ZM22 16.73C22 17.36 21.42 17.82 20.8 17.71C20.05 17.57 19.27 17.51 18.5 17.51C16.8 17.51 14.35 18.16 13 19.01V7.5C14.35 6.65 16.8 6 18.5 6C19.42 6 20.33 6.09 21.2 6.28C21.66 6.38 22 6.79 22 7.26V16.73Z" fill="url(#paint0_linear_15_167)"/>
<path d="M14.9799 10.5101C14.6599 10.5101 14.3699 10.3101 14.2699 9.9901C14.1399 9.6001 14.3599 9.1701 14.7499 9.0501C16.2899 8.5501 18.2799 8.3901 20.1099 8.6001C20.5199 8.6501 20.8199 9.0201 20.7699 9.4301C20.7199 9.8401 20.3499 10.1401 19.9399 10.0901C18.3199 9.9001 16.5499 10.0501 15.2099 10.4801C15.1299 10.4901 15.0499 10.5101 14.9799 10.5101Z" fill="url(#paint1_linear_15_167)"/>
<path d="M14.9799 13.17C14.6599 13.17 14.3699 12.97 14.2699 12.65C14.1399 12.26 14.3599 11.83 14.7499 11.71C16.2799 11.21 18.2799 11.05 20.1099 11.26C20.5199 11.31 20.8199 11.68 20.7699 12.09C20.7199 12.5 20.3499 12.8 19.9399 12.75C18.3199 12.56 16.5499 12.71 15.2099 13.14C15.1299 13.16 15.0499 13.17 14.9799 13.17Z" fill="url(#paint2_linear_15_167)"/>
<path d="M14.9799 15.8299C14.6599 15.8299 14.3699 15.6299 14.2699 15.3099C14.1399 14.9199 14.3599 14.4899 14.7499 14.3699C16.2799 13.8699 18.2799 13.7099 20.1099 13.9199C20.5199 13.9699 20.8199 14.3399 20.7699 14.7499C20.7199 15.1599 20.3499 15.4499 19.9399 15.4099C18.3199 15.2199 16.5499 15.3699 15.2099 15.7999C15.1299 15.8199 15.0499 15.8299 14.9799 15.8299Z" fill="url(#paint3_linear_15_167)"/>
<defs>
<linearGradient id="paint0_linear_15_167" x1="12.995" y1="4" x2="12.995" y2="20.645" gradientUnits="userSpaceOnUse">
<stop stop-color="#7B001E"/>
<stop offset="1" stop-color="#BF2D50"/>
</linearGradient>
<linearGradient id="paint1_linear_15_167" x1="17.5039" y1="8.51001" x2="17.5039" y2="10.5101" gradientUnits="userSpaceOnUse">
<stop stop-color="#7B001E"/>
<stop offset="1" stop-color="#BF2D50"/>
</linearGradient>
<linearGradient id="paint2_linear_15_167" x1="17.5039" y1="11.1699" x2="17.5039" y2="13.17" gradientUnits="userSpaceOnUse">
<stop stop-color="#7B001E"/>
<stop offset="1" stop-color="#BF2D50"/>
</linearGradient>
<linearGradient id="paint3_linear_15_167" x1="17.5039" y1="13.8298" x2="17.5039" y2="15.8299" gradientUnits="userSpaceOnUse">
<stop stop-color="#7B001E"/>
<stop offset="1" stop-color="#BF2D50"/>
</linearGradient>
</defs>
</svg>
