<svg width="294" height="202" viewBox="0 0 294 202" fill="none" xmlns="http://www.w3.org/2000/svg">
<path d="M20 64C20 69.5228 15.5228 74 10 74C4.47715 74 0 69.5228 0 64C0 58.4772 4.47715 54 10 54C15.5228 54 20 58.4772 20 64Z" fill="url(#paint0_linear_658_664)"/>
<rect x="10.5" y="0.5" width="283" height="201" rx="4.5" fill="#090909" stroke="#141414"/>
<rect x="108" y="155" width="93" height="27" rx="5" fill="url(#paint1_linear_658_664)"/>
<g clip-path="url(#clip0_658_664)">
<path d="M129.983 161.703H119.875C119.564 161.703 119.266 161.827 119.046 162.046C118.827 162.266 118.703 162.564 118.703 162.875V164.047H121.047V174.828H131.359V163.079C131.359 162.898 131.324 162.719 131.255 162.553C131.186 162.386 131.084 162.234 130.956 162.106C130.829 161.978 130.677 161.877 130.51 161.808C130.343 161.739 130.164 161.703 129.983 161.703Z" fill="url(#paint2_linear_658_664)"/>
<path d="M129.983 161.703H119.875C119.564 161.703 119.266 161.827 119.046 162.046C118.827 162.266 118.703 162.564 118.703 162.875V164.047H121.047V174.828C123.782 174.828 126.405 173.742 128.339 171.808C130.273 169.874 131.359 167.251 131.359 164.516V163.079C131.359 162.898 131.324 162.719 131.255 162.553C131.186 162.386 131.084 162.234 130.956 162.106C130.829 161.978 130.677 161.877 130.51 161.808C130.343 161.739 130.164 161.703 129.983 161.703Z" fill="url(#paint3_linear_658_664)"/>
<path d="M129.484 171.312L126.672 174.125H127.609V175.297L129.484 173.422L131.359 175.297V173.891H132.297L129.484 171.312Z" fill="#141414"/>
<path d="M129.719 165.453H122.688V165.922H129.719V165.453Z" fill="#141414"/>
<path d="M129.719 166.859H122.688V167.328H129.719V166.859Z" fill="#141414"/>
<path d="M129.719 168.266H122.688V168.734H129.719V168.266Z" fill="#141414"/>
<path d="M129.719 169.672H122.688V170.141H129.719V169.672Z" fill="#141414"/>
<path d="M126.203 164.516C126.591 164.516 126.906 164.201 126.906 163.812C126.906 163.424 126.591 163.109 126.203 163.109C125.815 163.109 125.5 163.424 125.5 163.812C125.5 164.201 125.815 164.516 126.203 164.516Z" fill="url(#paint4_linear_658_664)"/>
<path d="M119.875 161.703C120.186 161.703 120.484 161.827 120.704 162.046C120.923 162.266 121.047 162.564 121.047 162.875V164.047H118.703V162.875C118.703 162.564 118.827 162.266 119.046 162.046C119.266 161.827 119.564 161.703 119.875 161.703Z" fill="url(#paint5_linear_658_664)"/>
<path d="M129.484 173.891C130.261 173.891 130.891 173.261 130.891 172.484C130.891 171.708 130.261 171.078 129.484 171.078C128.708 171.078 128.078 171.708 128.078 172.484C128.078 173.261 128.708 173.891 129.484 173.891Z" fill="#141414"/>
<path d="M129.484 173.422C130.002 173.422 130.422 173.002 130.422 172.484C130.422 171.967 130.002 171.547 129.484 171.547C128.967 171.547 128.547 171.967 128.547 172.484C128.547 173.002 128.967 173.422 129.484 173.422Z" fill="url(#paint6_linear_658_664)"/>
<path d="M128.312 174.594L127.844 175.062H131.125L130.656 174.594H128.312Z" fill="#141414"/>
<path d="M129.983 161.469H119.875C119.502 161.469 119.145 161.617 118.881 161.881C118.617 162.145 118.469 162.502 118.469 162.875V164.047C118.469 164.109 118.493 164.169 118.537 164.213C118.581 164.257 118.641 164.281 118.703 164.281H120.812V174.828C120.812 174.89 120.837 174.95 120.881 174.994C120.925 175.038 120.985 175.062 121.047 175.062H127.609V174.594H121.281V162.875C121.281 162.529 121.153 162.195 120.92 161.938H129.983C130.286 161.938 130.576 162.058 130.79 162.272C131.004 162.486 131.125 162.776 131.125 163.079V172.816L131.594 173.246V163.079C131.593 162.652 131.424 162.243 131.122 161.941C130.82 161.639 130.41 161.469 129.983 161.469ZM120.812 163.812H118.938V162.875C118.938 162.626 119.036 162.388 119.212 162.212C119.388 162.036 119.626 161.938 119.875 161.938C120.124 161.938 120.362 162.036 120.538 162.212C120.714 162.388 120.812 162.626 120.812 162.875V163.812Z" fill="#141414"/>
<path d="M129.719 165.453H122.688V165.922H129.719V165.453Z" fill="#141414"/>
<path d="M129.719 166.859H122.688V167.328H129.719V166.859Z" fill="#141414"/>
<path d="M129.719 168.266H122.688V168.734H129.719V168.266Z" fill="#141414"/>
<path d="M129.719 169.672H122.688V170.141H129.719V169.672Z" fill="#141414"/>
<path d="M127.141 163.813C127.141 163.627 127.086 163.446 126.983 163.292C126.88 163.137 126.733 163.017 126.562 162.946C126.391 162.875 126.202 162.857 126.02 162.893C125.838 162.929 125.671 163.018 125.54 163.15C125.409 163.281 125.32 163.448 125.284 163.63C125.247 163.811 125.266 164 125.337 164.171C125.408 164.343 125.528 164.489 125.682 164.592C125.836 164.695 126.018 164.75 126.203 164.75C126.452 164.75 126.69 164.651 126.866 164.475C127.042 164.3 127.141 164.061 127.141 163.813ZM125.734 163.813C125.734 163.72 125.762 163.629 125.813 163.552C125.865 163.475 125.938 163.415 126.024 163.379C126.109 163.344 126.204 163.335 126.295 163.353C126.386 163.371 126.469 163.415 126.535 163.481C126.6 163.547 126.645 163.63 126.663 163.721C126.681 163.812 126.672 163.906 126.636 163.992C126.601 164.078 126.541 164.151 126.464 164.202C126.386 164.254 126.296 164.281 126.203 164.281C126.079 164.281 125.96 164.232 125.872 164.144C125.784 164.056 125.734 163.937 125.734 163.813Z" fill="#141414"/>
</g>
<path d="M149.538 173.5L148.81 171.078H145.156L144.428 173.5H143.084L146.178 163.854H147.858L150.938 173.5H149.538ZM145.478 170H148.488L146.99 164.96L145.478 170ZM155.043 165.954C155.482 165.954 155.883 166.019 156.247 166.15C156.611 166.271 156.961 166.472 157.297 166.752L156.681 167.564C156.42 167.377 156.163 167.242 155.911 167.158C155.669 167.065 155.398 167.018 155.099 167.018C154.502 167.018 154.035 167.256 153.699 167.732C153.373 168.208 153.209 168.913 153.209 169.846C153.209 170.779 153.373 171.47 153.699 171.918C154.026 172.357 154.493 172.576 155.099 172.576C155.389 172.576 155.655 172.534 155.897 172.45C156.14 172.357 156.411 172.212 156.709 172.016L157.297 172.856C156.625 173.397 155.874 173.668 155.043 173.668C154.045 173.668 153.256 173.332 152.677 172.66C152.108 171.988 151.823 171.059 151.823 169.874C151.823 169.09 151.954 168.404 152.215 167.816C152.477 167.228 152.845 166.771 153.321 166.444C153.807 166.117 154.381 165.954 155.043 165.954ZM164.34 169.594C164.34 169.809 164.33 170.028 164.312 170.252H159.608C159.664 171.064 159.869 171.661 160.224 172.044C160.578 172.427 161.036 172.618 161.596 172.618C161.95 172.618 162.277 172.567 162.576 172.464C162.874 172.361 163.187 172.198 163.514 171.974L164.074 172.744C163.29 173.36 162.431 173.668 161.498 173.668C160.471 173.668 159.668 173.332 159.09 172.66C158.52 171.988 158.236 171.064 158.236 169.888C158.236 169.123 158.357 168.446 158.6 167.858C158.852 167.261 159.206 166.794 159.664 166.458C160.13 166.122 160.676 165.954 161.302 165.954C162.282 165.954 163.033 166.276 163.556 166.92C164.078 167.564 164.34 168.455 164.34 169.594ZM163.066 169.216C163.066 168.488 162.921 167.933 162.632 167.55C162.342 167.167 161.908 166.976 161.33 166.976C160.275 166.976 159.701 167.751 159.608 169.3H163.066V169.216ZM168.398 165.954C168.902 165.954 169.355 166.024 169.756 166.164C170.158 166.304 170.54 166.514 170.904 166.794L170.358 167.606C170.022 167.391 169.7 167.233 169.392 167.13C169.094 167.027 168.776 166.976 168.44 166.976C168.02 166.976 167.689 167.065 167.446 167.242C167.204 167.41 167.082 167.643 167.082 167.942C167.082 168.241 167.194 168.474 167.418 168.642C167.652 168.81 168.067 168.973 168.664 169.132C169.486 169.337 170.097 169.617 170.498 169.972C170.909 170.327 171.114 170.812 171.114 171.428C171.114 172.156 170.83 172.711 170.26 173.094C169.7 173.477 169.014 173.668 168.202 173.668C167.082 173.668 166.154 173.346 165.416 172.702L166.102 171.918C166.728 172.394 167.418 172.632 168.174 172.632C168.66 172.632 169.042 172.534 169.322 172.338C169.612 172.133 169.756 171.857 169.756 171.512C169.756 171.26 169.705 171.059 169.602 170.91C169.5 170.751 169.322 170.616 169.07 170.504C168.818 170.383 168.45 170.257 167.964 170.126C167.18 169.921 166.611 169.645 166.256 169.3C165.911 168.955 165.738 168.516 165.738 167.984C165.738 167.601 165.85 167.256 166.074 166.948C166.308 166.631 166.625 166.388 167.026 166.22C167.437 166.043 167.894 165.954 168.398 165.954ZM174.797 165.954C175.301 165.954 175.754 166.024 176.155 166.164C176.556 166.304 176.939 166.514 177.303 166.794L176.757 167.606C176.421 167.391 176.099 167.233 175.791 167.13C175.492 167.027 175.175 166.976 174.839 166.976C174.419 166.976 174.088 167.065 173.845 167.242C173.602 167.41 173.481 167.643 173.481 167.942C173.481 168.241 173.593 168.474 173.817 168.642C174.05 168.81 174.466 168.973 175.063 169.132C175.884 169.337 176.496 169.617 176.897 169.972C177.308 170.327 177.513 170.812 177.513 171.428C177.513 172.156 177.228 172.711 176.659 173.094C176.099 173.477 175.413 173.668 174.601 173.668C173.481 173.668 172.552 173.346 171.815 172.702L172.501 171.918C173.126 172.394 173.817 172.632 174.573 172.632C175.058 172.632 175.441 172.534 175.721 172.338C176.01 172.133 176.155 171.857 176.155 171.512C176.155 171.26 176.104 171.059 176.001 170.91C175.898 170.751 175.721 170.616 175.469 170.504C175.217 170.383 174.848 170.257 174.363 170.126C173.579 169.921 173.01 169.645 172.655 169.3C172.31 168.955 172.137 168.516 172.137 167.984C172.137 167.601 172.249 167.256 172.473 166.948C172.706 166.631 173.024 166.388 173.425 166.22C173.836 166.043 174.293 165.954 174.797 165.954ZM184.163 171.778C184.163 172.077 184.215 172.301 184.317 172.45C184.42 172.59 184.574 172.697 184.779 172.772L184.485 173.668C184.103 173.621 183.795 173.514 183.561 173.346C183.328 173.178 183.155 172.917 183.043 172.562C182.549 173.299 181.816 173.668 180.845 173.668C180.117 173.668 179.543 173.463 179.123 173.052C178.703 172.641 178.493 172.105 178.493 171.442C178.493 170.658 178.773 170.056 179.333 169.636C179.903 169.216 180.705 169.006 181.741 169.006H182.875V168.46C182.875 167.937 182.749 167.564 182.497 167.34C182.245 167.116 181.858 167.004 181.335 167.004C180.794 167.004 180.131 167.135 179.347 167.396L179.025 166.458C179.94 166.122 180.789 165.954 181.573 165.954C182.441 165.954 183.09 166.169 183.519 166.598C183.949 167.018 184.163 167.62 184.163 168.404V171.778ZM181.139 172.702C181.877 172.702 182.455 172.319 182.875 171.554V169.86H181.909C180.547 169.86 179.865 170.364 179.865 171.372C179.865 171.811 179.973 172.142 180.187 172.366C180.402 172.59 180.719 172.702 181.139 172.702ZM190.015 165.954C190.276 165.954 190.519 165.982 190.743 166.038L190.505 167.298C190.281 167.242 190.066 167.214 189.861 167.214C189.403 167.214 189.035 167.382 188.755 167.718C188.475 168.054 188.255 168.577 188.097 169.286V173.5H186.809V166.122H187.915L188.041 167.62C188.237 167.069 188.503 166.654 188.839 166.374C189.175 166.094 189.567 165.954 190.015 165.954Z" fill="#141414"/>
<path d="M54.872 25.06C55.4787 25.06 56.0153 25.1487 56.482 25.326C56.958 25.5033 57.406 25.7693 57.826 26.124L56.734 27.426C56.4447 27.202 56.16 27.034 55.88 26.922C55.6 26.81 55.3013 26.754 54.984 26.754C54.3307 26.754 53.8127 27.0293 53.43 27.58C53.0567 28.1307 52.87 28.98 52.87 30.128C52.87 31.2573 53.0567 32.0973 53.43 32.648C53.8127 33.1893 54.34 33.46 55.012 33.46C55.3667 33.46 55.6887 33.3947 55.978 33.264C56.2673 33.124 56.58 32.928 56.916 32.676L57.938 33.992C57.574 34.356 57.1307 34.6547 56.608 34.888C56.0947 35.1213 55.5253 35.238 54.9 35.238C54.004 35.238 53.2247 35.042 52.562 34.65C51.8993 34.258 51.3813 33.6793 51.008 32.914C50.644 32.1393 50.462 31.2107 50.462 30.128C50.462 29.0733 50.6487 28.1633 51.022 27.398C51.4047 26.6327 51.9273 26.054 52.59 25.662C53.262 25.2607 54.0227 25.06 54.872 25.06ZM66.26 31.78C66.26 32.4427 66.1153 33.0353 65.826 33.558C65.546 34.0807 65.1213 34.4913 64.552 34.79C63.9827 35.0887 63.2873 35.238 62.466 35.238C61.234 35.238 60.296 34.9253 59.652 34.3C59.008 33.6747 58.686 32.8347 58.686 31.78V25.298H60.982V31.682C60.982 32.3073 61.0987 32.774 61.332 33.082C61.5747 33.3807 61.9527 33.53 62.466 33.53C62.9887 33.53 63.3667 33.3807 63.6 33.082C63.8427 32.774 63.964 32.3073 63.964 31.682V25.298H66.26V31.78ZM71.1372 31.29H70.2412V35H67.9452V25.298H71.1232C72.4485 25.298 73.4425 25.5407 74.1052 26.026C74.7772 26.5113 75.1132 27.2533 75.1132 28.252C75.1132 28.8773 74.9638 29.4 74.6652 29.82C74.3665 30.2307 73.8952 30.5807 73.2512 30.87L75.7152 35H73.1252L71.1372 31.29ZM70.2412 29.708H71.2072C71.7205 29.708 72.1032 29.5913 72.3552 29.358C72.6165 29.1247 72.7472 28.756 72.7472 28.252C72.7472 27.7853 72.6072 27.4447 72.3272 27.23C72.0565 27.0153 71.6365 26.908 71.0672 26.908H70.2412V29.708ZM79.5847 25.06C80.3127 25.06 80.9427 25.1627 81.4747 25.368C82.0161 25.5733 82.5061 25.886 82.9447 26.306L81.8807 27.552C81.2181 27.0107 80.5087 26.74 79.7527 26.74C79.3514 26.74 79.0341 26.824 78.8007 26.992C78.5674 27.1507 78.4507 27.384 78.4507 27.692C78.4507 27.9067 78.5021 28.084 78.6047 28.224C78.7074 28.3547 78.8894 28.4807 79.1507 28.602C79.4121 28.7233 79.8041 28.868 80.3267 29.036C81.3161 29.3533 82.0441 29.7453 82.5107 30.212C82.9774 30.6693 83.2107 31.3227 83.2107 32.172C83.2107 32.7787 83.0567 33.3153 82.7487 33.782C82.4407 34.2393 81.9974 34.5987 81.4187 34.86C80.8401 35.112 80.1541 35.238 79.3607 35.238C78.5674 35.238 77.8627 35.112 77.2467 34.86C76.6401 34.608 76.1174 34.272 75.6787 33.852L76.8407 32.578C77.2141 32.8953 77.5967 33.1333 77.9887 33.292C78.3901 33.4507 78.8241 33.53 79.2907 33.53C79.7667 33.53 80.1401 33.4273 80.4107 33.222C80.6907 33.0073 80.8307 32.7133 80.8307 32.34C80.8307 32.0973 80.7794 31.8967 80.6767 31.738C80.5741 31.57 80.3967 31.4207 80.1447 31.29C79.8927 31.1593 79.5287 31.0193 79.0527 30.87C77.9794 30.5433 77.2141 30.142 76.7567 29.666C76.3087 29.19 76.0847 28.588 76.0847 27.86C76.0847 27.3 76.2341 26.81 76.5327 26.39C76.8314 25.9607 77.2467 25.634 77.7787 25.41C78.3107 25.1767 78.9127 25.06 79.5847 25.06ZM88.3945 25.06C89.7758 25.06 90.8491 25.5033 91.6145 26.39C92.3891 27.2767 92.7765 28.5273 92.7765 30.142C92.7765 31.1967 92.5991 32.1067 92.2445 32.872C91.8991 33.6373 91.3951 34.2253 90.7325 34.636C90.0791 35.0373 89.2998 35.238 88.3945 35.238C87.4891 35.238 86.7098 35.0373 86.0565 34.636C85.4031 34.2347 84.8991 33.656 84.5445 32.9C84.1991 32.1347 84.0265 31.2153 84.0265 30.142C84.0265 29.0967 84.1991 28.1913 84.5445 27.426C84.8991 26.6607 85.4031 26.0773 86.0565 25.676C86.7098 25.2653 87.4891 25.06 88.3945 25.06ZM88.3945 26.74C87.7318 26.74 87.2371 27.0107 86.9105 27.552C86.5931 28.084 86.4345 28.9473 86.4345 30.142C86.4345 31.3367 86.5978 32.2047 86.9245 32.746C87.2511 33.2873 87.7411 33.558 88.3945 33.558C89.0665 33.558 89.5611 33.292 89.8785 32.76C90.2051 32.2187 90.3685 31.346 90.3685 30.142C90.3685 28.938 90.2051 28.07 89.8785 27.538C89.5518 27.006 89.0571 26.74 88.3945 26.74ZM99.7724 25.298V35H97.4764V25.298H99.7724ZM109.054 35H106.128L103.328 27.482C103.421 28.2193 103.491 28.8727 103.538 29.442C103.594 30.002 103.622 30.6693 103.622 31.444V35H101.578V25.298H104.434L107.304 32.83C107.099 31.5513 106.996 30.3473 106.996 29.218V25.298H109.054V35ZM117.497 25.298L117.273 27.062H114.879V35H112.583V27.062H110.077V25.298H117.497ZM124.372 25.298L124.134 26.936H120.718V29.26H123.7V30.87H120.718V33.348H124.372V35H118.422V25.298H124.372ZM133.267 35H130.341L127.541 27.482C127.634 28.2193 127.704 28.8727 127.751 29.442C127.807 30.002 127.835 30.6693 127.835 31.444V35H125.791V25.298H128.647L131.517 32.83C131.312 31.5513 131.209 30.3473 131.209 29.218V25.298H133.267V35ZM138.196 25.06C138.924 25.06 139.554 25.1627 140.086 25.368C140.627 25.5733 141.117 25.886 141.556 26.306L140.492 27.552C139.829 27.0107 139.12 26.74 138.364 26.74C137.963 26.74 137.645 26.824 137.412 26.992C137.179 27.1507 137.062 27.384 137.062 27.692C137.062 27.9067 137.113 28.084 137.216 28.224C137.319 28.3547 137.501 28.4807 137.762 28.602C138.023 28.7233 138.415 28.868 138.938 29.036C139.927 29.3533 140.655 29.7453 141.122 30.212C141.589 30.6693 141.822 31.3227 141.822 32.172C141.822 32.7787 141.668 33.3153 141.36 33.782C141.052 34.2393 140.609 34.5987 140.03 34.86C139.451 35.112 138.765 35.238 137.972 35.238C137.179 35.238 136.474 35.112 135.858 34.86C135.251 34.608 134.729 34.272 134.29 33.852L135.452 32.578C135.825 32.8953 136.208 33.1333 136.6 33.292C137.001 33.4507 137.435 33.53 137.902 33.53C138.378 33.53 138.751 33.4273 139.022 33.222C139.302 33.0073 139.442 32.7133 139.442 32.34C139.442 32.0973 139.391 31.8967 139.288 31.738C139.185 31.57 139.008 31.4207 138.756 31.29C138.504 31.1593 138.14 31.0193 137.664 30.87C136.591 30.5433 135.825 30.142 135.368 29.666C134.92 29.19 134.696 28.588 134.696 27.86C134.696 27.3 134.845 26.81 135.144 26.39C135.443 25.9607 135.858 25.634 136.39 25.41C136.922 25.1767 137.524 25.06 138.196 25.06ZM145.382 25.298V35H143.086V25.298H145.382ZM154.453 25.298L151.751 35H148.895L146.095 25.298H148.517L150.365 33.208L152.101 25.298H154.453ZM159.023 25.06C160.405 25.06 161.478 25.5033 162.243 26.39C163.018 27.2767 163.405 28.5273 163.405 30.142C163.405 31.1967 163.228 32.1067 162.873 32.872C162.528 33.6373 162.024 34.2253 161.361 34.636C160.708 35.0373 159.929 35.238 159.023 35.238C158.118 35.238 157.339 35.0373 156.685 34.636C156.032 34.2347 155.528 33.656 155.173 32.9C154.828 32.1347 154.655 31.2153 154.655 30.142C154.655 29.0967 154.828 28.1913 155.173 27.426C155.528 26.6607 156.032 26.0773 156.685 25.676C157.339 25.2653 158.118 25.06 159.023 25.06ZM159.023 26.74C158.361 26.74 157.866 27.0107 157.539 27.552C157.222 28.084 157.063 28.9473 157.063 30.142C157.063 31.3367 157.227 32.2047 157.553 32.746C157.88 33.2873 158.37 33.558 159.023 33.558C159.695 33.558 160.19 33.292 160.507 32.76C160.834 32.2187 160.997 31.346 160.997 30.142C160.997 28.938 160.834 28.07 160.507 27.538C160.181 27.006 159.686 26.74 159.023 26.74Z" fill="#8F8F8F"/>
<path d="M56.228 118.382C57.272 118.382 58.184 118.634 58.964 119.138C59.756 119.63 60.368 120.356 60.8 121.316C61.244 122.276 61.466 123.44 61.466 124.808C61.466 126.152 61.244 127.304 60.8 128.264C60.368 129.224 59.756 129.956 58.964 130.46C58.184 130.964 57.272 131.216 56.228 131.216C55.184 131.216 54.266 130.97 53.474 130.478C52.694 129.986 52.082 129.26 51.638 128.3C51.206 127.34 50.99 126.182 50.99 124.826C50.99 123.494 51.206 122.342 51.638 121.37C52.082 120.398 52.7 119.66 53.492 119.156C54.284 118.64 55.196 118.382 56.228 118.382ZM56.228 119.786C55.148 119.786 54.308 120.194 53.708 121.01C53.108 121.826 52.808 123.098 52.808 124.826C52.808 126.542 53.108 127.802 53.708 128.606C54.32 129.41 55.16 129.812 56.228 129.812C58.508 129.812 59.648 128.144 59.648 124.808C59.648 121.46 58.508 119.786 56.228 119.786ZM67.8989 125.744H65.9729V131H64.2629V118.598H67.5209C69.0689 118.598 70.2389 118.892 71.0309 119.48C71.8349 120.068 72.2369 120.944 72.2369 122.108C72.2369 122.972 72.0149 123.674 71.5709 124.214C71.1269 124.754 70.4549 125.162 69.5549 125.438L72.9029 131H70.8689L67.8989 125.744ZM67.7009 124.43C68.6009 124.43 69.2789 124.25 69.7349 123.89C70.1909 123.518 70.4189 122.924 70.4189 122.108C70.4189 121.34 70.1849 120.788 69.7169 120.452C69.2609 120.104 68.5229 119.93 67.5029 119.93H65.9729V124.43H67.7009ZM76.8713 118.598V131H75.1613V118.598H76.8713ZM85.0419 118.382C85.8219 118.382 86.4939 118.496 87.0579 118.724C87.6339 118.94 88.2039 119.282 88.7679 119.75L87.7599 120.794C87.3159 120.434 86.8899 120.176 86.4819 120.02C86.0739 119.864 85.5939 119.786 85.0419 119.786C84.4059 119.786 83.8179 119.96 83.2779 120.308C82.7499 120.644 82.3179 121.19 81.9819 121.946C81.6459 122.69 81.4779 123.638 81.4779 124.79C81.4779 126.53 81.7599 127.802 82.3239 128.606C82.8999 129.41 83.7459 129.812 84.8619 129.812C85.7739 129.812 86.5599 129.626 87.2199 129.254V125.51H85.0239L84.8259 124.124H88.9119V130.118C87.6279 130.85 86.2779 131.216 84.8619 131.216C83.2299 131.216 81.9519 130.67 81.0279 129.578C80.1159 128.486 79.6599 126.89 79.6599 124.79C79.6599 123.446 79.8999 122.294 80.3799 121.334C80.8719 120.362 81.5259 119.63 82.3419 119.138C83.1699 118.634 84.0699 118.382 85.0419 118.382ZM98.4314 131L97.4954 127.886H92.7974L91.8614 131H90.1334L94.1114 118.598H96.2714L100.231 131H98.4314ZM93.2114 126.5H97.0814L95.1554 120.02L93.2114 126.5ZM113.232 131H111.576L111.144 125.402C110.964 123.206 110.862 121.52 110.838 120.344L108.156 129.596H106.554L103.728 120.326C103.728 121.826 103.65 123.56 103.494 125.528L103.08 131H101.46L102.486 118.598H104.79L107.4 127.616L109.884 118.598H112.206L113.232 131ZM117.864 118.598V131H116.154V118.598H117.864ZM124.054 118.598C125.926 118.598 127.426 119.036 128.554 119.912C129.694 120.776 130.264 122.384 130.264 124.736C130.264 127.028 129.694 128.648 128.554 129.596C127.426 130.532 126.052 131 124.432 131H121.462V118.598H124.054ZM123.172 119.966V129.65H124.558C125.71 129.65 126.646 129.296 127.366 128.588C128.086 127.88 128.446 126.596 128.446 124.736C128.446 123.428 128.26 122.426 127.888 121.73C127.516 121.022 127.042 120.554 126.466 120.326C125.89 120.086 125.212 119.966 124.432 119.966H123.172Z" fill="#A3A3A3"/>
<path d="M232.814 118.958V131H231.158V120.722L228.35 122.432L227.63 121.262L231.356 118.958H232.814ZM242.239 118.958V120.2L237.739 131.18L236.227 130.676L240.565 120.308H235.237V118.958H242.239ZM248.959 121.298C249.823 121.298 250.495 121.556 250.975 122.072C251.467 122.588 251.713 123.296 251.713 124.196V131H250.057V124.43C250.057 123.758 249.925 123.284 249.661 123.008C249.409 122.732 249.037 122.594 248.545 122.594C248.053 122.594 247.615 122.738 247.231 123.026C246.847 123.314 246.487 123.722 246.151 124.25V131H244.495V117.716L246.151 117.536V122.828C246.895 121.808 247.831 121.298 248.959 121.298Z" fill="#A3A3A3"/>
<path d="M60.728 64.86C60.728 65.712 60.542 66.474 60.17 67.146C59.81 67.818 59.264 68.346 58.532 68.73C57.8 69.114 56.906 69.306 55.85 69.306C54.266 69.306 53.06 68.904 52.232 68.1C51.404 67.296 50.99 66.216 50.99 64.86V56.526H53.942V64.734C53.942 65.538 54.092 66.138 54.392 66.534C54.704 66.918 55.19 67.11 55.85 67.11C56.522 67.11 57.008 66.918 57.308 66.534C57.62 66.138 57.776 65.538 57.776 64.734V56.526H60.728V64.86ZM65.8466 56.526V69H62.8946V56.526H65.8466ZM75.9135 56.526C77.8695 56.526 79.4355 56.97 80.6115 57.858C81.7995 58.734 82.3935 60.348 82.3935 62.7C82.3935 65.016 81.8175 66.648 80.6655 67.596C79.5135 68.532 78.0195 69 76.1835 69H72.4395V56.526H75.9135ZM75.3915 58.668V66.858H76.3635C77.3355 66.858 78.0735 66.558 78.5775 65.958C79.0815 65.346 79.3335 64.26 79.3335 62.7C79.3335 61.632 79.2075 60.804 78.9555 60.216C78.7035 59.628 78.3615 59.226 77.9295 59.01C77.4975 58.782 76.9635 58.668 76.3275 58.668H75.3915ZM92.4441 64.032C92.4441 64.428 92.4261 64.77 92.3901 65.058H86.4681C86.5641 65.862 86.7921 66.426 87.1521 66.75C87.5121 67.074 88.0101 67.236 88.6461 67.236C89.0301 67.236 89.4021 67.17 89.7621 67.038C90.1221 66.894 90.5121 66.678 90.9321 66.39L92.1021 67.974C90.9861 68.862 89.7441 69.306 88.3761 69.306C86.8281 69.306 85.6401 68.85 84.8121 67.938C83.9841 67.026 83.5701 65.802 83.5701 64.266C83.5701 63.294 83.7441 62.424 84.0921 61.656C84.4401 60.876 84.9501 60.264 85.6221 59.82C86.2941 59.364 87.0981 59.136 88.0341 59.136C89.4141 59.136 90.4941 59.568 91.2741 60.432C92.0541 61.296 92.4441 62.496 92.4441 64.032ZM89.6541 63.222C89.6301 61.758 89.1141 61.026 88.1061 61.026C87.6141 61.026 87.2301 61.206 86.9541 61.566C86.6901 61.926 86.5281 62.52 86.4681 63.348H89.6541V63.222ZM97.4078 59.136C98.0918 59.136 98.7338 59.238 99.3338 59.442C99.9338 59.646 100.462 59.934 100.918 60.306L99.8738 61.908C99.0938 61.416 98.3078 61.17 97.5158 61.17C97.1438 61.17 96.8558 61.236 96.6518 61.368C96.4598 61.488 96.3638 61.662 96.3638 61.89C96.3638 62.07 96.4058 62.22 96.4898 62.34C96.5858 62.448 96.7718 62.562 97.0478 62.682C97.3238 62.802 97.7498 62.946 98.3258 63.114C99.3218 63.402 100.06 63.78 100.54 64.248C101.032 64.704 101.278 65.34 101.278 66.156C101.278 66.804 101.092 67.368 100.72 67.848C100.348 68.316 99.8378 68.676 99.1898 68.928C98.5418 69.18 97.8218 69.306 97.0298 69.306C96.2258 69.306 95.4758 69.18 94.7798 68.928C94.0958 68.676 93.5138 68.328 93.0338 67.884L94.4198 66.336C95.2238 66.96 96.0698 67.272 96.9578 67.272C97.3898 67.272 97.7258 67.194 97.9658 67.038C98.2178 66.882 98.3438 66.66 98.3438 66.372C98.3438 66.144 98.2958 65.964 98.1998 65.832C98.1038 65.7 97.9178 65.58 97.6418 65.472C97.3658 65.352 96.9278 65.208 96.3278 65.04C95.3798 64.764 94.6718 64.38 94.2038 63.888C93.7358 63.396 93.5018 62.784 93.5018 62.052C93.5018 61.5 93.6578 61.008 93.9698 60.576C94.2938 60.132 94.7498 59.784 95.3378 59.532C95.9378 59.268 96.6278 59.136 97.4078 59.136ZM105.587 59.442V69H102.743V59.442H105.587ZM104.147 54.402C104.639 54.402 105.041 54.558 105.353 54.87C105.677 55.17 105.839 55.554 105.839 56.022C105.839 56.49 105.677 56.88 105.353 57.192C105.041 57.492 104.639 57.642 104.147 57.642C103.655 57.642 103.253 57.492 102.941 57.192C102.629 56.88 102.473 56.49 102.473 56.022C102.473 55.554 102.629 55.17 102.941 54.87C103.253 54.558 103.655 54.402 104.147 54.402ZM116.625 60C116.001 60.252 115.083 60.378 113.871 60.378C114.495 60.642 114.951 60.966 115.239 61.35C115.527 61.734 115.671 62.232 115.671 62.844C115.671 63.456 115.509 64.008 115.185 64.5C114.861 64.98 114.393 65.358 113.781 65.634C113.181 65.91 112.473 66.048 111.657 66.048C111.273 66.048 110.907 66.012 110.559 65.94C110.463 65.988 110.385 66.066 110.325 66.174C110.277 66.27 110.253 66.372 110.253 66.48C110.253 66.66 110.319 66.804 110.451 66.912C110.595 67.008 110.877 67.056 111.297 67.056H112.737C113.469 67.056 114.111 67.176 114.663 67.416C115.215 67.656 115.641 67.986 115.941 68.406C116.241 68.826 116.391 69.3 116.391 69.828C116.391 70.824 115.959 71.598 115.095 72.15C114.243 72.714 113.007 72.996 111.387 72.996C110.223 72.996 109.305 72.87 108.633 72.618C107.961 72.378 107.487 72.036 107.211 71.592C106.947 71.148 106.815 70.59 106.815 69.918H109.371C109.371 70.206 109.425 70.434 109.533 70.602C109.653 70.77 109.863 70.896 110.163 70.98C110.463 71.064 110.895 71.106 111.459 71.106C112.239 71.106 112.779 71.01 113.079 70.818C113.379 70.638 113.529 70.374 113.529 70.026C113.529 69.738 113.415 69.51 113.187 69.342C112.959 69.174 112.617 69.09 112.161 69.09H110.775C109.791 69.09 109.053 68.916 108.561 68.568C108.081 68.208 107.841 67.752 107.841 67.2C107.841 66.852 107.943 66.516 108.147 66.192C108.351 65.856 108.627 65.58 108.975 65.364C108.375 65.04 107.937 64.662 107.661 64.23C107.397 63.786 107.265 63.252 107.265 62.628C107.265 61.56 107.649 60.714 108.417 60.09C109.185 59.454 110.199 59.136 111.459 59.136C112.419 59.16 113.229 59.064 113.889 58.848C114.561 58.632 115.251 58.314 115.959 57.894L116.625 60ZM111.531 61.008C111.087 61.008 110.733 61.152 110.469 61.44C110.217 61.716 110.091 62.1 110.091 62.592C110.091 63.108 110.217 63.51 110.469 63.798C110.733 64.074 111.087 64.212 111.531 64.212C111.999 64.212 112.353 64.074 112.593 63.798C112.845 63.522 112.971 63.108 112.971 62.556C112.971 61.524 112.491 61.008 111.531 61.008ZM123.335 59.136C124.163 59.136 124.811 59.388 125.279 59.892C125.747 60.396 125.981 61.104 125.981 62.016V69H123.137V62.502C123.137 62.022 123.059 61.692 122.903 61.512C122.759 61.32 122.537 61.224 122.237 61.224C121.661 61.224 121.109 61.638 120.581 62.466V69H117.737V59.442H120.221L120.419 60.576C120.827 60.096 121.265 59.736 121.733 59.496C122.213 59.256 122.747 59.136 123.335 59.136ZM137.797 59.136C138.997 59.136 139.891 59.58 140.479 60.468C141.067 61.356 141.361 62.598 141.361 64.194C141.361 65.178 141.205 66.06 140.893 66.84C140.593 67.608 140.155 68.214 139.579 68.658C139.003 69.09 138.331 69.306 137.563 69.306C136.603 69.306 135.829 68.976 135.241 68.316V72.69L132.397 72.996V59.442H134.899L135.043 60.504C135.415 60.036 135.841 59.694 136.321 59.478C136.801 59.25 137.293 59.136 137.797 59.136ZM136.699 67.218C137.839 67.218 138.409 66.222 138.409 64.23C138.409 63.102 138.283 62.322 138.031 61.89C137.779 61.446 137.401 61.224 136.897 61.224C136.573 61.224 136.267 61.32 135.979 61.512C135.703 61.704 135.457 61.98 135.241 62.34V66.372C135.625 66.936 136.111 67.218 136.699 67.218ZM150.558 66.228C150.558 66.588 150.606 66.852 150.702 67.02C150.81 67.188 150.978 67.314 151.206 67.398L150.612 69.252C150.024 69.204 149.544 69.078 149.172 68.874C148.8 68.658 148.512 68.322 148.308 67.866C147.684 68.826 146.724 69.306 145.428 69.306C144.48 69.306 143.724 69.03 143.16 68.478C142.596 67.926 142.314 67.206 142.314 66.318C142.314 65.274 142.698 64.476 143.466 63.924C144.234 63.372 145.344 63.096 146.796 63.096H147.768V62.682C147.768 62.118 147.648 61.734 147.408 61.53C147.168 61.314 146.748 61.206 146.148 61.206C145.836 61.206 145.458 61.254 145.014 61.35C144.57 61.434 144.114 61.554 143.646 61.71L142.998 59.838C143.598 59.61 144.21 59.436 144.834 59.316C145.47 59.196 146.058 59.136 146.598 59.136C147.966 59.136 148.968 59.418 149.604 59.982C150.24 60.546 150.558 61.392 150.558 62.52V66.228ZM146.256 67.272C146.904 67.272 147.408 66.966 147.768 66.354V64.662H147.066C146.418 64.662 145.932 64.776 145.608 65.004C145.296 65.232 145.14 65.586 145.14 66.066C145.14 66.45 145.236 66.75 145.428 66.966C145.632 67.17 145.908 67.272 146.256 67.272ZM158.007 59.172C158.355 59.172 158.673 59.214 158.961 59.298L158.511 62.052C158.151 61.968 157.863 61.926 157.647 61.926C157.083 61.926 156.651 62.124 156.351 62.52C156.063 62.904 155.835 63.486 155.667 64.266V69H152.823V59.442H155.307L155.541 61.296C155.757 60.636 156.081 60.12 156.513 59.748C156.957 59.364 157.455 59.172 158.007 59.172ZM167.011 66.228C167.011 66.588 167.059 66.852 167.155 67.02C167.263 67.188 167.431 67.314 167.659 67.398L167.065 69.252C166.477 69.204 165.997 69.078 165.625 68.874C165.253 68.658 164.965 68.322 164.761 67.866C164.137 68.826 163.177 69.306 161.881 69.306C160.933 69.306 160.177 69.03 159.613 68.478C159.049 67.926 158.767 67.206 158.767 66.318C158.767 65.274 159.151 64.476 159.919 63.924C160.687 63.372 161.797 63.096 163.249 63.096H164.221V62.682C164.221 62.118 164.101 61.734 163.861 61.53C163.621 61.314 163.201 61.206 162.601 61.206C162.289 61.206 161.911 61.254 161.467 61.35C161.023 61.434 160.567 61.554 160.099 61.71L159.451 59.838C160.051 59.61 160.663 59.436 161.287 59.316C161.923 59.196 162.511 59.136 163.051 59.136C164.419 59.136 165.421 59.418 166.057 59.982C166.693 60.546 167.011 61.392 167.011 62.52V66.228ZM162.709 67.272C163.357 67.272 163.861 66.966 164.221 66.354V64.662H163.519C162.871 64.662 162.385 64.776 162.061 65.004C161.749 65.232 161.593 65.586 161.593 66.066C161.593 66.45 161.689 66.75 161.881 66.966C162.085 67.17 162.361 67.272 162.709 67.272ZM176.554 56.526V69H173.602V56.526H176.554ZM184.419 59.136C185.247 59.136 185.895 59.388 186.363 59.892C186.831 60.396 187.065 61.104 187.065 62.016V69H184.221V62.502C184.221 62.022 184.143 61.692 183.987 61.512C183.843 61.32 183.621 61.224 183.321 61.224C182.745 61.224 182.193 61.638 181.665 62.466V69H178.821V59.442H181.305L181.503 60.576C181.911 60.096 182.349 59.736 182.817 59.496C183.297 59.256 183.831 59.136 184.419 59.136ZM192.054 59.442V69H189.21V59.442H192.054ZM190.614 54.402C191.106 54.402 191.508 54.558 191.82 54.87C192.144 55.17 192.306 55.554 192.306 56.022C192.306 56.49 192.144 56.88 191.82 57.192C191.508 57.492 191.106 57.642 190.614 57.642C190.122 57.642 189.72 57.492 189.408 57.192C189.096 56.88 188.94 56.49 188.94 56.022C188.94 55.554 189.096 55.17 189.408 54.87C189.72 54.558 190.122 54.402 190.614 54.402ZM198.43 59.136C199.09 59.136 199.684 59.232 200.212 59.424C200.74 59.616 201.238 59.91 201.706 60.306L200.482 61.998C199.882 61.542 199.276 61.314 198.664 61.314C198.028 61.314 197.548 61.548 197.224 62.016C196.9 62.484 196.738 63.24 196.738 64.284C196.738 65.292 196.9 66.006 197.224 66.426C197.548 66.846 198.016 67.056 198.628 67.056C198.952 67.056 199.246 67.008 199.51 66.912C199.774 66.804 200.092 66.636 200.464 66.408L201.706 68.172C200.758 68.928 199.684 69.306 198.484 69.306C197.512 69.306 196.672 69.102 195.964 68.694C195.256 68.274 194.71 67.692 194.326 66.948C193.942 66.192 193.75 65.31 193.75 64.302C193.75 63.294 193.942 62.4 194.326 61.62C194.71 60.84 195.256 60.234 195.964 59.802C196.672 59.358 197.494 59.136 198.43 59.136ZM205.747 59.442V69H202.903V59.442H205.747ZM204.307 54.402C204.799 54.402 205.201 54.558 205.513 54.87C205.837 55.17 205.999 55.554 205.999 56.022C205.999 56.49 205.837 56.88 205.513 57.192C205.201 57.492 204.799 57.642 204.307 57.642C203.815 57.642 203.413 57.492 203.101 57.192C202.789 56.88 202.633 56.49 202.633 56.022C202.633 55.554 202.789 55.17 203.101 54.87C203.413 54.558 203.815 54.402 204.307 54.402ZM215.579 66.228C215.579 66.588 215.627 66.852 215.723 67.02C215.831 67.188 215.999 67.314 216.227 67.398L215.633 69.252C215.045 69.204 214.565 69.078 214.193 68.874C213.821 68.658 213.533 68.322 213.329 67.866C212.705 68.826 211.745 69.306 210.449 69.306C209.501 69.306 208.745 69.03 208.181 68.478C207.617 67.926 207.335 67.206 207.335 66.318C207.335 65.274 207.719 64.476 208.487 63.924C209.255 63.372 210.365 63.096 211.817 63.096H212.789V62.682C212.789 62.118 212.669 61.734 212.429 61.53C212.189 61.314 211.769 61.206 211.169 61.206C210.857 61.206 210.479 61.254 210.035 61.35C209.591 61.434 209.135 61.554 208.667 61.71L208.019 59.838C208.619 59.61 209.231 59.436 209.855 59.316C210.491 59.196 211.079 59.136 211.619 59.136C212.987 59.136 213.989 59.418 214.625 59.982C215.261 60.546 215.579 61.392 215.579 62.52V66.228ZM211.277 67.272C211.925 67.272 212.429 66.966 212.789 66.354V64.662H212.087C211.439 64.662 210.953 64.776 210.629 65.004C210.317 65.232 210.161 65.586 210.161 66.066C210.161 66.45 210.257 66.75 210.449 66.966C210.653 67.17 210.929 67.272 211.277 67.272ZM223.443 59.136C224.271 59.136 224.919 59.388 225.387 59.892C225.855 60.396 226.089 61.104 226.089 62.016V69H223.245V62.502C223.245 62.022 223.167 61.692 223.011 61.512C222.867 61.32 222.645 61.224 222.345 61.224C221.769 61.224 221.217 61.638 220.689 62.466V69H217.845V59.442H220.329L220.527 60.576C220.935 60.096 221.373 59.736 221.841 59.496C222.321 59.256 222.855 59.136 223.443 59.136ZM234.227 68.55C233.879 68.79 233.471 68.976 233.003 69.108C232.547 69.24 232.091 69.306 231.635 69.306C229.547 69.294 228.503 68.142 228.503 65.85V61.422H227.153V59.442H228.503V57.372L231.347 57.048V59.442H233.543L233.237 61.422H231.347V65.814C231.347 66.258 231.419 66.576 231.563 66.768C231.707 66.96 231.935 67.056 232.247 67.056C232.571 67.056 232.913 66.954 233.273 66.75L234.227 68.55ZM243.194 64.032C243.194 64.428 243.176 64.77 243.14 65.058H237.218C237.314 65.862 237.542 66.426 237.902 66.75C238.262 67.074 238.76 67.236 239.396 67.236C239.78 67.236 240.152 67.17 240.512 67.038C240.872 66.894 241.262 66.678 241.682 66.39L242.852 67.974C241.736 68.862 240.494 69.306 239.126 69.306C237.578 69.306 236.39 68.85 235.562 67.938C234.734 67.026 234.32 65.802 234.32 64.266C234.32 63.294 234.494 62.424 234.842 61.656C235.19 60.876 235.7 60.264 236.372 59.82C237.044 59.364 237.848 59.136 238.784 59.136C240.164 59.136 241.244 59.568 242.024 60.432C242.804 61.296 243.194 62.496 243.194 64.032ZM240.404 63.222C240.38 61.758 239.864 61.026 238.856 61.026C238.364 61.026 237.98 61.206 237.704 61.566C237.44 61.926 237.278 62.52 237.218 63.348H240.404V63.222ZM248.158 59.136C248.842 59.136 249.484 59.238 250.084 59.442C250.684 59.646 251.212 59.934 251.668 60.306L250.624 61.908C249.844 61.416 249.058 61.17 248.266 61.17C247.894 61.17 247.606 61.236 247.402 61.368C247.21 61.488 247.114 61.662 247.114 61.89C247.114 62.07 247.156 62.22 247.24 62.34C247.336 62.448 247.522 62.562 247.798 62.682C248.074 62.802 248.5 62.946 249.076 63.114C250.072 63.402 250.81 63.78 251.29 64.248C251.782 64.704 252.028 65.34 252.028 66.156C252.028 66.804 251.842 67.368 251.47 67.848C251.098 68.316 250.588 68.676 249.94 68.928C249.292 69.18 248.572 69.306 247.78 69.306C246.976 69.306 246.226 69.18 245.53 68.928C244.846 68.676 244.264 68.328 243.784 67.884L245.17 66.336C245.974 66.96 246.82 67.272 247.708 67.272C248.14 67.272 248.476 67.194 248.716 67.038C248.968 66.882 249.094 66.66 249.094 66.372C249.094 66.144 249.046 65.964 248.95 65.832C248.854 65.7 248.668 65.58 248.392 65.472C248.116 65.352 247.678 65.208 247.078 65.04C246.13 64.764 245.422 64.38 244.954 63.888C244.486 63.396 244.252 62.784 244.252 62.052C244.252 61.5 244.408 61.008 244.72 60.576C245.044 60.132 245.5 59.784 246.088 59.532C246.688 59.268 247.378 59.136 248.158 59.136Z" fill="white"/>
<defs>
<linearGradient id="paint0_linear_658_664" x1="10" y1="54" x2="10" y2="74" gradientUnits="userSpaceOnUse">
<stop stop-color="#7B001E"/>
<stop offset="1" stop-color="#BF2D50"/>
</linearGradient>
<linearGradient id="paint1_linear_658_664" x1="154.5" y1="155" x2="154.5" y2="182" gradientUnits="userSpaceOnUse">
<stop stop-color="#7B001E"/>
<stop offset="1" stop-color="#BF2D50"/>
</linearGradient>
<linearGradient id="paint2_linear_658_664" x1="125.031" y1="161.703" x2="125.031" y2="174.828" gradientUnits="userSpaceOnUse">
<stop stop-color="#7B001E"/>
<stop offset="1" stop-color="#BF2D50"/>
</linearGradient>
<linearGradient id="paint3_linear_658_664" x1="125.031" y1="161.703" x2="125.031" y2="174.828" gradientUnits="userSpaceOnUse">
<stop stop-color="#7B001E"/>
<stop offset="1" stop-color="#BF2D50"/>
</linearGradient>
<linearGradient id="paint4_linear_658_664" x1="126.203" y1="163.109" x2="126.203" y2="164.516" gradientUnits="userSpaceOnUse">
<stop stop-color="#7B001E"/>
<stop offset="1" stop-color="#BF2D50"/>
</linearGradient>
<linearGradient id="paint5_linear_658_664" x1="119.875" y1="161.703" x2="119.875" y2="164.047" gradientUnits="userSpaceOnUse">
<stop stop-color="#7B001E"/>
<stop offset="1" stop-color="#BF2D50"/>
</linearGradient>
<linearGradient id="paint6_linear_658_664" x1="129.484" y1="171.547" x2="129.484" y2="173.422" gradientUnits="userSpaceOnUse">
<stop stop-color="#7B001E"/>
<stop offset="1" stop-color="#BF2D50"/>
</linearGradient>
<clipPath id="clip0_658_664">
<rect width="15" height="15" fill="white" transform="translate(118 161)"/>
</clipPath>
</defs>
</svg>
