<svg width="28" height="19" viewBox="0 0 28 19" fill="none" xmlns="http://www.w3.org/2000/svg">
<path d="M3.40893 12.8777H24.5841L24.5838 3.92407H3.40869L3.40893 12.8777ZM13.2849 6.85448C13.2849 6.79207 13.3149 6.73378 13.3648 6.69987C13.5069 6.60409 13.6554 6.51908 13.8091 6.44589V6.14028C13.8091 6.0825 13.8348 6.0278 13.8784 5.99313C14.5118 5.54448 15.2552 5.30229 16.0167 5.29565C16.7785 5.28923 17.5253 5.51882 18.1655 5.95618H18.5127C19.1542 5.51652 19.9029 5.28539 20.6666 5.29203C21.4302 5.29845 22.1756 5.54217 22.8102 5.99313C22.8538 6.0278 22.8795 6.0825 22.8795 6.14028V6.44589C23.0332 6.51908 23.1817 6.60408 23.3238 6.69987C23.3737 6.73377 23.4037 6.79207 23.4037 6.85448V11.6186C23.4037 11.6859 23.3691 11.7478 23.3134 11.7799C23.2577 11.8122 23.1899 11.8097 23.1364 11.7732C21.7508 10.9257 20.0442 10.9257 18.6585 11.7732C18.6382 11.7853 18.6156 11.793 18.5926 11.7953H18.1064C18.0834 11.793 18.0609 11.7853 18.0405 11.7732C16.6548 10.9257 14.9481 10.9257 13.5626 11.7732C13.5346 11.7925 13.5021 11.8027 13.4689 11.8027C13.3731 11.8027 13.2953 11.7203 13.2953 11.6186L13.2849 6.85448ZM5.0231 5.01365H11.848C11.9439 5.01365 12.0214 5.09608 12.0214 5.19778C12.0214 5.29948 11.9439 5.38192 11.848 5.38192H5.02001C4.92412 5.38192 4.84639 5.29948 4.84639 5.19778C4.84639 5.09608 4.92412 5.01365 5.02001 5.01365H5.0231ZM5.0231 6.01881H11.848C11.9439 6.01881 12.0214 6.10124 12.0214 6.20294C12.0214 6.30464 11.9439 6.38708 11.848 6.38708H5.02001C4.92412 6.38708 4.84639 6.30464 4.84639 6.20294C4.84639 6.10124 4.92412 6.01881 5.02001 6.01881H5.0231ZM5.0231 7.02397H11.848C11.9439 7.02397 12.0214 7.1064 12.0214 7.2081C12.0214 7.30954 11.9439 7.39198 11.848 7.39198H5.02001C4.92412 7.39198 4.84639 7.30954 4.84639 7.2081C4.84639 7.1064 4.92412 7.02397 5.02001 7.02397H5.0231ZM5.0231 8.02913H11.848C11.9439 8.02913 12.0214 8.11131 12.0214 8.21301C12.0214 8.3147 11.9439 8.39714 11.848 8.39714H5.02001C4.92412 8.39714 4.84639 8.3147 4.84639 8.21301C4.84639 8.11131 4.92412 8.02913 5.02001 8.02913H5.0231ZM5.0231 9.03429L11.848 9.03403C11.9439 9.03403 12.0214 9.11647 12.0214 9.21816C12.0214 9.31986 11.9439 9.4023 11.848 9.4023H5.02001C4.92412 9.4023 4.84639 9.31986 4.84639 9.21816C4.84639 9.11647 4.92412 9.03403 5.02001 9.03403L5.0231 9.03429ZM5.0231 10.0394L11.848 10.0392C11.9439 10.0392 12.0214 10.1216 12.0214 10.2233C12.0214 10.325 11.9439 10.4075 11.848 10.4075H5.02001C4.92412 10.4075 4.84639 10.325 4.84639 10.2233C4.84639 10.1216 4.92412 10.0392 5.02001 10.0392L5.0231 10.0394ZM5.0231 11.0446L11.848 11.0443C11.9439 11.0443 12.0214 11.1268 12.0214 11.2282C12.0214 11.3299 11.9439 11.4124 11.848 11.4124H5.02001C4.92412 11.4124 4.84639 11.3299 4.84639 11.2282C4.84639 11.1268 4.92412 11.0443 5.02001 11.0443L5.0231 11.0446Z" fill="url(#paint0_linear_657_604)"/>
<path d="M17.9505 11.2987V11.0042L17.9193 10.9821C17.8086 10.9009 17.6927 10.8285 17.5723 10.7648L17.5202 10.7427C17.3861 10.6788 17.2481 10.6246 17.1072 10.5807H17.0619C16.9103 10.5357 16.756 10.5013 16.6003 10.4777H16.5725C16.4045 10.4536 16.2352 10.4412 16.0657 10.441H15.6284C15.0104 10.441 14.4794 10.4115 14.0976 10.7099L14.0974 10.7096C14.0419 10.7453 13.9724 10.7453 13.917 10.7096C13.8586 10.6778 13.8225 10.6136 13.8232 10.544V6.8623L13.6462 6.96529V11.2987C15.0102 10.5943 16.604 10.5943 17.968 11.2987L17.9505 11.2987Z" fill="url(#paint1_linear_657_604)"/>
<path d="M19.124 10.36H19.1586C19.2877 10.2991 19.4196 10.2465 19.5545 10.2018L19.6344 10.1797H19.6342C19.7751 10.1432 19.9175 10.115 20.0613 10.0949H20.1412H20.141C20.2955 10.0759 20.4507 10.0662 20.6061 10.0654H21.0367C21.5321 10.0115 22.0328 10.0706 22.505 10.2385V6.21813C21.9355 5.84164 21.2776 5.64185 20.6062 5.64185C19.9349 5.64185 19.2771 5.84165 18.7075 6.21813V10.5662L18.7458 10.5477H18.7455C18.8678 10.4769 18.9942 10.4142 19.124 10.36Z" fill="url(#paint2_linear_657_604)"/>
<path d="M18.3778 10.9047V6.32471H18.2979V11.4348H18.3778V10.9047Z" fill="url(#paint3_linear_657_604)"/>
<path d="M23.0428 11.2988V6.9543L22.8658 6.85132V10.533C22.8665 10.6026 22.8305 10.6668 22.7721 10.6986C22.7167 10.7343 22.6472 10.7343 22.5917 10.6986C22.5288 10.6519 22.4612 10.6123 22.3902 10.5807C21.9624 10.4308 21.5091 10.3791 21.0607 10.43H20.6234C20.4539 10.4302 20.2846 10.4426 20.1166 10.4667H20.0887C19.933 10.4901 19.7788 10.5248 19.6272 10.5697H19.5819C19.441 10.6136 19.303 10.6678 19.1688 10.7317L19.1168 10.7538C18.9964 10.8175 18.8804 10.8899 18.7698 10.9711L18.7385 10.9932V11.2877C20.1025 10.5833 21.6963 10.5833 23.0603 11.2877L23.0428 11.2988Z" fill="url(#paint4_linear_657_604)"/>
<path d="M14.5553 10.0983C14.6352 10.0983 14.7148 10.0727 14.7948 10.0616H14.8919H15.2391H16.0619C16.2173 10.0624 16.3725 10.0721 16.527 10.0911H16.6069H16.6067C16.7505 10.1109 16.8929 10.1392 17.0338 10.1756L17.1171 10.1977C17.2561 10.236 17.3929 10.2827 17.5266 10.3377H17.5614C17.6803 10.3932 17.7963 10.4558 17.9084 10.5254L17.9467 10.5439V6.21789C17.3769 5.8414 16.7193 5.6416 16.0478 5.6416C15.3766 5.6416 14.7187 5.8414 14.1489 6.21789V10.2198C14.2477 10.1756 14.3499 10.1412 14.4545 10.1168L14.5553 10.0983Z" fill="url(#paint5_linear_657_604)"/>
<path d="M25.011 0H2.98844C2.53999 0 2.17627 0.385733 2.17627 0.861378V14.9694H25.8229V0.861378C25.8229 0.633069 25.7374 0.413754 25.5851 0.252221C25.4328 0.0906879 25.226 3.31047e-05 25.0108 3.31047e-05L25.011 0ZM11.65 0.695703H16.35C16.4459 0.695703 16.5236 0.77814 16.5236 0.879839C16.5236 0.981539 16.4459 1.06397 16.35 1.06397H11.65C11.5542 1.06397 11.4764 0.981539 11.4764 0.879839C11.4764 0.77814 11.5542 0.695703 11.65 0.695703ZM24.9384 13.0628C24.9384 13.1116 24.92 13.1583 24.8876 13.193C24.8549 13.2274 24.8108 13.2469 24.7648 13.2469H3.23882C3.14317 13.2469 3.06545 13.1645 3.06545 13.0628V1.90736C3.06545 1.80567 3.14317 1.72323 3.23882 1.72323H24.7611C24.8071 1.72323 24.8512 1.74249 24.8836 1.77716C24.9163 1.81157 24.9345 1.85857 24.9345 1.90737L24.9384 13.0628Z" fill="url(#paint6_linear_657_604)"/>
<path d="M0 15.3374V16.9391C0.000968565 17.3058 0.138748 17.6574 0.38331 17.9168C0.627872 18.1762 0.959366 18.3223 1.30514 18.3233H26.6949C27.0406 18.3223 27.3721 18.1762 27.6167 17.9168C27.8613 17.6574 27.999 17.3058 28 16.9391V15.3374H0ZM25.3197 16.2432C25.5441 16.2432 25.7468 16.3867 25.8328 16.6068C25.9187 16.8269 25.8713 17.0804 25.7124 17.2488C25.5536 17.4173 25.3146 17.4676 25.1071 17.3765C24.8996 17.2853 24.7642 17.0706 24.7642 16.8323C24.7642 16.5069 25.0129 16.2432 25.3197 16.2432ZM23.1223 16.2432C23.347 16.2432 23.5494 16.3867 23.6354 16.6068C23.7213 16.8269 23.6739 17.0804 23.515 17.2488C23.3562 17.4173 23.1172 17.4676 22.9097 17.3765C22.7021 17.2853 22.5668 17.0706 22.5668 16.8323C22.5668 16.5069 22.8155 16.2432 23.1223 16.2432ZM11.5243 16.6482H16.4746C16.5702 16.6482 16.648 16.7306 16.648 16.8323C16.648 16.934 16.5702 17.0164 16.4746 17.0164H11.5243C11.4286 17.0164 11.3509 16.934 11.3509 16.8323C11.3509 16.7306 11.4286 16.6482 11.5243 16.6482Z" fill="url(#paint7_linear_657_604)"/>
<path d="M3.40894 3.55603H24.5841V2.0835H3.40894V3.55603ZM10.7545 2.63923H12.4902V2.63949C12.5861 2.63949 12.6638 2.72192 12.6638 2.82337C12.6638 2.92507 12.5861 3.0075 12.4902 3.0075H10.7545C10.6586 3.0075 10.5809 2.92507 10.5809 2.82337C10.5809 2.72192 10.6586 2.63949 10.7545 2.63949V2.63923ZM7.75536 2.63923H9.49103V2.63949C9.58667 2.63949 9.6644 2.72192 9.6644 2.82337C9.6644 2.92507 9.58667 3.0075 9.49103 3.0075H7.7517C7.65581 3.0075 7.57809 2.92507 7.57809 2.82337C7.57809 2.72192 7.65581 2.63949 7.7517 2.63949L7.75536 2.63923Z" fill="url(#paint8_linear_657_604)"/>
<defs>
<linearGradient id="paint0_linear_657_604" x1="13.9964" y1="3.92407" x2="13.9964" y2="12.8777" gradientUnits="userSpaceOnUse">
<stop stop-color="#7B001E"/>
<stop offset="1" stop-color="#BF2D50"/>
</linearGradient>
<linearGradient id="paint1_linear_657_604" x1="15.8071" y1="6.8623" x2="15.8071" y2="11.2987" gradientUnits="userSpaceOnUse">
<stop stop-color="#7B001E"/>
<stop offset="1" stop-color="#BF2D50"/>
</linearGradient>
<linearGradient id="paint2_linear_657_604" x1="20.6063" y1="5.64185" x2="20.6063" y2="10.5662" gradientUnits="userSpaceOnUse">
<stop stop-color="#7B001E"/>
<stop offset="1" stop-color="#BF2D50"/>
</linearGradient>
<linearGradient id="paint3_linear_657_604" x1="18.3378" y1="6.32471" x2="18.3378" y2="11.4348" gradientUnits="userSpaceOnUse">
<stop stop-color="#7B001E"/>
<stop offset="1" stop-color="#BF2D50"/>
</linearGradient>
<linearGradient id="paint4_linear_657_604" x1="20.8994" y1="6.85132" x2="20.8994" y2="11.2988" gradientUnits="userSpaceOnUse">
<stop stop-color="#7B001E"/>
<stop offset="1" stop-color="#BF2D50"/>
</linearGradient>
<linearGradient id="paint5_linear_657_604" x1="16.0478" y1="5.6416" x2="16.0478" y2="10.5439" gradientUnits="userSpaceOnUse">
<stop stop-color="#7B001E"/>
<stop offset="1" stop-color="#BF2D50"/>
</linearGradient>
<linearGradient id="paint6_linear_657_604" x1="13.9996" y1="0" x2="13.9996" y2="14.9694" gradientUnits="userSpaceOnUse">
<stop stop-color="#7B001E"/>
<stop offset="1" stop-color="#BF2D50"/>
</linearGradient>
<linearGradient id="paint7_linear_657_604" x1="14" y1="15.3374" x2="14" y2="18.3233" gradientUnits="userSpaceOnUse">
<stop stop-color="#7B001E"/>
<stop offset="1" stop-color="#BF2D50"/>
</linearGradient>
<linearGradient id="paint8_linear_657_604" x1="13.9965" y1="2.0835" x2="13.9965" y2="3.55603" gradientUnits="userSpaceOnUse">
<stop stop-color="#7B001E"/>
<stop offset="1" stop-color="#BF2D50"/>
</linearGradient>
</defs>
</svg>
