<svg width="60" height="60" viewBox="0 0 60 60" fill="none" xmlns="http://www.w3.org/2000/svg">
<rect width="60" height="60" rx="5" fill="black"/>
<g clip-path="url(#clip0_718_9)">
<path d="M50 16.9072C50 14.7493 48.2507 13 46.0928 13H13.9072C11.7493 13 10 14.7493 10 16.9072V42.3749C10 44.5328 11.7493 46.2821 13.9072 46.2821H46.0928C48.2507 46.2821 50 44.5328 50 42.3749V16.9072ZM13.9281 16.1224H46.1235C46.5543 16.1224 46.9012 16.4661 46.9012 16.897V16.9309L30.5776 33.2563C30.3785 33.4554 30.1468 33.4852 30.026 33.4852C29.9051 33.4852 29.6727 33.4554 29.4736 33.2563L13.1461 16.9287V16.897C13.1461 16.4661 13.4972 16.1224 13.9281 16.1224ZM46.1235 43.1597H13.9281C13.4972 43.1597 13.1461 42.8029 13.1461 42.3719V21.3492L27.2638 35.4666C28.0017 36.2046 28.9831 36.611 30.0267 36.611C31.0705 36.6109 32.0498 36.2044 32.7878 35.4665L46.9012 21.3514V42.3719C46.9012 42.8029 46.5543 43.1597 46.1235 43.1597Z" fill="url(#paint0_linear_718_9)"/>
</g>
<defs>
<linearGradient id="paint0_linear_718_9" x1="30" y1="13" x2="30" y2="46.2821" gradientUnits="userSpaceOnUse">
<stop stop-color="#7B001E"/>
<stop offset="1" stop-color="#BF2D50"/>
</linearGradient>
<clipPath id="clip0_718_9">
<rect width="40" height="33.2821" fill="white" transform="translate(10 13)"/>
</clipPath>
</defs>
</svg>
