<svg width="201" height="265" viewBox="0 0 201 265" fill="none" xmlns="http://www.w3.org/2000/svg">
<rect x="0.5" y="0.5" width="200" height="264" rx="4.5" fill="#010808" stroke="#010808"/>
<path d="M56.08 213V190.824H69.296L68.752 194.568H61.328V200.456H67.792V204.2H61.328V213H56.08ZM75.6963 196.008V213H70.6403V196.008H75.6963ZM73.1363 187.048C74.0109 187.048 74.7256 187.325 75.2803 187.88C75.8563 188.413 76.1443 189.096 76.1443 189.928C76.1443 190.76 75.8563 191.453 75.2803 192.008C74.7256 192.541 74.0109 192.808 73.1363 192.808C72.2616 192.808 71.5469 192.541 70.9923 192.008C70.4376 191.453 70.1603 190.76 70.1603 189.928C70.1603 189.096 70.4376 188.413 70.9923 187.88C71.5469 187.325 72.2616 187.048 73.1363 187.048ZM95.3195 197C94.2102 197.448 92.5782 197.672 90.4235 197.672C91.5328 198.141 92.3435 198.717 92.8555 199.4C93.3675 200.083 93.6235 200.968 93.6235 202.056C93.6235 203.144 93.3355 204.125 92.7595 205C92.1835 205.853 91.3515 206.525 90.2635 207.016C89.1968 207.507 87.9382 207.752 86.4875 207.752C85.8048 207.752 85.1542 207.688 84.5355 207.56C84.3648 207.645 84.2262 207.784 84.1195 207.976C84.0342 208.147 83.9915 208.328 83.9915 208.52C83.9915 208.84 84.1088 209.096 84.3435 209.288C84.5995 209.459 85.1008 209.544 85.8475 209.544H88.4075C89.7088 209.544 90.8502 209.757 91.8315 210.184C92.8128 210.611 93.5702 211.197 94.1035 211.944C94.6368 212.691 94.9035 213.533 94.9035 214.472C94.9035 216.243 94.1355 217.619 92.5995 218.6C91.0848 219.603 88.8875 220.104 86.0075 220.104C83.9382 220.104 82.3062 219.88 81.1115 219.432C79.9168 219.005 79.0742 218.397 78.5835 217.608C78.1142 216.819 77.8795 215.827 77.8795 214.632H82.4235C82.4235 215.144 82.5195 215.549 82.7115 215.848C82.9248 216.147 83.2982 216.371 83.8315 216.52C84.3648 216.669 85.1328 216.744 86.1355 216.744C87.5222 216.744 88.4822 216.573 89.0155 216.232C89.5488 215.912 89.8155 215.443 89.8155 214.824C89.8155 214.312 89.6128 213.907 89.2075 213.608C88.8022 213.309 88.1942 213.16 87.3835 213.16H84.9195C83.1702 213.16 81.8582 212.851 80.9835 212.232C80.1302 211.592 79.7035 210.781 79.7035 209.8C79.7035 209.181 79.8848 208.584 80.2475 208.008C80.6102 207.411 81.1008 206.92 81.7195 206.536C80.6528 205.96 79.8742 205.288 79.3835 204.52C78.9142 203.731 78.6795 202.781 78.6795 201.672C78.6795 199.773 79.3622 198.269 80.7275 197.16C82.0928 196.029 83.8955 195.464 86.1355 195.464C87.8422 195.507 89.2822 195.336 90.4555 194.952C91.6502 194.568 92.8768 194.003 94.1355 193.256L95.3195 197ZM86.2635 198.792C85.4742 198.792 84.8448 199.048 84.3755 199.56C83.9275 200.051 83.7035 200.733 83.7035 201.608C83.7035 202.525 83.9275 203.24 84.3755 203.752C84.8448 204.243 85.4742 204.488 86.2635 204.488C87.0955 204.488 87.7248 204.243 88.1515 203.752C88.5995 203.261 88.8235 202.525 88.8235 201.544C88.8235 199.709 87.9702 198.792 86.2635 198.792ZM116.081 195.464C117.425 195.464 118.502 195.923 119.313 196.84C120.123 197.736 120.529 198.984 120.529 200.584V213H115.473V201.448C115.473 199.933 114.993 199.176 114.033 199.176C113.499 199.176 113.03 199.357 112.625 199.72C112.219 200.083 111.825 200.637 111.441 201.384V213H106.385V201.448C106.385 199.933 105.905 199.176 104.945 199.176C104.433 199.176 103.963 199.368 103.536 199.752C103.131 200.115 102.737 200.659 102.353 201.384V213H97.2965V196.008H101.713L102.065 197.992C102.726 197.139 103.451 196.509 104.241 196.104C105.051 195.677 105.969 195.464 106.993 195.464C107.953 195.464 108.774 195.699 109.457 196.168C110.161 196.637 110.673 197.299 110.993 198.152C111.675 197.235 112.422 196.563 113.233 196.136C114.065 195.688 115.014 195.464 116.081 195.464ZM137.832 208.072C137.832 208.712 137.917 209.181 138.088 209.48C138.28 209.779 138.578 210.003 138.984 210.152L137.928 213.448C136.882 213.363 136.029 213.139 135.368 212.776C134.706 212.392 134.194 211.795 133.832 210.984C132.722 212.691 131.016 213.544 128.712 213.544C127.026 213.544 125.682 213.053 124.68 212.072C123.677 211.091 123.176 209.811 123.176 208.232C123.176 206.376 123.858 204.957 125.224 203.976C126.589 202.995 128.562 202.504 131.144 202.504H132.872V201.768C132.872 200.765 132.658 200.083 132.232 199.72C131.805 199.336 131.058 199.144 129.992 199.144C129.437 199.144 128.765 199.229 127.976 199.4C127.186 199.549 126.376 199.763 125.544 200.04L124.392 196.712C125.458 196.307 126.546 195.997 127.656 195.784C128.786 195.571 129.832 195.464 130.792 195.464C133.224 195.464 135.005 195.965 136.136 196.968C137.266 197.971 137.832 199.475 137.832 201.48V208.072ZM130.184 209.928C131.336 209.928 132.232 209.384 132.872 208.296V205.288H131.624C130.472 205.288 129.608 205.491 129.032 205.896C128.477 206.301 128.2 206.931 128.2 207.784C128.2 208.467 128.37 209 128.712 209.384C129.074 209.747 129.565 209.928 130.184 209.928Z" fill="white"/>
<path d="M116.625 84.8977C120.769 84.8977 124.743 83.2426 127.674 80.2966C130.604 77.3505 132.25 73.3548 132.25 69.1884C132.25 65.022 130.604 61.0262 127.674 58.0802C124.743 55.1341 120.769 53.479 116.625 53.479H85.375C81.231 53.479 77.2567 55.1341 74.3265 58.0802C71.3962 61.0262 69.75 65.022 69.75 69.1884C69.75 73.3548 71.3962 77.3505 74.3265 80.2966C77.2567 83.2426 81.231 84.8977 85.375 84.8977C81.231 84.8977 77.2567 86.5528 74.3265 89.4989C71.3962 92.445 69.75 96.4407 69.75 100.607C69.75 104.773 71.3962 108.769 74.3265 111.715C77.2567 114.661 81.231 116.316 85.375 116.316C82.2847 116.316 79.2637 117.238 76.6942 118.964C74.1247 120.69 72.122 123.144 70.9394 126.014C69.7568 128.885 69.4473 132.043 70.0502 135.091C70.6531 138.138 72.1413 140.937 74.3265 143.134C76.5117 145.331 79.2958 146.827 82.3267 147.433C85.3577 148.039 88.4993 147.728 91.3544 146.539C94.2095 145.35 96.6498 143.337 98.3667 140.753C100.084 138.17 101 135.133 101 132.026V84.8977H116.625Z" fill="url(#paint0_linear_633_241)"/>
<path d="M116.625 116.316C125.254 116.316 132.25 109.283 132.25 100.607C132.25 91.9308 125.254 84.8975 116.625 84.8975C107.996 84.8975 101 91.9308 101 100.607C101 109.283 107.996 116.316 116.625 116.316Z" fill="url(#paint1_linear_633_241)"/>
<defs>
<linearGradient id="paint0_linear_633_241" x1="101" y1="53.479" x2="101" y2="147.735" gradientUnits="userSpaceOnUse">
<stop stop-color="#7B001E"/>
<stop offset="1" stop-color="#BF2D50"/>
</linearGradient>
<linearGradient id="paint1_linear_633_241" x1="116.625" y1="84.8975" x2="116.625" y2="116.316" gradientUnits="userSpaceOnUse">
<stop stop-color="#7B001E"/>
<stop offset="1" stop-color="#BF2D50"/>
</linearGradient>
</defs>
</svg>
