<svg width="201" height="265" viewBox="0 0 201 265" fill="none" xmlns="http://www.w3.org/2000/svg">
<rect x="0.5" y="0.5" width="200" height="264" rx="4.5" fill="#010808" stroke="#010808"/>
<path d="M59.68 190.28C62.5387 190.28 65.0027 191.187 67.072 193L64.416 195.784C63.6267 195.187 62.8907 194.76 62.208 194.504C61.5467 194.227 60.7787 194.088 59.904 194.088C58.2613 194.088 56.9493 194.739 55.968 196.04C54.9867 197.32 54.496 199.272 54.496 201.896C54.496 204.733 54.8693 206.749 55.616 207.944C56.3627 209.117 57.5253 209.704 59.104 209.704C60.2133 209.704 61.216 209.459 62.112 208.968V203.944H59.232L58.72 200.232H67.2V211.208C66.048 211.955 64.7787 212.531 63.392 212.936C62.0053 213.341 60.6187 213.544 59.232 213.544C55.8613 213.544 53.3227 212.563 51.616 210.6C49.9093 208.616 49.056 205.715 49.056 201.896C49.056 199.464 49.5147 197.373 50.432 195.624C51.3707 193.875 52.64 192.552 54.24 191.656C55.8613 190.739 57.6747 190.28 59.68 190.28ZM75.665 196.008V213H70.609V196.008H75.665ZM73.105 187.048C73.9797 187.048 74.6943 187.325 75.249 187.88C75.825 188.413 76.113 189.096 76.113 189.928C76.113 190.76 75.825 191.453 75.249 192.008C74.6943 192.541 73.9797 192.808 73.105 192.808C72.2303 192.808 71.5157 192.541 70.961 192.008C70.4063 191.453 70.129 190.76 70.129 189.928C70.129 189.096 70.4063 188.413 70.961 187.88C71.5157 187.325 72.2303 187.048 73.105 187.048ZM90.2963 212.2C89.6776 212.627 88.9523 212.957 88.1203 213.192C87.3096 213.427 86.4989 213.544 85.6883 213.544C81.9763 213.523 80.1203 211.475 80.1203 207.4V199.528H77.7203V196.008H80.1203V192.328L85.1763 191.752V196.008H89.0803L88.5363 199.528H85.1763V207.336C85.1763 208.125 85.3043 208.691 85.5603 209.032C85.8163 209.373 86.2216 209.544 86.7763 209.544C87.3523 209.544 87.9603 209.363 88.6003 209L90.2963 212.2ZM101.936 195.464C103.408 195.464 104.56 195.912 105.392 196.808C106.224 197.704 106.64 198.963 106.64 200.584V213H101.584V201.448C101.584 200.595 101.445 200.008 101.168 199.688C100.891 199.347 100.496 199.176 99.984 199.176C98.96 199.176 97.9787 199.901 97.04 201.352V213H91.984V189.256L97.04 188.744V197.832C97.744 197.043 98.4907 196.456 99.28 196.072C100.069 195.667 100.955 195.464 101.936 195.464ZM124.789 213H120.405L120.181 210.856C118.943 212.648 117.226 213.544 115.029 213.544C113.471 213.544 112.287 213.075 111.477 212.136C110.687 211.197 110.293 209.885 110.293 208.2V196.008H115.349V207.56C115.349 208.392 115.477 208.979 115.733 209.32C116.01 209.64 116.426 209.8 116.981 209.8C118.047 209.8 118.965 209.139 119.733 207.816V196.008H124.789V213ZM138.397 195.464C140.424 195.464 141.981 196.264 143.069 197.864C144.157 199.443 144.701 201.661 144.701 204.52C144.701 206.269 144.424 207.827 143.869 209.192C143.336 210.557 142.557 211.624 141.533 212.392C140.531 213.16 139.336 213.544 137.949 213.544C137.032 213.544 136.189 213.352 135.421 212.968C134.675 212.584 134.035 212.051 133.501 211.368L133.245 213H128.765V189.256L133.821 188.712V197.736C134.333 197.032 134.984 196.477 135.773 196.072C136.584 195.667 137.459 195.464 138.397 195.464ZM136.477 209.864C138.461 209.864 139.453 208.083 139.453 204.52C139.453 202.493 139.219 201.096 138.749 200.328C138.28 199.56 137.597 199.176 136.701 199.176C135.571 199.176 134.611 199.837 133.821 201.16V208.232C134.141 208.744 134.525 209.149 134.973 209.448C135.443 209.725 135.944 209.864 136.477 209.864Z" fill="white"/>
<path d="M122.657 125.844C123.307 126.308 123.059 126.952 123.059 127.52C123.059 135.151 123.059 142.756 123.059 150.387C123.059 150.542 123.121 150.722 123.121 150.877C112.195 150.877 101.238 150.877 90.312 150.877C90.4358 146.391 90.4358 141.879 90.312 137.394C91.3025 137.419 90.8382 138.064 90.8382 138.399C90.8692 142.008 90.9001 145.618 90.8382 149.201C90.8072 150.232 91.2096 150.516 92.4167 150.516C101.95 150.49 111.483 150.465 121.016 150.516C122.378 150.516 122.595 150.129 122.595 149.124C122.533 142.601 122.564 136.079 122.564 129.556C122.595 128.319 122.657 127.081 122.657 125.844Z" fill="#989393"/>
<path d="M122.657 125.844C122.626 127.081 122.595 128.319 122.595 129.556C122.595 136.079 122.564 142.601 122.626 149.124C122.626 150.129 122.409 150.542 121.047 150.516C111.514 150.464 101.981 150.464 92.4478 150.516C91.2406 150.516 90.8382 150.232 90.8692 149.201C90.9311 145.592 90.9002 141.982 90.8692 138.399C90.8692 138.064 91.3644 137.419 90.343 137.393C90.1264 137.393 89.9406 137.419 89.724 137.419C89.3216 137.265 88.9502 137.29 88.7026 137.651C84.8645 137.986 80.9955 138.244 77.1884 137.445C70.4409 136.027 65.6124 132.701 62.641 127.416C60.722 123.962 58.1839 120.765 55.2434 117.826C54.3149 116.898 52.8292 116.537 51.8387 115.609C51.4673 115.248 50.8483 114.964 51.034 114.474C51.2197 113.881 51.9935 113.907 52.6125 113.855C58.8029 113.417 63.1981 115.866 66.2624 120.094C69.079 123.962 72.7623 126.823 78.086 127.983C81.8622 128.808 85.6383 128.628 89.3526 127.674C90.2192 127.442 90.6835 127.133 90.7763 126.256C91.0549 123.059 91.8597 119.966 94.5215 117.259C93.5001 117.104 92.6954 116.949 91.8597 116.846C85.2978 116.021 79.2003 114.139 73.9075 110.762C67.9957 106.998 64.3124 101.971 63.1672 95.8089C62.1767 90.4207 62.5481 85.0067 63.3838 79.6185C64.0338 75.4678 65.4267 71.5233 69.0171 68.4296C70.2861 67.3468 70.379 66.4702 69.8218 65.1038C67.9338 60.5148 68.46 55.9001 70.1623 51.3111C70.4718 50.4603 70.9361 50.2025 72.0504 50.4345C76.2289 51.2853 79.4479 53.322 82.3574 55.7969C83.7812 56.9829 84.9883 58.3235 86.1645 59.6641C86.505 60.0508 86.7526 60.257 87.3407 59.8703C89.5692 58.4008 92.262 57.9367 94.9549 57.6016C102.755 56.6735 110.586 56.6477 118.386 57.5758C120.985 57.8852 123.616 58.2719 125.783 59.6383C126.804 60.2828 127.207 59.9219 127.764 59.2516C129.838 56.725 132.376 54.5595 135.347 52.7806C137.235 51.6462 139.34 50.8728 141.63 50.4087C142.621 50.2025 143.023 50.4345 143.333 51.1822C145.438 56.1321 145.747 61.082 143.395 66.0319C143.116 66.6507 142.93 67.089 143.611 67.6304C147.419 70.6209 149.214 74.4365 149.957 78.6388C150.854 83.7434 151.38 88.8738 150.668 94.0558C149.492 102.77 144.169 109.112 134.945 113.263C134.604 113.237 134.326 113.314 134.202 113.598C133.954 113.701 133.707 113.804 133.49 113.881C132.685 113.907 132.004 114.191 131.447 114.629C131.2 114.706 130.921 114.758 130.673 114.835C130.302 114.758 130.054 114.887 129.9 115.145C129.745 115.17 129.559 115.222 129.404 115.248C128.166 115.402 126.928 115.531 125.876 116.15C125.721 116.176 125.535 116.202 125.381 116.227C124.483 116.202 123.585 116.253 122.812 116.717C122.131 116.795 121.481 116.872 120.8 116.949C120.274 116.975 119.686 116.923 119.221 117.078C118.726 117.259 118.943 117.516 119.376 117.62L119.407 117.645C119.438 118.006 119.655 118.264 120.057 118.367C120.305 118.78 120.552 119.192 120.8 119.579C120.862 120.12 120.985 120.636 121.543 120.997C121.605 121.229 121.666 121.435 121.728 121.667C121.883 122.389 121.883 123.111 122.378 123.755C122.409 123.91 122.44 124.065 122.471 124.194C122.285 124.503 122.378 124.787 122.657 125.044C122.626 125.328 122.626 125.586 122.657 125.844Z" fill="url(#paint0_linear_633_247)"/>
<path d="M125.814 116.201C126.866 115.557 128.104 115.454 129.342 115.299C128.197 115.686 127.145 116.304 125.814 116.201Z" fill="#989393"/>
<path d="M122.75 116.769C123.524 116.305 124.421 116.279 125.319 116.279C124.576 116.794 123.678 116.846 122.75 116.769Z" fill="#989393"/>
<path d="M122.316 123.807C121.79 123.188 121.79 122.44 121.667 121.718C122.316 122.311 122.564 123.007 122.316 123.807Z" fill="#989393"/>
<path d="M131.385 114.629C131.973 114.191 132.623 113.881 133.428 113.881C132.871 114.371 132.221 114.681 131.385 114.629Z" fill="#989393"/>
<path d="M119.345 117.671C118.881 117.568 118.695 117.31 119.19 117.129C119.655 116.975 120.243 117.026 120.769 117C120.428 117.439 119.531 117.052 119.345 117.671Z" fill="#989393"/>
<path d="M121.481 121.048C120.924 120.687 120.8 120.172 120.738 119.63C121.388 119.966 121.419 120.507 121.481 121.048Z" fill="#989393"/>
<path d="M122.595 125.096C122.316 124.838 122.255 124.58 122.409 124.245C122.781 124.477 122.905 124.761 122.595 125.096Z" fill="#989393"/>
<path d="M88.7026 137.651C88.9503 137.29 89.2907 137.29 89.7241 137.419C89.4455 137.677 89.136 137.806 88.7026 137.651Z" fill="#989393"/>
<path d="M120.026 118.419C119.593 118.316 119.407 118.058 119.376 117.697C119.84 117.774 120.057 118.032 120.026 118.419Z" fill="#989393"/>
<path d="M134.171 113.598C134.295 113.314 134.604 113.237 134.914 113.262C134.821 113.572 134.604 113.778 134.171 113.598Z" fill="#989393"/>
<path d="M129.838 115.171C129.992 114.887 130.24 114.784 130.611 114.861C130.488 115.145 130.271 115.325 129.838 115.171Z" fill="#989393"/>
<defs>
<linearGradient id="paint0_linear_633_247" x1="101" y1="50.3369" x2="101" y2="150.517" gradientUnits="userSpaceOnUse">
<stop stop-color="#7B001E"/>
<stop offset="1" stop-color="#BF2D50"/>
</linearGradient>
</defs>
</svg>
