<svg width="120" height="36" viewBox="0 0 120 36" fill="none" xmlns="http://www.w3.org/2000/svg">
<rect opacity="0.5" width="120" height="36" rx="5" fill="#090909"/>
<g clip-path="url(#clip0_727_26)">
<path d="M24.0257 23.347C24.0257 23.4195 23.9424 23.4775 23.8374 23.4775C23.7178 23.4883 23.6345 23.4304 23.6345 23.347C23.6345 23.2746 23.7178 23.2166 23.8229 23.2166C23.9316 23.2057 24.0257 23.2637 24.0257 23.347Z" fill="url(#paint0_linear_727_26)"/>
<path d="M22.8991 23.1839C22.8737 23.2565 22.9462 23.3397 23.0549 23.3614C23.1491 23.3977 23.2578 23.3614 23.2795 23.2891C23.3013 23.2166 23.2324 23.1333 23.1237 23.1006C23.0295 23.0753 22.9245 23.1115 22.8991 23.1839Z" fill="url(#paint1_linear_727_26)"/>
<path d="M24.5003 23.1224C24.3952 23.1478 24.3228 23.2166 24.3336 23.2999C24.3445 23.3723 24.4387 23.4195 24.5474 23.3941C24.6524 23.3687 24.7249 23.2999 24.714 23.2275C24.7032 23.1586 24.6053 23.1115 24.5003 23.1224Z" fill="url(#paint2_linear_727_26)"/>
<path d="M21.537 21.7349C21.4899 21.7711 21.5008 21.8545 21.5623 21.9232C21.6203 21.9812 21.7036 22.0065 21.7507 21.9595C21.7978 21.9232 21.7869 21.84 21.7253 21.7711C21.6675 21.7132 21.5841 21.6878 21.537 21.7349Z" fill="url(#paint3_linear_727_26)"/>
<path d="M21.9065 22.1986C21.8485 22.2348 21.8485 22.329 21.9065 22.4123C21.9645 22.4957 22.0623 22.5319 22.1094 22.4957C22.1673 22.4485 22.1673 22.3544 22.1094 22.271C22.0587 22.1878 21.9645 22.1515 21.9065 22.1986Z" fill="url(#paint4_linear_727_26)"/>
<path d="M21.1457 21.4415C21.1204 21.4886 21.1566 21.5465 21.2291 21.5827C21.287 21.619 21.3595 21.6081 21.3848 21.5574C21.4102 21.5103 21.374 21.4524 21.3015 21.4161C21.2291 21.3943 21.1711 21.4052 21.1457 21.4415Z" fill="url(#paint5_linear_727_26)"/>
<path d="M22.3194 22.7311C22.2614 22.7782 22.2832 22.8869 22.3665 22.9557C22.4498 23.0391 22.5548 23.05 22.602 22.9919C22.649 22.9449 22.6273 22.8362 22.5548 22.7674C22.4752 22.6841 22.3665 22.6732 22.3194 22.7311Z" fill="url(#paint6_linear_727_26)"/>
<path d="M26.884 9.24011C21.8593 9.24011 18.0156 13.0548 18.0156 18.0796C18.0156 22.0972 20.5443 25.5352 24.1561 26.7452C24.6198 26.8285 24.7829 26.5423 24.7829 26.3068C24.7829 26.0822 24.772 24.8432 24.772 24.0825C24.772 24.0825 22.2361 24.6259 21.7036 23.0028C21.7036 23.0028 20.5244 21.553 19.9303 21.2813C19.9303 21.2813 19.1007 20.4892 19.9883 20.5C19.9883 20.5 21.6565 20.5908 22.1528 21.453C22.9462 22.8514 24.2757 22.4493 24.7937 22.2101C24.8771 21.6305 25.1126 21.1298 25.3734 20.8907C23.3483 20.6661 21.3051 20.8601 21.3051 17.3751C21.3051 16.3788 21.5804 15.8162 22.1601 15.1785C22.0659 14.9431 21.758 13.9722 22.2543 12.7187C23.0114 12.4832 24.7539 13.6969 24.7539 13.6969C25.4785 13.494 26.2574 13.3889 27.029 13.3889C27.8007 13.3889 28.5795 13.494 29.304 13.6969C29.304 13.6969 31.0467 12.4796 31.8037 12.7187C32.3 13.9758 31.9921 14.9431 31.898 15.1785C32.4777 15.8198 32.8326 16.3824 32.8326 17.3751C32.8326 20.871 30.6988 21.2632 28.6738 21.4914C29.007 21.7776 29.2896 22.4197 29.2896 23.271C29.2896 24.4918 29.2788 26.0026 29.2788 26.2996C29.2788 26.535 29.4454 26.8212 29.9055 26.738C33.5282 25.5352 35.9844 22.0973 35.9844 18.0797C35.9843 13.0548 31.9088 9.24011 26.884 9.24011Z" fill="#121114"/>
<path d="M24.3116 27.1505C24.2398 27.1505 24.1643 27.1435 24.0871 27.1296C24.0684 27.1263 24.05 27.1216 24.032 27.1156C20.1998 25.8317 17.625 22.2004 17.625 18.0796C17.625 15.5465 18.5714 13.2094 20.29 11.4987C22.0062 9.79031 24.348 8.84949 26.884 8.84949C29.4323 8.84949 31.8135 9.78863 33.589 11.4938C35.3855 13.2192 36.3749 15.5581 36.3749 18.0796C36.3749 20.1249 35.7689 22.0648 34.6225 23.6895C33.4808 25.3075 31.8922 26.4898 30.0284 27.1086C30.011 27.1144 29.9931 27.119 29.975 27.1223C29.898 27.1362 29.8227 27.1433 29.751 27.1433C29.1846 27.1432 28.8881 26.7188 28.8881 26.2995C28.8881 26.2011 28.8893 25.9698 28.8908 25.6601C28.894 25.0339 28.8989 24.0875 28.8989 23.2709C28.8989 22.5309 28.658 21.9927 28.4193 21.7877C28.3013 21.6864 28.2547 21.525 28.3004 21.3764C28.3461 21.2279 28.4755 21.1206 28.63 21.1032C30.7898 20.8598 32.442 20.4307 32.442 17.375C32.442 16.5193 32.1612 16.0521 31.6082 15.4404C31.5081 15.3298 31.4798 15.1719 31.5352 15.0334C31.5952 14.8835 31.8587 14.123 31.5191 13.0805C30.9884 13.1209 30.0279 13.6676 29.5277 14.017C29.4318 14.0839 29.3111 14.1044 29.1986 14.0729C28.5131 13.8809 27.7629 13.7794 27.0289 13.7794C26.2951 13.7794 25.5448 13.8809 24.8592 14.0729C24.7469 14.1044 24.6263 14.084 24.5306 14.0173C24.0293 13.6687 23.0683 13.1233 22.5384 13.0815C22.1988 14.1219 22.4627 14.8833 22.5227 15.0334C22.5783 15.1722 22.5497 15.3306 22.4491 15.4412C21.9605 15.9787 21.6957 16.446 21.6957 17.375C21.6957 20.1613 23.0037 20.2798 24.8142 20.4437C25.0107 20.4615 25.2139 20.48 25.4165 20.5024C25.5688 20.5193 25.6972 20.6237 25.7447 20.7693C25.7923 20.915 25.7504 21.075 25.6374 21.1786C25.465 21.3366 25.2568 21.7341 25.1804 22.2657C25.1616 22.3967 25.0777 22.5093 24.9575 22.5647C24.7317 22.6689 24.2745 22.8438 23.7484 22.8438C23.1756 22.8438 22.3748 22.6359 21.8131 21.6457C21.5305 21.1548 20.5784 20.9547 20.11 20.9025C20.127 20.9225 20.1447 20.9421 20.1625 20.9609C20.8112 21.31 21.8074 22.5114 22.0066 22.7564C22.0368 22.7934 22.0598 22.8357 22.0747 22.8811C22.2703 23.4771 22.8646 23.7793 23.8412 23.7793C24.3122 23.7793 24.6871 23.7012 24.6908 23.7004C24.806 23.6762 24.9263 23.705 25.0178 23.7791C25.1093 23.8533 25.1627 23.9647 25.1627 24.0825C25.1627 24.5741 25.1672 25.2566 25.1704 25.7549C25.1721 26.0216 25.1735 26.2273 25.1735 26.3068C25.1735 26.7261 24.8774 27.1505 24.3116 27.1505ZM24.2504 26.3647C24.2724 26.3677 24.2929 26.3693 24.3116 26.3693C24.3809 26.3693 24.3922 26.3605 24.3922 26.3068C24.3922 26.228 24.3909 26.0242 24.3891 25.76C24.3868 25.4002 24.3838 24.9445 24.3823 24.5331C24.2268 24.5485 24.0418 24.5605 23.8411 24.5605C22.5618 24.5605 21.6834 24.0771 21.3576 23.1969C20.914 22.6585 20.1277 21.8011 19.7677 21.6365C19.7282 21.6184 19.6919 21.5938 19.6604 21.5638C19.4736 21.3854 19.0576 20.9247 19.228 20.4994C19.2993 20.3214 19.486 20.1093 19.9702 20.1093L19.9929 20.1094C19.9984 20.1095 20.0039 20.1097 20.0093 20.11C20.2018 20.1205 21.9061 20.2416 22.4912 21.2581C22.7988 21.8001 23.2095 22.0626 23.7482 22.0626C24.0168 22.0626 24.2652 21.9966 24.4465 21.9308C24.5004 21.6746 24.5814 21.4312 24.6825 21.2163C22.9028 21.0547 20.9143 20.8356 20.9143 17.3751C20.9143 16.3074 21.2182 15.6828 21.7191 15.0888C21.5954 14.6489 21.4409 13.7114 21.8909 12.5749C21.9344 12.465 22.0253 12.3808 22.1381 12.3457C22.2404 12.3139 22.3541 12.2978 22.4762 12.2978C23.2615 12.2978 24.4007 12.995 24.8245 13.2735C25.5289 13.0932 26.287 12.9983 27.0288 12.9983C27.7706 12.9983 28.5285 13.0931 29.2328 13.2734C29.6563 12.9943 30.7932 12.2969 31.5789 12.2969C31.7027 12.2969 31.8179 12.3134 31.9214 12.3461C32.0336 12.3816 32.1239 12.4657 32.1671 12.5752C32.6161 13.7124 32.4623 14.6487 32.3388 15.0884C32.8888 15.7336 33.2232 16.3705 33.2232 17.375C33.2232 19.0831 32.738 20.261 31.74 20.9761C31.0562 21.4661 30.2177 21.6727 29.3711 21.7967C29.568 22.2041 29.6801 22.7206 29.6801 23.2709C29.6801 24.0895 29.6753 25.0371 29.6721 25.6641C29.6705 25.9719 29.6693 26.2017 29.6693 26.2995C29.6693 26.3527 29.6816 26.3621 29.751 26.3621C29.7694 26.3621 29.7896 26.3605 29.8114 26.3575C33.2712 25.1946 35.5937 21.872 35.5937 18.0796C35.5937 13.3419 31.768 9.63078 26.884 9.63078C22.0509 9.63078 18.4062 13.263 18.4062 18.0796C18.4062 21.8535 20.7533 25.1789 24.2504 26.3647Z" fill="url(#paint7_linear_727_26)"/>
</g>
<path d="M50.3 25.22C48.5267 25.22 47.1533 24.6333 46.18 23.46C45.2067 22.2867 44.72 20.6467 44.72 18.54C44.72 16.4333 45.2467 14.7867 46.3 13.6C47.3533 12.4 48.8267 11.8 50.72 11.8C51.3333 11.8 51.94 11.88 52.54 12.04C53.14 12.1867 53.6533 12.3533 54.08 12.54C54.52 12.7133 54.74 12.8067 54.74 12.82L54.44 14.28C54.3467 14.2267 54.12 14.1267 53.76 13.98C53.4133 13.82 52.9867 13.6667 52.48 13.52C51.9867 13.3733 51.52 13.3 51.08 13.3C50.2533 13.3 49.6 13.48 49.12 13.84C48.64 14.1867 48.2933 14.74 48.08 15.5C47.8667 16.26 47.76 17.28 47.76 18.56C47.76 20.3733 48.02 21.6867 48.54 22.5C49.06 23.3133 49.8067 23.72 50.78 23.72C51.5 23.72 52.02 23.5267 52.34 23.14C52.66 22.7533 52.8667 22.3467 52.96 21.92V19.5H50.94V18.14H55.3V25H54.1L53.4 23.86C53.0933 24.26 52.68 24.5867 52.16 24.84C51.6533 25.0933 51.0333 25.22 50.3 25.22ZM59.04 13.5C58.64 13.5 58.2867 13.3667 57.98 13.1C57.6733 12.7933 57.52 12.4133 57.52 11.96C57.52 11.52 57.6733 11.1467 57.98 10.84C58.26 10.5733 58.6133 10.44 59.04 10.44C59.4533 10.44 59.7933 10.5667 60.06 10.82C60.3533 11.1267 60.5 11.5067 60.5 11.96C60.5 12.4267 60.3533 12.8133 60.06 13.12C59.7667 13.3733 59.4267 13.5 59.04 13.5ZM57.7 25V15H60.36V25H57.7ZM65.8986 25.22C64.9519 25.22 64.2519 24.9867 63.7986 24.52C63.3453 24.0533 63.1186 23.2667 63.1186 22.16V16.54H62.1586V15.34L63.1386 15.06L64.4186 11.68H65.7786V15H67.9786V16.54H65.7786V21.48C65.7786 22.1067 65.8053 22.5867 65.8586 22.92C65.9253 23.24 66.0253 23.4667 66.1586 23.6C66.2919 23.72 66.4786 23.78 66.7186 23.78C66.9853 23.78 67.2253 23.7533 67.4386 23.7C67.6519 23.6467 67.7586 23.6133 67.7586 23.6L67.9186 24.74C67.9186 24.7533 67.8453 24.8 67.6986 24.88C67.5519 24.96 67.3253 25.0333 67.0186 25.1C66.7253 25.18 66.3519 25.22 65.8986 25.22ZM69.8094 10.08L72.4694 9.92V15.68H72.5494C72.5494 15.6533 72.656 15.5667 72.8694 15.42C73.096 15.2733 73.4027 15.1333 73.7894 15C74.176 14.8667 74.6294 14.8 75.1494 14.8C76.1894 14.8 76.9627 15.08 77.4694 15.64C77.976 16.1867 78.2294 17.0467 78.2294 18.22V25H75.5894V18.44C75.5894 17.6667 75.4894 17.1467 75.2894 16.88C75.0894 16.6 74.736 16.46 74.2294 16.46C73.896 16.46 73.596 16.5133 73.3294 16.62C73.076 16.7267 72.8694 16.8467 72.7094 16.98C72.5494 17.1 72.4694 17.1667 72.4694 17.18V25H69.8094V10.08ZM83.5516 25.22C82.5249 25.22 81.7516 24.9467 81.2316 24.4C80.7249 23.84 80.4716 22.9733 80.4716 21.8V15H83.1316V21.24C83.1316 22.12 83.2382 22.7267 83.4516 23.06C83.6649 23.3933 84.0116 23.56 84.4916 23.56C84.8116 23.56 85.0982 23.5067 85.3516 23.4C85.6049 23.28 85.8049 23.16 85.9516 23.04C86.0982 22.92 86.1916 22.84 86.2316 22.8V15H88.8916V25H86.7516L86.3716 24.12H86.3316C86.3316 24.1467 86.2249 24.26 86.0116 24.46C85.7982 24.6467 85.4849 24.82 85.0716 24.98C84.6582 25.14 84.1516 25.22 83.5516 25.22ZM96.2533 25.3C95.7199 25.3 95.2533 25.2267 94.8533 25.08C94.4666 24.9333 94.1599 24.78 93.9333 24.62C93.7199 24.4467 93.6133 24.3467 93.6133 24.32H93.5733L93.1333 25H91.3133V10.08L93.9733 9.92V15.66H94.0533C94.0533 15.6333 94.1399 15.54 94.3133 15.38C94.4866 15.2067 94.7533 15.0533 95.1133 14.92C95.4733 14.7733 95.9199 14.7 96.4533 14.7C97.2399 14.7 97.9333 14.9133 98.5333 15.34C99.1333 15.7667 99.5999 16.3667 99.9333 17.14C100.267 17.9133 100.433 18.8 100.433 19.8C100.433 21.4533 100.06 22.7867 99.3133 23.8C98.5799 24.8 97.5599 25.3 96.2533 25.3ZM95.5533 23.78C96.2866 23.78 96.8066 23.4867 97.1133 22.9C97.4199 22.3 97.5733 21.2867 97.5733 19.86C97.5733 18.94 97.5066 18.22 97.3733 17.7C97.2533 17.18 97.0533 16.8133 96.7733 16.6C96.4933 16.3733 96.1199 16.26 95.6533 16.26C95.3066 16.26 95.0066 16.34 94.7533 16.5C94.4999 16.6467 94.3066 16.8133 94.1733 17C94.0399 17.1733 93.9733 17.2733 93.9733 17.3V23.04C93.9733 23.0667 94.0333 23.1467 94.1533 23.28C94.2733 23.4 94.4466 23.5133 94.6733 23.62C94.9133 23.7267 95.2066 23.78 95.5533 23.78Z" fill="#F5F5F5"/>
<defs>
<linearGradient id="paint0_linear_727_26" x1="23.8301" y1="23.2153" x2="23.8301" y2="23.4788" gradientUnits="userSpaceOnUse">
<stop stop-color="#7B001E"/>
<stop offset="1" stop-color="#BF2D50"/>
</linearGradient>
<linearGradient id="paint1_linear_727_26" x1="23.0888" y1="23.0926" x2="23.0888" y2="23.3757" gradientUnits="userSpaceOnUse">
<stop stop-color="#7B001E"/>
<stop offset="1" stop-color="#BF2D50"/>
</linearGradient>
<linearGradient id="paint2_linear_727_26" x1="24.5238" y1="23.1208" x2="24.5238" y2="23.4011" gradientUnits="userSpaceOnUse">
<stop stop-color="#7B001E"/>
<stop offset="1" stop-color="#BF2D50"/>
</linearGradient>
<linearGradient id="paint3_linear_727_26" x1="21.6439" y1="21.7104" x2="21.6439" y2="21.984" gradientUnits="userSpaceOnUse">
<stop stop-color="#7B001E"/>
<stop offset="1" stop-color="#BF2D50"/>
</linearGradient>
<linearGradient id="paint4_linear_727_26" x1="22.0079" y1="22.1777" x2="22.0079" y2="22.5097" gradientUnits="userSpaceOnUse">
<stop stop-color="#7B001E"/>
<stop offset="1" stop-color="#BF2D50"/>
</linearGradient>
<linearGradient id="paint5_linear_727_26" x1="21.2653" y1="21.4049" x2="21.2653" y2="21.6041" gradientUnits="userSpaceOnUse">
<stop stop-color="#7B001E"/>
<stop offset="1" stop-color="#BF2D50"/>
</linearGradient>
<linearGradient id="paint6_linear_727_26" x1="22.4569" y1="22.6948" x2="22.4569" y2="23.0283" gradientUnits="userSpaceOnUse">
<stop stop-color="#7B001E"/>
<stop offset="1" stop-color="#BF2D50"/>
</linearGradient>
<linearGradient id="paint7_linear_727_26" x1="26.9999" y1="8.84949" x2="26.9999" y2="27.1505" gradientUnits="userSpaceOnUse">
<stop stop-color="#7B001E"/>
<stop offset="1" stop-color="#BF2D50"/>
</linearGradient>
<clipPath id="clip0_727_26">
<rect width="20" height="20" fill="white" transform="translate(17 8)"/>
</clipPath>
</defs>
</svg>
