<svg width="60" height="60" viewBox="0 0 60 60" fill="none" xmlns="http://www.w3.org/2000/svg">
<rect width="60" height="60" rx="5" fill="black"/>
<path d="M22.5651 45.3675C22.5651 45.5487 22.3567 45.6936 22.0939 45.6936C21.7947 45.7206 21.5864 45.5759 21.5864 45.3675C21.5864 45.1865 21.7948 45.0413 22.0577 45.0413C22.3296 45.0143 22.5651 45.1591 22.5651 45.3675Z" fill="url(#paint0_linear_719_11)"/>
<path d="M19.7478 44.9598C19.6843 45.1412 19.8656 45.3493 20.1374 45.4036C20.3732 45.4942 20.6451 45.4036 20.6994 45.2226C20.7539 45.0414 20.5816 44.8332 20.3097 44.7515C20.074 44.6883 19.8113 44.7788 19.7478 44.9598Z" fill="url(#paint1_linear_719_11)"/>
<path d="M23.7509 44.8061C23.4882 44.8696 23.307 45.0416 23.334 45.2499C23.3612 45.4309 23.5969 45.549 23.8688 45.4855C24.1317 45.4221 24.3128 45.2499 24.2857 45.0688C24.2585 44.8967 24.0138 44.779 23.7509 44.8061Z" fill="url(#paint2_linear_719_11)"/>
<path d="M16.3424 41.3373C16.2245 41.4278 16.2518 41.6362 16.4056 41.808C16.5506 41.953 16.7592 42.0163 16.8769 41.8988C16.9948 41.808 16.9675 41.5999 16.8135 41.4278C16.6687 41.2829 16.4602 41.2195 16.3424 41.3373Z" fill="url(#paint3_linear_719_11)"/>
<path d="M17.2662 42.4966C17.1212 42.587 17.1212 42.8224 17.2662 43.0307C17.4114 43.2391 17.6561 43.3297 17.7738 43.2391C17.9187 43.1214 17.9187 42.8859 17.7738 42.6776C17.6469 42.4694 17.4114 42.3787 17.2662 42.4966Z" fill="url(#paint4_linear_719_11)"/>
<path d="M15.3641 40.6041C15.3008 40.7217 15.3913 40.8666 15.5726 40.9572C15.7176 41.0479 15.8989 41.0206 15.9623 40.8938C16.0256 40.7761 15.9351 40.6313 15.7539 40.5406C15.5727 40.4862 15.4276 40.5134 15.3641 40.6041Z" fill="url(#paint5_linear_719_11)"/>
<path d="M18.2987 43.8281C18.1537 43.9458 18.2081 44.2176 18.4165 44.3896C18.6249 44.598 18.8877 44.6252 19.0055 44.4801C19.1233 44.3625 19.069 44.0908 18.8877 43.9188C18.6883 43.7105 18.4165 43.6832 18.2987 43.8281Z" fill="url(#paint6_linear_719_11)"/>
<path d="M29.7101 10.1006C17.1482 10.1006 7.53906 19.6373 7.53906 32.1993C7.53906 42.2434 13.8606 50.8382 22.8903 53.8633C24.0496 54.0716 24.4571 53.3561 24.4571 52.7673C24.4571 52.2058 24.4301 49.1082 24.4301 47.2065C24.4301 47.2065 18.0902 48.565 16.7589 44.5074C16.7589 44.5074 13.811 40.8828 12.3257 40.2035C12.3257 40.2035 10.2517 38.2232 12.4707 38.2504C12.4707 38.2504 16.6413 38.4772 17.882 40.6327C19.8654 44.1287 23.1893 43.1234 24.4844 42.5256C24.6927 41.0765 25.2814 39.8248 25.9335 39.2271C20.8708 38.6655 15.7627 39.1505 15.7627 30.438C15.7627 27.9474 16.451 26.5407 17.9002 24.9467C17.6647 24.358 16.8949 21.9309 18.1357 18.7971C20.0286 18.2084 24.3848 21.2425 24.3848 21.2425C26.1963 20.7353 28.1435 20.4727 30.0725 20.4727C32.0018 20.4727 33.9488 20.7353 35.7601 21.2425C35.7601 21.2425 40.1167 18.1993 42.0094 18.7971C43.2501 21.9397 42.4804 24.358 42.2449 24.9467C43.6941 26.5498 44.5815 27.9563 44.5815 30.438C44.5815 39.1778 39.2471 40.1584 34.1845 40.7289C35.0176 41.4443 35.7239 43.0495 35.7239 45.1778C35.7239 48.2299 35.697 52.0067 35.697 52.7492C35.697 53.3379 36.1135 54.0534 37.2637 53.8452C46.3205 50.8384 52.4609 42.2435 52.4609 32.1995C52.4607 19.6373 42.2719 10.1006 29.7101 10.1006Z" fill="black"/>
<path d="M23.3832 54.4191C23.2039 54.4191 23.015 54.4015 22.8219 54.3669C22.7752 54.3585 22.7293 54.3467 22.6843 54.3317C13.1038 51.122 6.66675 42.0438 6.66675 31.7417C6.66675 25.4091 9.03286 19.5663 13.3292 15.2896C17.6197 11.0186 23.4742 8.6665 29.8143 8.6665C36.1849 8.6665 42.1379 11.0144 46.5767 15.2773C51.068 19.5908 53.5415 25.438 53.5415 31.7418C53.5415 36.855 52.0265 41.7048 49.1605 45.7666C46.3063 49.8116 42.3348 52.7674 37.6753 54.3143C37.6317 54.3288 37.5871 54.3402 37.5417 54.3484C37.3493 54.3833 37.1609 54.401 36.9818 54.401C35.5657 54.4009 34.8245 53.3397 34.8245 52.2915C34.8245 52.0454 34.8274 51.4674 34.8313 50.693C34.8393 49.1274 34.8514 46.7615 34.8514 44.7201C34.8514 42.87 34.2492 41.5246 33.6524 41.0121C33.3576 40.7589 33.241 40.3552 33.3552 39.9839C33.4696 39.6125 33.7931 39.3443 34.1792 39.3008C39.5789 38.6923 43.7091 37.6195 43.7091 29.9803C43.7091 27.841 43.0072 26.673 41.6247 25.1438C41.3746 24.8673 41.3039 24.4725 41.4423 24.1263C41.5922 23.7516 42.251 21.8502 41.4019 19.244C40.0753 19.3451 37.674 20.7118 36.4235 21.5854C36.1838 21.7526 35.8821 21.8038 35.6008 21.7251C33.8871 21.2451 32.0114 20.9914 30.1766 20.9914C28.342 20.9914 26.4664 21.2451 24.7523 21.7251C24.4714 21.8037 24.1701 21.7527 23.9308 21.5861C22.6775 20.7145 20.275 19.3511 18.9501 19.2465C18.1013 21.8477 18.761 23.751 18.9111 24.1263C19.05 24.4733 18.9785 24.8692 18.727 25.1458C17.5054 26.4896 16.8435 27.6579 16.8435 29.9803C16.8435 36.9461 20.1136 37.2423 24.6397 37.6521C25.131 37.6966 25.6391 37.7427 26.1455 37.7987C26.5262 37.841 26.8472 38.102 26.9661 38.4661C27.085 38.8303 26.9801 39.2304 26.6977 39.4893C26.2667 39.8844 25.7463 40.8779 25.5553 42.2069C25.5083 42.5345 25.2985 42.8159 24.9979 42.9546C24.4335 43.2151 23.2904 43.6522 21.9752 43.6522C20.5432 43.6522 18.5414 43.1326 17.137 40.657C16.4305 39.4298 14.0502 38.9295 12.8792 38.7991C12.9218 38.8489 12.966 38.8981 13.0105 38.9449C14.6323 39.8178 17.1228 42.8213 17.6208 43.4338C17.6961 43.5264 17.7539 43.632 17.7911 43.7455C18.28 45.2356 19.7658 45.9911 22.2072 45.9909C23.3847 45.9909 24.3219 45.7958 24.3312 45.7937C24.6193 45.7332 24.9201 45.8052 25.1488 45.9906C25.3775 46.176 25.511 46.4546 25.511 46.749C25.511 47.978 25.5222 49.6843 25.5303 50.9301C25.5346 51.5967 25.538 52.1111 25.538 52.3098C25.5379 53.358 24.7978 54.4191 23.3832 54.4191ZM23.2301 52.4546C23.2853 52.4621 23.3366 52.466 23.3832 52.466C23.5565 52.466 23.5848 52.444 23.5848 52.3097C23.5848 52.1129 23.5815 51.6032 23.5771 50.9428C23.5711 50.0432 23.5637 48.904 23.56 47.8755C23.1713 47.9142 22.7088 47.9439 22.2071 47.9439C19.0087 47.9441 16.8128 46.7355 15.9982 44.5352C14.8893 43.189 12.9234 41.0455 12.0236 40.634C11.9247 40.5888 11.8339 40.5273 11.7552 40.4522C11.2883 40.0063 10.2482 38.8545 10.6743 37.7912C10.8526 37.3463 11.3192 36.816 12.5298 36.816L12.5866 36.8164C12.6002 36.8166 12.614 36.817 12.6276 36.8178C13.1086 36.844 17.3695 37.1468 18.8323 39.688C19.6011 41.0431 20.6281 41.6992 21.9749 41.6992C22.6461 41.6992 23.2673 41.5344 23.7206 41.3697C23.8552 40.7293 24.0579 40.1209 24.3105 39.5836C19.8613 39.1796 14.89 38.6317 14.89 29.9805C14.89 27.3112 15.6499 25.7498 16.9019 24.2648C16.5927 23.165 16.2066 20.8212 17.3315 17.9801C17.4403 17.7054 17.6674 17.4948 17.9495 17.407C18.2051 17.3275 18.4895 17.2872 18.7948 17.2872C20.7581 17.2872 23.606 19.0302 24.6656 19.7266C26.4266 19.2757 28.3217 19.0385 30.1762 19.0385C32.0307 19.0385 33.9255 19.2756 35.6862 19.7264C36.745 19.0285 39.5872 17.285 41.5515 17.285C41.8609 17.285 42.1489 17.3264 42.4077 17.4081C42.6882 17.4967 42.9139 17.707 43.0219 17.9807C44.1444 20.8237 43.76 23.1646 43.4513 24.2638C44.8263 25.8769 45.6623 27.4691 45.6623 29.9803C45.6623 34.2506 44.4494 37.1954 41.9543 38.983C40.2447 40.208 38.1485 40.7245 36.032 41.0345C36.5243 42.0531 36.8045 43.3443 36.8045 44.7201C36.8045 46.7665 36.7924 49.1354 36.7844 50.703C36.7805 51.4726 36.7776 52.0471 36.7776 52.2916C36.7776 52.4245 36.8082 52.4479 36.9817 52.4479C37.0277 52.4479 37.0784 52.444 37.1329 52.4365C45.7823 49.5292 51.5884 41.2229 51.5884 31.7419C51.5884 19.8977 42.0242 10.6197 29.8143 10.6197C17.7315 10.6197 8.61987 19.7003 8.61987 31.7419C8.61987 41.1766 14.4875 49.49 23.2301 52.4546Z" fill="url(#paint7_linear_719_11)"/>
<defs>
<linearGradient id="paint0_linear_719_11" x1="22.0758" y1="45.0381" x2="22.0758" y2="45.6968" gradientUnits="userSpaceOnUse">
<stop stop-color="#7B001E"/>
<stop offset="1" stop-color="#BF2D50"/>
</linearGradient>
<linearGradient id="paint1_linear_719_11" x1="20.2223" y1="44.7314" x2="20.2223" y2="45.4391" gradientUnits="userSpaceOnUse">
<stop stop-color="#7B001E"/>
<stop offset="1" stop-color="#BF2D50"/>
</linearGradient>
<linearGradient id="paint2_linear_719_11" x1="23.8098" y1="44.8022" x2="23.8098" y2="45.5029" gradientUnits="userSpaceOnUse">
<stop stop-color="#7B001E"/>
<stop offset="1" stop-color="#BF2D50"/>
</linearGradient>
<linearGradient id="paint3_linear_719_11" x1="16.6096" y1="41.2759" x2="16.6096" y2="41.96" gradientUnits="userSpaceOnUse">
<stop stop-color="#7B001E"/>
<stop offset="1" stop-color="#BF2D50"/>
</linearGradient>
<linearGradient id="paint4_linear_719_11" x1="17.52" y1="42.4443" x2="17.52" y2="43.2741" gradientUnits="userSpaceOnUse">
<stop stop-color="#7B001E"/>
<stop offset="1" stop-color="#BF2D50"/>
</linearGradient>
<linearGradient id="paint5_linear_719_11" x1="15.6632" y1="40.5127" x2="15.6632" y2="41.0106" gradientUnits="userSpaceOnUse">
<stop stop-color="#7B001E"/>
<stop offset="1" stop-color="#BF2D50"/>
</linearGradient>
<linearGradient id="paint6_linear_719_11" x1="18.6426" y1="43.7373" x2="18.6426" y2="44.5711" gradientUnits="userSpaceOnUse">
<stop stop-color="#7B001E"/>
<stop offset="1" stop-color="#BF2D50"/>
</linearGradient>
<linearGradient id="paint7_linear_719_11" x1="30.1041" y1="8.6665" x2="30.1041" y2="54.4191" gradientUnits="userSpaceOnUse">
<stop stop-color="#7B001E"/>
<stop offset="1" stop-color="#BF2D50"/>
</linearGradient>
</defs>
</svg>
