<svg width="172" height="70" viewBox="0 0 172 70" fill="none" xmlns="http://www.w3.org/2000/svg">
<rect opacity="0.5" width="172" height="70" rx="5" fill="#090909"/>
<path d="M25.5385 43.0205C25.5385 43.1292 25.4135 43.2162 25.2559 43.2162C25.0765 43.2324 24.9517 43.1456 24.9517 43.0205C24.9517 42.9119 25.0766 42.8248 25.2343 42.8248C25.3973 42.8086 25.5385 42.8955 25.5385 43.0205Z" fill="url(#paint0_linear_609_16)"/>
<path d="M23.8487 42.7759C23.8106 42.8847 23.9193 43.0096 24.0823 43.0422C24.2236 43.0965 24.3867 43.0422 24.4192 42.9336C24.4519 42.8248 24.3486 42.6999 24.1856 42.6509C24.0443 42.613 23.8868 42.6673 23.8487 42.7759Z" fill="url(#paint1_linear_609_16)"/>
<path d="M26.2504 42.6836C26.0928 42.7216 25.9842 42.8248 26.0004 42.9498C26.0167 43.0584 26.158 43.1293 26.3211 43.0912C26.4787 43.0531 26.5873 42.9498 26.571 42.8412C26.5547 42.7379 26.408 42.6673 26.2504 42.6836Z" fill="url(#paint2_linear_609_16)"/>
<path d="M21.8053 40.6024C21.7346 40.6567 21.751 40.7817 21.8432 40.8848C21.9302 40.9718 22.0552 41.0098 22.1258 40.9393C22.1965 40.8848 22.1801 40.7599 22.0878 40.6567C22.0009 40.5697 21.876 40.5317 21.8053 40.6024Z" fill="url(#paint3_linear_609_16)"/>
<path d="M22.3596 41.2979C22.2727 41.3522 22.2727 41.4935 22.3596 41.6184C22.4467 41.7435 22.5934 41.7978 22.664 41.7435C22.7509 41.6728 22.7509 41.5316 22.664 41.4066C22.5879 41.2816 22.4467 41.2272 22.3596 41.2979Z" fill="url(#paint4_linear_609_16)"/>
<path d="M21.2184 40.1622C21.1804 40.2328 21.2347 40.3197 21.3434 40.3741C21.4303 40.4285 21.539 40.4121 21.577 40.3361C21.615 40.2655 21.5607 40.1786 21.452 40.1241C21.3434 40.0915 21.2564 40.1078 21.2184 40.1622Z" fill="url(#paint5_linear_609_16)"/>
<path d="M22.9792 42.0966C22.8923 42.1673 22.9249 42.3304 23.0498 42.4335C23.1748 42.5586 23.3324 42.5749 23.403 42.4879C23.4737 42.4173 23.4411 42.2542 23.3324 42.1511C23.2129 42.0261 23.0498 42.0097 22.9792 42.0966Z" fill="url(#paint6_linear_609_16)"/>
<path d="M29.826 21.8602C22.2889 21.8602 16.5234 27.5822 16.5234 35.1194C16.5234 41.1458 20.3164 46.3027 25.7342 48.1178C26.4298 48.2428 26.6743 47.8134 26.6743 47.4602C26.6743 47.1233 26.658 45.2647 26.658 44.1237C26.658 44.1237 22.8541 44.9388 22.0553 42.5043C22.0553 42.5043 20.2866 40.3295 19.3954 39.9219C19.3954 39.9219 18.151 38.7338 19.4824 38.7501C19.4824 38.7501 21.9848 38.8862 22.7292 40.1794C23.9193 42.277 25.9136 41.6739 26.6906 41.3152C26.8156 40.4457 27.1689 39.6947 27.5601 39.336C24.5225 38.9991 21.4576 39.2901 21.4576 34.0626C21.4576 32.5682 21.8706 31.7243 22.7401 30.7678C22.5988 30.4146 22.137 28.9583 22.8814 27.0781C24.0172 26.7249 26.6309 28.5453 26.6309 28.5453C27.7178 28.241 28.8861 28.0834 30.0435 28.0834C31.2011 28.0834 32.3693 28.241 33.456 28.5453C33.456 28.5453 36.07 26.7194 37.2056 27.0781C37.9501 28.9637 37.4882 30.4146 37.347 30.7678C38.2165 31.7297 38.7489 32.5736 38.7489 34.0626C38.7489 39.3065 35.5482 39.8949 32.5107 40.2372C33.0105 40.6664 33.4344 41.6295 33.4344 42.9065C33.4344 44.7377 33.4182 47.0039 33.4182 47.4493C33.4182 47.8026 33.6681 48.2319 34.3582 48.1069C39.7923 46.3028 43.4766 41.1459 43.4766 35.1195C43.4764 27.5822 37.3631 21.8602 29.826 21.8602Z" fill="#121114"/>
<path d="M25.9673 48.7258C25.8598 48.7258 25.7464 48.7152 25.6306 48.6945C25.6026 48.6894 25.5751 48.6823 25.548 48.6734C19.7997 46.7475 15.9375 41.3006 15.9375 35.1193C15.9375 31.3198 17.3572 27.8141 19.9349 25.2481C22.5093 22.6855 26.022 21.2742 29.826 21.2742C33.6484 21.2742 37.2202 22.6829 39.8835 25.2407C42.5783 27.8288 44.0623 31.3371 44.0623 35.1194C44.0623 38.1873 43.1534 41.0972 41.4338 43.5343C39.7212 45.9613 37.3383 47.7348 34.5427 48.6629C34.5165 48.6716 34.4897 48.6785 34.4625 48.6834C34.347 48.7043 34.234 48.7149 34.1265 48.7149H34.1264C33.2767 48.7149 32.8321 48.0782 32.8321 47.4492C32.8321 47.3016 32.8339 46.9548 32.8362 46.4901C32.841 45.5508 32.8483 44.1312 32.8483 42.9064C32.8483 41.7963 32.487 40.9891 32.1289 40.6816C31.952 40.5297 31.882 40.2874 31.9506 40.0647C32.0192 39.8418 32.2133 39.6809 32.445 39.6548C35.6848 39.2897 38.1629 38.646 38.1629 34.0625C38.1629 32.7789 37.7418 32.0782 36.9122 31.1606C36.7622 30.9947 36.7198 30.7578 36.8029 30.5501C36.8928 30.3253 37.2881 29.1844 36.7786 27.6208C35.9827 27.6814 34.5418 28.5014 33.7915 29.0255C33.6478 29.1259 33.4667 29.1566 33.2979 29.1094C32.2697 28.8214 31.1443 28.6692 30.0434 28.6692C28.9427 28.6692 27.8173 28.8214 26.7888 29.1094C26.6203 29.1566 26.4395 29.126 26.2959 29.026C25.5439 28.503 24.1024 27.685 23.3075 27.6222C22.7982 29.1829 23.194 30.3249 23.2841 30.5501C23.3674 30.7583 23.3245 30.9959 23.1737 31.1618C22.4407 31.9681 22.0436 32.6691 22.0436 34.0625C22.0436 38.242 24.0056 38.4197 26.7213 38.6656C27.0161 38.6923 27.3209 38.7199 27.6247 38.7536C27.8532 38.7789 28.0458 38.9355 28.1171 39.154C28.1885 39.3725 28.1255 39.6126 27.9561 39.7679C27.6975 40.005 27.3853 40.6011 27.2706 41.3985C27.2424 41.595 27.1165 41.7639 26.9362 41.8471C26.5976 42.0034 25.9117 42.2657 25.1226 42.2657C24.2634 42.2657 23.0623 41.9539 22.2196 40.4685C21.7958 39.7322 20.3676 39.432 19.6649 39.3538C19.6905 39.3837 19.717 39.4132 19.7437 39.4413C20.7168 39.965 22.2111 41.7671 22.51 42.1346C22.5551 42.1901 22.5898 42.2535 22.6121 42.3216C22.9055 43.2157 23.7969 43.669 25.2618 43.6689C25.9683 43.6689 26.5306 43.5518 26.5362 43.5506C26.709 43.5142 26.8895 43.5574 27.0267 43.6687C27.1639 43.7799 27.244 43.9471 27.244 44.1237C27.244 44.8611 27.2508 45.8849 27.2556 46.6324C27.2582 47.0323 27.2603 47.341 27.2603 47.4602C27.2602 48.0891 26.8161 48.7258 25.9673 48.7258ZM25.8755 47.5471C25.9086 47.5516 25.9394 47.5539 25.9673 47.5539C26.0713 47.5539 26.0883 47.5408 26.0883 47.4601C26.0883 47.3421 26.0863 47.0363 26.0837 46.64C26.0801 46.1002 26.0757 45.4167 26.0735 44.7996C25.8403 44.8228 25.5628 44.8407 25.2617 44.8407C23.3427 44.8408 22.0252 44.1157 21.5364 42.7954C20.871 41.9877 19.6915 40.7016 19.1516 40.4547C19.0922 40.4276 19.0378 40.3907 18.9906 40.3457C18.7104 40.0781 18.0864 39.387 18.342 38.7491C18.449 38.4821 18.729 38.1639 19.4554 38.1639L19.4894 38.1642C19.4976 38.1643 19.5059 38.1645 19.514 38.165C19.8026 38.1808 22.3591 38.3624 23.2368 39.8871C23.6981 40.7002 24.3143 41.0939 25.1224 41.0939C25.5251 41.0939 25.8979 40.995 26.1698 40.8962C26.2506 40.5119 26.3722 40.1469 26.5238 39.8245C23.8542 39.5821 20.8714 39.2534 20.8714 34.0626C20.8714 32.4611 21.3274 31.5242 22.0786 30.6332C21.8931 29.9734 21.6614 28.567 22.3363 26.8624C22.4016 26.6976 22.5379 26.5712 22.7071 26.5185C22.8605 26.4709 23.0312 26.4467 23.2143 26.4467C24.3923 26.4467 26.1011 27.4924 26.7368 27.9103C27.7934 27.6397 28.9305 27.4974 30.0432 27.4974C31.1559 27.4974 32.2928 27.6397 33.3492 27.9101C33.9844 27.4914 35.6897 26.4453 36.8684 26.4453C37.054 26.4453 37.2268 26.4701 37.3821 26.5192C37.5504 26.5723 37.6858 26.6985 37.7506 26.8627C38.4241 28.5686 38.1935 29.9731 38.0082 30.6326C38.8332 31.6004 39.3348 32.5558 39.3348 34.0625C39.3348 36.6247 38.6071 38.3916 37.1101 39.4641C36.0843 40.1991 34.8265 40.509 33.5566 40.695C33.852 41.3062 34.0202 42.0809 34.0202 42.9064C34.0202 44.1342 34.0129 45.5556 34.0081 46.4961C34.0058 46.9579 34.004 47.3026 34.004 47.4493C34.004 47.529 34.0223 47.5431 34.1265 47.5431H34.1266C34.1542 47.5431 34.1845 47.5408 34.2172 47.5362C39.4068 45.7918 42.8905 40.808 42.8905 35.1195C42.8905 28.0129 37.152 22.4462 29.826 22.4462C22.5763 22.4462 17.1094 27.8945 17.1094 35.1195C17.1094 40.7803 20.6299 45.7684 25.8755 47.5471Z" fill="url(#paint7_linear_609_16)"/>
<path d="M68.08 46.352C65.2427 46.352 63.0453 45.4133 61.488 43.536C59.9307 41.6587 59.152 39.0347 59.152 35.664C59.152 32.2933 59.9947 29.6587 61.68 27.76C63.3653 25.84 65.7227 24.88 68.752 24.88C69.7333 24.88 70.704 25.008 71.664 25.264C72.624 25.4987 73.4453 25.7653 74.128 26.064C74.832 26.3413 75.184 26.4907 75.184 26.512L74.704 28.848C74.5547 28.7627 74.192 28.6027 73.616 28.368C73.0613 28.112 72.3787 27.8667 71.568 27.632C70.7787 27.3973 70.032 27.28 69.328 27.28C68.0053 27.28 66.96 27.568 66.192 28.144C65.424 28.6987 64.8693 29.584 64.528 30.8C64.1867 32.016 64.016 33.648 64.016 35.696C64.016 38.5973 64.432 40.6987 65.264 42C66.096 43.3013 67.2907 43.952 68.848 43.952C70 43.952 70.832 43.6427 71.344 43.024C71.856 42.4053 72.1867 41.7547 72.336 41.072V37.2H69.104V35.024H76.08V46H74.16L73.04 44.176C72.5493 44.816 71.888 45.3387 71.056 45.744C70.2453 46.1493 69.2533 46.352 68.08 46.352ZM82.064 27.6C81.424 27.6 80.8587 27.3867 80.368 26.96C79.8773 26.4693 79.632 25.8613 79.632 25.136C79.632 24.432 79.8773 23.8347 80.368 23.344C80.816 22.9173 81.3813 22.704 82.064 22.704C82.7253 22.704 83.2693 22.9067 83.696 23.312C84.1653 23.8027 84.4 24.4107 84.4 25.136C84.4 25.8827 84.1653 26.5013 83.696 26.992C83.2267 27.3973 82.6827 27.6 82.064 27.6ZM79.92 46V30H84.176V46H79.92ZM93.0378 46.352C91.5231 46.352 90.4031 45.9787 89.6778 45.232C88.9524 44.4853 88.5898 43.2267 88.5898 41.456V32.464H87.0538V30.544L88.6218 30.096L90.6698 24.688H92.8458V30H96.3658V32.464H92.8458V40.368C92.8458 41.3707 92.8884 42.1387 92.9738 42.672C93.0804 43.184 93.2404 43.5467 93.4538 43.76C93.6671 43.952 93.9658 44.048 94.3498 44.048C94.7764 44.048 95.1604 44.0053 95.5017 43.92C95.8431 43.8347 96.0138 43.7813 96.0138 43.76L96.2698 45.584C96.2698 45.6053 96.1524 45.68 95.9178 45.808C95.6831 45.936 95.3204 46.0533 94.8298 46.16C94.3604 46.288 93.7631 46.352 93.0378 46.352ZM99.295 22.128L103.551 21.872V31.088H103.679C103.679 31.0453 103.85 30.9067 104.191 30.672C104.554 30.4373 105.044 30.2133 105.663 30C106.282 29.7867 107.007 29.68 107.839 29.68C109.503 29.68 110.74 30.128 111.551 31.024C112.362 31.8987 112.767 33.2747 112.767 35.152V46H108.543V35.504C108.543 34.2667 108.383 33.4347 108.063 33.008C107.743 32.56 107.178 32.336 106.367 32.336C105.834 32.336 105.354 32.4213 104.927 32.592C104.522 32.7627 104.191 32.9547 103.935 33.168C103.679 33.36 103.551 33.4667 103.551 33.488V46H99.295V22.128ZM121.283 46.352C119.64 46.352 118.403 45.9147 117.571 45.04C116.76 44.144 116.355 42.7573 116.355 40.88V30H120.611V39.984C120.611 41.392 120.781 42.3627 121.123 42.896C121.464 43.4293 122.019 43.696 122.786 43.696C123.299 43.696 123.757 43.6107 124.163 43.44C124.568 43.248 124.888 43.056 125.123 42.864C125.357 42.672 125.507 42.544 125.571 42.48V30H129.827V46H126.403L125.795 44.592H125.731C125.731 44.6347 125.56 44.816 125.219 45.136C124.877 45.4347 124.376 45.712 123.715 45.968C123.053 46.224 122.243 46.352 121.283 46.352ZM141.605 46.48C140.752 46.48 140.005 46.3627 139.365 46.128C138.747 45.8933 138.256 45.648 137.893 45.392C137.552 45.1147 137.381 44.9547 137.381 44.912H137.317L136.613 46H133.701V22.128L137.957 21.872V31.056H138.085C138.085 31.0133 138.224 30.864 138.501 30.608C138.779 30.3307 139.205 30.0853 139.781 29.872C140.357 29.6373 141.072 29.52 141.925 29.52C143.184 29.52 144.293 29.8613 145.253 30.544C146.213 31.2267 146.96 32.1867 147.493 33.424C148.027 34.6613 148.293 36.08 148.293 37.68C148.293 40.3253 147.696 42.4587 146.501 44.08C145.328 45.68 143.696 46.48 141.605 46.48ZM140.485 44.048C141.659 44.048 142.491 43.5787 142.981 42.64C143.472 41.68 143.717 40.0587 143.717 37.776C143.717 36.304 143.611 35.152 143.397 34.32C143.205 33.488 142.885 32.9013 142.437 32.56C141.989 32.1973 141.392 32.016 140.645 32.016C140.091 32.016 139.611 32.144 139.205 32.4C138.8 32.6347 138.491 32.9013 138.277 33.2C138.064 33.4773 137.957 33.6373 137.957 33.68V42.864C137.957 42.9067 138.053 43.0347 138.245 43.248C138.437 43.44 138.715 43.6213 139.077 43.792C139.461 43.9627 139.931 44.048 140.485 44.048Z" fill="#F5F5F5"/>
<defs>
<linearGradient id="paint0_linear_609_16" x1="25.2451" y1="42.8229" x2="25.2451" y2="43.2181" gradientUnits="userSpaceOnUse">
<stop stop-color="#7B001E"/>
<stop offset="1" stop-color="#BF2D50"/>
</linearGradient>
<linearGradient id="paint1_linear_609_16" x1="24.1332" y1="42.6389" x2="24.1332" y2="43.0635" gradientUnits="userSpaceOnUse">
<stop stop-color="#7B001E"/>
<stop offset="1" stop-color="#BF2D50"/>
</linearGradient>
<linearGradient id="paint2_linear_609_16" x1="26.2857" y1="42.6812" x2="26.2857" y2="43.1016" gradientUnits="userSpaceOnUse">
<stop stop-color="#7B001E"/>
<stop offset="1" stop-color="#BF2D50"/>
</linearGradient>
<linearGradient id="paint3_linear_609_16" x1="21.9655" y1="40.5655" x2="21.9655" y2="40.976" gradientUnits="userSpaceOnUse">
<stop stop-color="#7B001E"/>
<stop offset="1" stop-color="#BF2D50"/>
</linearGradient>
<linearGradient id="paint4_linear_609_16" x1="22.5118" y1="41.2666" x2="22.5118" y2="41.7645" gradientUnits="userSpaceOnUse">
<stop stop-color="#7B001E"/>
<stop offset="1" stop-color="#BF2D50"/>
</linearGradient>
<linearGradient id="paint5_linear_609_16" x1="21.3977" y1="40.1074" x2="21.3977" y2="40.4061" gradientUnits="userSpaceOnUse">
<stop stop-color="#7B001E"/>
<stop offset="1" stop-color="#BF2D50"/>
</linearGradient>
<linearGradient id="paint6_linear_609_16" x1="23.1854" y1="42.0422" x2="23.1854" y2="42.5425" gradientUnits="userSpaceOnUse">
<stop stop-color="#7B001E"/>
<stop offset="1" stop-color="#BF2D50"/>
</linearGradient>
<linearGradient id="paint7_linear_609_16" x1="29.9999" y1="21.2742" x2="29.9999" y2="48.7258" gradientUnits="userSpaceOnUse">
<stop stop-color="#7B001E"/>
<stop offset="1" stop-color="#BF2D50"/>
</linearGradient>
</defs>
</svg>
