<svg width="34" height="22" viewBox="0 0 34 22" fill="none" xmlns="http://www.w3.org/2000/svg">
<g filter="url(#filter0_d_305_13)">
<rect x="4" width="25.9" height="14" rx="2" fill="black" fill-opacity="0.6"/>
<path d="M6.09059 2.58665C6.25275 2.22941 6.60884 2 7.00116 2H26.8968C27.6239 2 28.108 2.7513 27.8074 3.41335C27.6452 3.77059 27.2892 4 26.8968 4H7.00116C6.27408 4 5.79005 3.2487 6.09059 2.58665Z" fill="#7B001E"/>
<path d="M6.09156 10.5871C6.25373 10.2299 6.60981 10.0005 7.00214 10.0005H26.8978C27.6249 10.0005 28.1089 10.7518 27.8084 11.4138C27.6462 11.7711 27.2901 12.0005 26.8978 12.0005H7.00213C6.27506 12.0005 5.79103 11.2492 6.09156 10.5871Z" fill="#7B001E"/>
<path d="M6.09059 6.58665C6.25275 6.22941 6.60884 6 7.00116 6H26.8968C27.6239 6 28.108 6.7513 27.8074 7.41335C27.6452 7.77059 27.2892 8 26.8968 8H7.00116C6.27408 8 5.79005 7.2487 6.09059 6.58665Z" fill="#7B001E"/>
</g>
<defs>
<filter id="filter0_d_305_13" x="0" y="0" width="33.8999" height="22" filterUnits="userSpaceOnUse" color-interpolation-filters="sRGB">
<feFlood flood-opacity="0" result="BackgroundImageFix"/>
<feColorMatrix in="SourceAlpha" type="matrix" values="0 0 0 0 0 0 0 0 0 0 0 0 0 0 0 0 0 0 127 0" result="hardAlpha"/>
<feOffset dy="4"/>
<feGaussianBlur stdDeviation="2"/>
<feComposite in2="hardAlpha" operator="out"/>
<feColorMatrix type="matrix" values="0 0 0 0 0 0 0 0 0 0 0 0 0 0 0 0 0 0 0.25 0"/>
<feBlend mode="normal" in2="BackgroundImageFix" result="effect1_dropShadow_305_13"/>
<feBlend mode="normal" in="SourceGraphic" in2="effect1_dropShadow_305_13" result="shape"/>
</filter>
</defs>
</svg>
