<svg width="201" height="265" viewBox="0 0 201 265" fill="none" xmlns="http://www.w3.org/2000/svg">
<rect x="0.5" y="0.5" width="200" height="264" rx="4.5" fill="#010808" stroke="#010808"/>
<path d="M72.984 213V203.496H66.328V213H61.08V190.824H66.328V199.4H72.984V190.824H78.232V213H72.984ZM97.5605 190.824L97.0485 194.856H91.5765V213H86.3285V194.856H80.6005V190.824H97.5605ZM121.065 213H115.913L115.529 204.328C115.422 202.259 115.369 200.413 115.369 198.792C115.369 197.555 115.401 196.381 115.465 195.272L112.041 210.664H107.081L103.433 195.272C103.561 197.128 103.625 198.877 103.625 200.52C103.625 201.757 103.593 203.048 103.529 204.392L103.145 213H98.0247L99.6888 190.824H106.313L109.641 205.864L112.745 190.824H119.401L121.065 213ZM129.453 190.824V208.84H138.093L137.549 213H124.205V190.824H129.453Z" fill="white"/>
<g clip-path="url(#clip0_633_199)">
<path d="M136.553 141.102L101.003 150.877L65.4531 141.102L57.25 50.3369H144.756L136.553 141.102Z" fill="url(#paint0_linear_633_199)"/>
<path d="M101 56.6206V143.808L129.85 135.193L137.525 56.6206H101Z" fill="url(#paint1_linear_633_199)"/>
<path d="M127.134 69.188H74.772L76.0001 81.7555L77.9345 103.749H111.947L110.838 116.266L101 119.427L91.1782 116.266L90.5251 110.032H78.5095L79.9438 125.701L101 131.994L122.025 125.698L125.119 91.1811H89.2876L88.5063 81.7555H126L127.134 69.188Z" fill="#010808"/>
</g>
<defs>
<linearGradient id="paint0_linear_633_199" x1="101.003" y1="50.3369" x2="101.003" y2="150.877" gradientUnits="userSpaceOnUse">
<stop stop-color="#7B001E"/>
<stop offset="1" stop-color="#BF2D50"/>
</linearGradient>
<linearGradient id="paint1_linear_633_199" x1="119.262" y1="56.6206" x2="119.262" y2="143.808" gradientUnits="userSpaceOnUse">
<stop stop-color="#7B001E"/>
<stop offset="1" stop-color="#BF2D50"/>
</linearGradient>
<clipPath id="clip0_633_199">
<rect width="100" height="100.54" fill="white" transform="translate(51 50.3369)"/>
</clipPath>
</defs>
</svg>
