<svg width="201" height="265" viewBox="0 0 201 265" fill="none" xmlns="http://www.w3.org/2000/svg">
<rect x="0.5" y="0.5" width="200" height="264" rx="4.5" fill="#010808" stroke="#010808"/>
<path d="M33.192 209.64C33.192 211.411 32.872 212.872 32.232 214.024C31.6133 215.176 30.7813 216.072 29.736 216.712C28.712 217.373 27.4853 217.939 26.056 218.408L24.648 214.696C25.5867 214.333 26.2907 213.917 26.76 213.448C27.2293 212.979 27.5387 212.435 27.688 211.816C27.8587 211.197 27.944 210.408 27.944 209.448V190.824H33.192V209.64ZM50.6443 208.072C50.6443 208.712 50.7296 209.181 50.9003 209.48C51.0923 209.779 51.3909 210.003 51.7963 210.152L50.7403 213.448C49.6949 213.363 48.8416 213.139 48.1803 212.776C47.5189 212.392 47.0069 211.795 46.6443 210.984C45.5349 212.691 43.8283 213.544 41.5243 213.544C39.8389 213.544 38.4949 213.053 37.4923 212.072C36.4896 211.091 35.9883 209.811 35.9883 208.232C35.9883 206.376 36.6709 204.957 38.0363 203.976C39.4016 202.995 41.3749 202.504 43.9563 202.504H45.6843V201.768C45.6843 200.765 45.4709 200.083 45.0443 199.72C44.6176 199.336 43.8709 199.144 42.8043 199.144C42.2496 199.144 41.5776 199.229 40.7883 199.4C39.9989 199.549 39.1883 199.763 38.3563 200.04L37.2043 196.712C38.2709 196.307 39.3589 195.997 40.4683 195.784C41.5989 195.571 42.6443 195.464 43.6042 195.464C46.0363 195.464 47.8176 195.965 48.9483 196.968C50.0789 197.971 50.6443 199.475 50.6443 201.48V208.072ZM42.9963 209.928C44.1483 209.928 45.0443 209.384 45.6843 208.296V205.288H44.4363C43.2843 205.288 42.4203 205.491 41.8443 205.896C41.2896 206.301 41.0123 206.931 41.0123 207.784C41.0123 208.467 41.1829 209 41.5243 209.384C41.8869 209.747 42.3776 209.928 42.9963 209.928ZM68.8268 196.008L63.4828 213H57.4988L52.0267 196.008H57.5308L60.5388 209.16L63.6748 196.008H68.8268ZM83.3943 208.072C83.3943 208.712 83.4796 209.181 83.6503 209.48C83.8423 209.779 84.1409 210.003 84.5463 210.152L83.4903 213.448C82.4449 213.363 81.5916 213.139 80.9303 212.776C80.2689 212.392 79.7569 211.795 79.3943 210.984C78.2849 212.691 76.5783 213.544 74.2743 213.544C72.5889 213.544 71.2449 213.053 70.2423 212.072C69.2396 211.091 68.7383 209.811 68.7383 208.232C68.7383 206.376 69.4209 204.957 70.7863 203.976C72.1516 202.995 74.1249 202.504 76.7063 202.504H78.4343V201.768C78.4343 200.765 78.2209 200.083 77.7943 199.72C77.3676 199.336 76.6209 199.144 75.5543 199.144C74.9996 199.144 74.3276 199.229 73.5383 199.4C72.7489 199.549 71.9383 199.763 71.1063 200.04L69.9543 196.712C71.0209 196.307 72.1089 195.997 73.2183 195.784C74.3489 195.571 75.3943 195.464 76.3542 195.464C78.7863 195.464 80.5676 195.965 81.6983 196.968C82.8289 197.971 83.3943 199.475 83.3943 201.48V208.072ZM75.7463 209.928C76.8983 209.928 77.7943 209.384 78.4343 208.296V205.288H77.1863C76.0343 205.288 75.1703 205.491 74.5943 205.896C74.0396 206.301 73.7623 206.931 73.7623 207.784C73.7623 208.467 73.9329 209 74.2743 209.384C74.6369 209.747 75.1276 209.928 75.7463 209.928ZM94.6535 190.28C96.3175 190.28 97.7575 190.515 98.9735 190.984C100.211 191.453 101.331 192.168 102.333 193.128L99.9015 195.976C98.3868 194.739 96.7655 194.12 95.0375 194.12C94.1202 194.12 93.3948 194.312 92.8615 194.696C92.3282 195.059 92.0615 195.592 92.0615 196.296C92.0615 196.787 92.1788 197.192 92.4135 197.512C92.6482 197.811 93.0642 198.099 93.6615 198.376C94.2588 198.653 95.1548 198.984 96.3495 199.368C98.6108 200.093 100.275 200.989 101.342 202.056C102.408 203.101 102.942 204.595 102.942 206.536C102.942 207.923 102.59 209.149 101.885 210.216C101.182 211.261 100.168 212.083 98.8455 212.68C97.5228 213.256 95.9548 213.544 94.1415 213.544C92.3282 213.544 90.7175 213.256 89.3095 212.68C87.9228 212.104 86.7282 211.336 85.7255 210.376L88.3815 207.464C89.2348 208.189 90.1095 208.733 91.0055 209.096C91.9228 209.459 92.9148 209.64 93.9815 209.64C95.0695 209.64 95.9228 209.405 96.5415 208.936C97.1815 208.445 97.5015 207.773 97.5015 206.92C97.5015 206.365 97.3842 205.907 97.1495 205.544C96.9148 205.16 96.5095 204.819 95.9335 204.52C95.3575 204.221 94.5255 203.901 93.4375 203.56C90.9842 202.813 89.2348 201.896 88.1895 200.808C87.1655 199.72 86.6535 198.344 86.6535 196.68C86.6535 195.4 86.9948 194.28 87.6775 193.32C88.3602 192.339 89.3095 191.592 90.5255 191.08C91.7415 190.547 93.1175 190.28 94.6535 190.28ZM113.094 195.464C114.267 195.464 115.323 195.635 116.262 195.976C117.201 196.317 118.086 196.84 118.918 197.544L116.742 200.552C115.675 199.741 114.598 199.336 113.51 199.336C112.379 199.336 111.526 199.752 110.95 200.584C110.374 201.416 110.086 202.76 110.086 204.616C110.086 206.408 110.374 207.677 110.95 208.424C111.526 209.171 112.358 209.544 113.446 209.544C114.022 209.544 114.545 209.459 115.014 209.288C115.483 209.096 116.049 208.797 116.71 208.392L118.918 211.528C117.233 212.872 115.323 213.544 113.19 213.544C111.462 213.544 109.969 213.181 108.71 212.456C107.451 211.709 106.481 210.675 105.798 209.352C105.115 208.008 104.774 206.44 104.774 204.648C104.774 202.856 105.115 201.267 105.798 199.88C106.481 198.493 107.451 197.416 108.71 196.648C109.969 195.859 111.43 195.464 113.094 195.464ZM130.263 195.528C130.881 195.528 131.447 195.603 131.959 195.752L131.159 200.648C130.519 200.499 130.007 200.424 129.623 200.424C128.62 200.424 127.852 200.776 127.319 201.48C126.807 202.163 126.401 203.197 126.103 204.584V213H121.047V196.008H125.463L125.879 199.304C126.263 198.131 126.839 197.213 127.607 196.552C128.396 195.869 129.281 195.528 130.263 195.528ZM138.946 196.008V213H133.89V196.008H138.946ZM136.386 187.048C137.261 187.048 137.976 187.325 138.53 187.88C139.106 188.413 139.394 189.096 139.394 189.928C139.394 190.76 139.106 191.453 138.53 192.008C137.976 192.541 137.261 192.808 136.386 192.808C135.512 192.808 134.797 192.541 134.242 192.008C133.688 191.453 133.41 190.76 133.41 189.928C133.41 189.096 133.688 188.413 134.242 187.88C134.797 187.325 135.512 187.048 136.386 187.048ZM152.522 195.464C154.655 195.464 156.244 196.253 157.29 197.832C158.335 199.411 158.858 201.619 158.858 204.456C158.858 206.205 158.58 207.773 158.026 209.16C157.492 210.525 156.714 211.603 155.69 212.392C154.666 213.16 153.471 213.544 152.106 213.544C150.399 213.544 149.023 212.957 147.978 211.784V219.56L142.922 220.104V196.008H147.37L147.626 197.896C148.287 197.064 149.044 196.456 149.898 196.072C150.751 195.667 151.626 195.464 152.522 195.464ZM150.57 209.832C152.596 209.832 153.61 208.061 153.61 204.52C153.61 202.515 153.386 201.128 152.938 200.36C152.49 199.571 151.818 199.176 150.922 199.176C150.346 199.176 149.802 199.347 149.29 199.688C148.799 200.029 148.362 200.52 147.978 201.16V208.328C148.66 209.331 149.524 209.832 150.57 209.832ZM172.671 212.2C172.053 212.627 171.327 212.957 170.495 213.192C169.685 213.427 168.874 213.544 168.063 213.544C164.351 213.523 162.495 211.475 162.495 207.4V199.528H160.095V196.008H162.495V192.328L167.551 191.752V196.008H171.455L170.911 199.528H167.551V207.336C167.551 208.125 167.679 208.691 167.935 209.032C168.191 209.373 168.597 209.544 169.151 209.544C169.727 209.544 170.335 209.363 170.975 209L172.671 212.2Z" fill="white"/>
<path d="M57.25 56.6099V144.582H144.75V56.6099H57.25ZM104.125 124.946C104.125 133.509 99.0938 137.684 91.8105 137.684C85.2324 137.684 81.4141 134.259 79.4766 130.126L86.1719 126.051C87.4629 128.355 88.4434 130.302 91.2617 130.302C93.6055 130.302 95.5312 129.24 95.5312 125.107V97.4542H104.125V124.946ZM123.529 137.488C115.895 137.488 110.961 134.024 108.553 129.24L115.258 125.338C117.016 128.233 119.311 130.161 123.363 130.161C126.77 130.161 128.748 128.645 128.748 126.283C128.748 123.449 126.711 122.446 122.951 120.785L120.896 119.897C114.963 117.36 111.029 114.171 111.029 107.438C111.029 101.238 115.727 96.71 123.068 96.71C128.297 96.71 132.053 98.3438 134.758 103.127L128.344 107.273C126.934 104.734 125.414 103.738 123.059 103.738C120.65 103.738 119.123 105.274 119.123 107.273C119.123 109.753 120.65 110.756 124.174 112.292L126.229 113.177C133.219 116.19 137.154 119.265 137.154 126.169C137.156 133.611 131.342 137.488 123.529 137.488Z" fill="url(#paint0_linear_633_218)"/>
<defs>
<linearGradient id="paint0_linear_633_218" x1="101" y1="56.6099" x2="101" y2="144.582" gradientUnits="userSpaceOnUse">
<stop stop-color="#7B001E"/>
<stop offset="1" stop-color="#BF2D50"/>
</linearGradient>
</defs>
</svg>
