<svg width="197" height="70" viewBox="0 0 197 70" fill="none" xmlns="http://www.w3.org/2000/svg">
<rect opacity="0.5" width="197" height="70" rx="5" fill="#090909"/>
<path d="M64.464 46V25.2H68.88V43.696H76.944V46H64.464ZM81.3765 27.6C80.7365 27.6 80.1712 27.3867 79.6805 26.96C79.1898 26.4693 78.9445 25.8613 78.9445 25.136C78.9445 24.432 79.1898 23.8347 79.6805 23.344C80.1285 22.9173 80.6938 22.704 81.3765 22.704C82.0378 22.704 82.5818 22.9067 83.0085 23.312C83.4778 23.8027 83.7125 24.4107 83.7125 25.136C83.7125 25.8827 83.4778 26.5013 83.0085 26.992C82.5392 27.3973 81.9952 27.6 81.3765 27.6ZM79.2325 46V30H83.4885V46H79.2325ZM87.3263 30H90.7503L91.2943 31.312H91.4223C91.4223 31.2693 91.5929 31.1093 91.9343 30.832C92.2969 30.5547 92.8089 30.2987 93.4703 30.064C94.1316 29.808 94.9529 29.68 95.9343 29.68C97.5769 29.68 98.8036 30.128 99.6143 31.024C100.446 31.8987 100.862 33.2747 100.862 35.152V46H96.6063V36.016C96.6063 34.5867 96.4463 33.616 96.1263 33.104C95.8276 32.592 95.2729 32.336 94.4623 32.336C93.9076 32.336 93.4169 32.4213 92.9903 32.592C92.5636 32.7627 92.2223 32.9547 91.9663 33.168C91.7103 33.36 91.5823 33.4667 91.5823 33.488V46H87.3263V30ZM104.513 46V22.128L108.769 21.872V36.784L110.977 35.28L114.369 30H116.993L112.833 35.952L118.017 46H113.153L109.569 38.512L108.769 39.024V46H104.513ZM126.76 46.352C124.392 46.352 122.546 45.7013 121.224 44.4C119.922 43.0773 119.272 41.04 119.272 38.288C119.272 35.5147 119.912 33.392 121.192 31.92C122.472 30.4267 124.2 29.68 126.376 29.68C128.36 29.68 129.896 30.3093 130.984 31.568C132.093 32.8053 132.648 34.5867 132.648 36.912C132.648 37.4453 132.605 37.8933 132.52 38.256C132.456 38.6187 132.413 38.8427 132.392 38.928H123.784C123.805 40.848 124.082 42.2133 124.616 43.024C125.17 43.8133 126.056 44.208 127.272 44.208C127.997 44.208 128.637 44.0587 129.192 43.76C129.746 43.44 130.184 43.0987 130.504 42.736C130.824 42.352 130.984 42.1387 130.984 42.096L132.424 43.216C132.424 43.3013 132.2 43.6107 131.752 44.144C131.325 44.6773 130.685 45.1787 129.832 45.648C129 46.1173 127.976 46.352 126.76 46.352ZM128.68 36.848V36.112C128.68 34.4907 128.509 33.36 128.168 32.72C127.826 32.0587 127.229 31.728 126.376 31.728C125.778 31.728 125.298 31.8773 124.936 32.176C124.594 32.4747 124.328 32.9973 124.136 33.744C123.944 34.4693 123.826 35.504 123.784 36.848H128.68ZM141.116 46.352C139.793 46.352 138.62 46.0213 137.596 45.36C136.593 44.6987 135.815 43.7707 135.26 42.576C134.705 41.36 134.428 39.952 134.428 38.352C134.428 36.624 134.695 35.1093 135.228 33.808C135.761 32.4853 136.519 31.472 137.5 30.768C138.481 30.0427 139.623 29.68 140.924 29.68C141.756 29.68 142.449 29.776 143.004 29.968C143.559 30.1387 143.975 30.3307 144.252 30.544C144.529 30.736 144.668 30.8533 144.668 30.896H144.764V22.128L149.02 21.872V46H145.468L144.988 44.56H144.956C144.956 44.624 144.828 44.8053 144.572 45.104C144.316 45.4027 143.9 45.6907 143.324 45.968C142.769 46.224 142.033 46.352 141.116 46.352ZM142.076 43.856C142.609 43.856 143.068 43.7493 143.452 43.536C143.857 43.3227 144.177 43.088 144.412 42.832C144.647 42.576 144.764 42.4267 144.764 42.384V33.168C144.721 33.104 144.593 32.9973 144.38 32.848C144.188 32.6773 143.9 32.5173 143.516 32.368C143.153 32.1973 142.727 32.112 142.236 32.112C141.084 32.112 140.252 32.5707 139.74 33.488C139.249 34.4053 139.004 35.984 139.004 38.224C139.004 39.7173 139.111 40.8693 139.324 41.68C139.559 42.4907 139.889 43.056 140.316 43.376C140.764 43.696 141.351 43.856 142.076 43.856ZM155.002 27.6C154.362 27.6 153.796 27.3867 153.306 26.96C152.815 26.4693 152.57 25.8613 152.57 25.136C152.57 24.432 152.815 23.8347 153.306 23.344C153.754 22.9173 154.319 22.704 155.002 22.704C155.663 22.704 156.207 22.9067 156.634 23.312C157.103 23.8027 157.338 24.4107 157.338 25.136C157.338 25.8827 157.103 26.5013 156.634 26.992C156.164 27.3973 155.62 27.6 155.002 27.6ZM152.858 46V30H157.114V46H152.858ZM160.951 30H164.375L164.919 31.312H165.047C165.047 31.2693 165.218 31.1093 165.559 30.832C165.922 30.5547 166.434 30.2987 167.095 30.064C167.757 29.808 168.578 29.68 169.559 29.68C171.202 29.68 172.429 30.128 173.239 31.024C174.071 31.8987 174.487 33.2747 174.487 35.152V46H170.231V36.016C170.231 34.5867 170.071 33.616 169.751 33.104C169.453 32.592 168.898 32.336 168.087 32.336C167.533 32.336 167.042 32.4213 166.615 32.592C166.189 32.7627 165.847 32.9547 165.591 33.168C165.335 33.36 165.207 33.4667 165.207 33.488V46H160.951V30Z" fill="#F5F5F5"/>
<path d="M25.3999 22.4C23.7502 22.4 22.3999 23.7503 22.3999 25.4V44.6C22.3999 46.2497 23.7502 47.6 25.3999 47.6H44.5999C46.2496 47.6 47.5999 46.2497 47.5999 44.6V25.4C47.5999 23.7503 46.2496 22.4 44.5999 22.4H25.3999ZM25.3999 23.6H44.5999C45.601 23.6 46.3999 24.3989 46.3999 25.4V44.6C46.3999 45.6011 45.601 46.4 44.5999 46.4H25.3999C24.3988 46.4 23.5999 45.6011 23.5999 44.6V25.4C23.5999 24.3989 24.3988 23.6 25.3999 23.6ZM28.3999 26.607C27.7428 26.607 27.1514 26.8034 26.7136 27.1719C26.2757 27.5403 26.0069 28.0907 26.0069 28.6801C26.0069 29.8004 26.9787 30.6738 28.2147 30.7602C28.2155 30.7605 28.2163 30.7609 28.2171 30.7613C28.276 30.7814 28.3377 30.7921 28.3999 30.793C29.7637 30.793 30.7929 29.8376 30.7929 28.6801C30.7928 28.6695 30.7924 28.659 30.7917 28.6484C30.7307 27.5083 29.7142 26.607 28.3999 26.607ZM28.3999 27.793C29.2352 27.793 29.5651 28.166 29.6011 28.6953C29.5938 29.2091 29.276 29.607 28.3999 29.607C27.5687 29.607 27.1929 29.1813 27.1929 28.6801C27.1929 28.4294 27.2843 28.2406 27.4765 28.0789C27.6686 27.9172 27.977 27.793 28.3999 27.793ZM26.5999 31.4C26.2685 31.4 25.9999 31.6686 25.9999 32V43.4C25.9999 43.7313 26.2685 44 26.5999 44H30.1999C30.5313 44 30.7999 43.7313 30.7999 43.4V39.8809V32C30.7999 31.6686 30.5313 31.4 30.1999 31.4H26.5999ZM31.9999 31.4C31.6685 31.4 31.3999 31.6686 31.3999 32V43.4C31.3999 43.7313 31.6685 44 31.9999 44H35.5999C35.9313 44 36.1999 43.7313 36.1999 43.4V37.4C36.1999 36.9022 36.3357 36.407 36.5749 36.0828C36.8141 35.7586 37.1158 35.564 37.6894 35.5742C38.2808 35.5844 38.5939 35.787 38.8308 36.1051C39.0676 36.4232 39.1999 36.9 39.1999 37.4V43.4C39.1999 43.7313 39.4685 44 39.7999 44H43.3999C43.7313 44 43.9999 43.7313 43.9999 43.4V36.957C43.9999 35.1801 43.4736 33.7726 42.5714 32.8203C41.6692 31.868 40.4144 31.4 39.0874 31.4C37.8262 31.4 36.8664 31.8229 36.1999 32.2543V32C36.1999 31.6686 35.9313 31.4 35.5999 31.4H31.9999ZM27.1999 32.6H29.5999V39.8809V42.8H27.1999V32.6ZM32.5999 32.6H34.9999V33.5363C35 33.7943 35.165 34.0234 35.4096 34.1052C35.6543 34.1871 35.9239 34.1033 36.0792 33.8973C36.0792 33.8973 37.0214 32.6 39.0874 32.6C40.1394 32.6 41.0415 32.9495 41.7007 33.6453C42.3598 34.3411 42.7999 35.4129 42.7999 36.957V42.8H40.3999V37.4C40.3999 36.7 40.2322 35.9763 39.794 35.3879C39.3559 34.7995 38.619 34.3898 37.7104 34.3742C36.7972 34.358 36.0484 34.7762 35.6093 35.3715C35.1701 35.9668 34.9999 36.6978 34.9999 37.4V42.8H32.5999L32.5999 32.6Z" fill="url(#paint0_linear_609_15)"/>
<defs>
<linearGradient id="paint0_linear_609_15" x1="34.9999" y1="22.4" x2="34.9999" y2="47.6" gradientUnits="userSpaceOnUse">
<stop stop-color="#7B001E"/>
<stop offset="1" stop-color="#BF2D50"/>
</linearGradient>
</defs>
</svg>
