<svg width="120" height="36" viewBox="0 0 120 36" fill="none" xmlns="http://www.w3.org/2000/svg">
<rect opacity="0.5" width="120" height="36" rx="5" fill="#090909"/>
<path d="M37.54 25V12H40.3V23.56H45.34V25H37.54ZM48.1103 13.5C47.7103 13.5 47.357 13.3667 47.0503 13.1C46.7436 12.7933 46.5903 12.4133 46.5903 11.96C46.5903 11.52 46.7436 11.1467 47.0503 10.84C47.3303 10.5733 47.6836 10.44 48.1103 10.44C48.5236 10.44 48.8636 10.5667 49.1303 10.82C49.4236 11.1267 49.5703 11.5067 49.5703 11.96C49.5703 12.4267 49.4236 12.8133 49.1303 13.12C48.837 13.3733 48.497 13.5 48.1103 13.5ZM46.7703 25V15H49.4303V25H46.7703ZM51.8289 15H53.9689L54.3089 15.82H54.3889C54.3889 15.7933 54.4956 15.6933 54.7089 15.52C54.9356 15.3467 55.2556 15.1867 55.6689 15.04C56.0822 14.88 56.5956 14.8 57.2089 14.8C58.2356 14.8 59.0022 15.08 59.5089 15.64C60.0289 16.1867 60.2889 17.0467 60.2889 18.22V25H57.6289V18.76C57.6289 17.8667 57.5289 17.26 57.3289 16.94C57.1422 16.62 56.7956 16.46 56.2889 16.46C55.9422 16.46 55.6356 16.5133 55.3689 16.62C55.1022 16.7267 54.8889 16.8467 54.7289 16.98C54.5689 17.1 54.4889 17.1667 54.4889 17.18V25H51.8289V15ZM62.5706 25V10.08L65.2306 9.92V19.24L66.6106 18.3L68.7306 15H70.3706L67.7706 18.72L71.0106 25H67.9706L65.7306 20.32L65.2306 20.64V25H62.5706ZM76.4748 25.22C74.9948 25.22 73.8415 24.8133 73.0148 24C72.2015 23.1733 71.7948 21.9 71.7948 20.18C71.7948 18.4467 72.1948 17.12 72.9948 16.2C73.7948 15.2667 74.8748 14.8 76.2348 14.8C77.4748 14.8 78.4348 15.1933 79.1148 15.98C79.8082 16.7533 80.1548 17.8667 80.1548 19.32C80.1548 19.6533 80.1282 19.9333 80.0748 20.16C80.0348 20.3867 80.0082 20.5267 79.9948 20.58H74.6148C74.6282 21.78 74.8015 22.6333 75.1348 23.14C75.4815 23.6333 76.0348 23.88 76.7948 23.88C77.2482 23.88 77.6482 23.7867 77.9948 23.6C78.3415 23.4 78.6148 23.1867 78.8148 22.96C79.0148 22.72 79.1148 22.5867 79.1148 22.56L80.0148 23.26C80.0148 23.3133 79.8748 23.5067 79.5948 23.84C79.3282 24.1733 78.9282 24.4867 78.3948 24.78C77.8748 25.0733 77.2348 25.22 76.4748 25.22ZM77.6748 19.28V18.82C77.6748 17.8067 77.5682 17.1 77.3548 16.7C77.1415 16.2867 76.7682 16.08 76.2348 16.08C75.8615 16.08 75.5615 16.1733 75.3348 16.36C75.1215 16.5467 74.9548 16.8733 74.8348 17.34C74.7148 17.7933 74.6415 18.44 74.6148 19.28H77.6748ZM85.4475 25.22C84.6208 25.22 83.8875 25.0133 83.2475 24.6C82.6208 24.1867 82.1342 23.6067 81.7875 22.86C81.4408 22.1 81.2675 21.22 81.2675 20.22C81.2675 19.14 81.4342 18.1933 81.7675 17.38C82.1008 16.5533 82.5742 15.92 83.1875 15.48C83.8008 15.0267 84.5142 14.8 85.3275 14.8C85.8475 14.8 86.2808 14.86 86.6275 14.98C86.9742 15.0867 87.2342 15.2067 87.4075 15.34C87.5808 15.46 87.6675 15.5333 87.6675 15.56H87.7275V10.08L90.3875 9.92V25H88.1675L87.8675 24.1H87.8475C87.8475 24.14 87.7675 24.2533 87.6075 24.44C87.4475 24.6267 87.1875 24.8067 86.8275 24.98C86.4808 25.14 86.0208 25.22 85.4475 25.22ZM86.0475 23.66C86.3808 23.66 86.6675 23.5933 86.9075 23.46C87.1608 23.3267 87.3608 23.18 87.5075 23.02C87.6542 22.86 87.7275 22.7667 87.7275 22.74V16.98C87.7008 16.94 87.6208 16.8733 87.4875 16.78C87.3675 16.6733 87.1875 16.5733 86.9475 16.48C86.7208 16.3733 86.4542 16.32 86.1475 16.32C85.4275 16.32 84.9075 16.6067 84.5875 17.18C84.2808 17.7533 84.1275 18.74 84.1275 20.14C84.1275 21.0733 84.1942 21.7933 84.3275 22.3C84.4742 22.8067 84.6808 23.16 84.9475 23.36C85.2275 23.56 85.5942 23.66 86.0475 23.66ZM94.1259 13.5C93.7259 13.5 93.3726 13.3667 93.0659 13.1C92.7593 12.7933 92.6059 12.4133 92.6059 11.96C92.6059 11.52 92.7593 11.1467 93.0659 10.84C93.3459 10.5733 93.6993 10.44 94.1259 10.44C94.5393 10.44 94.8793 10.5667 95.1459 10.82C95.4393 11.1267 95.5859 11.5067 95.5859 11.96C95.5859 12.4267 95.4393 12.8133 95.1459 13.12C94.8526 13.3733 94.5126 13.5 94.1259 13.5ZM92.7859 25V15H95.4459V25H92.7859ZM97.8445 15H99.9845L100.325 15.82H100.405C100.405 15.7933 100.511 15.6933 100.725 15.52C100.951 15.3467 101.271 15.1867 101.685 15.04C102.098 14.88 102.611 14.8 103.225 14.8C104.251 14.8 105.018 15.08 105.525 15.64C106.045 16.1867 106.305 17.0467 106.305 18.22V25H103.645V18.76C103.645 17.8667 103.545 17.26 103.345 16.94C103.158 16.62 102.811 16.46 102.305 16.46C101.958 16.46 101.651 16.5133 101.385 16.62C101.118 16.7267 100.905 16.8467 100.745 16.98C100.585 17.1 100.505 17.1667 100.505 17.18V25H97.8445V15Z" fill="#F5F5F5"/>
<path d="M12.6001 9.60001C11.5003 9.60001 10.6001 10.5002 10.6001 11.6V24.4C10.6001 25.4998 11.5003 26.4 12.6001 26.4H25.4001C26.4999 26.4 27.4001 25.4998 27.4001 24.4V11.6C27.4001 10.5002 26.4999 9.60001 25.4001 9.60001H12.6001ZM12.6001 10.4H25.4001C26.0675 10.4 26.6001 10.9326 26.6001 11.6V24.4C26.6001 25.0674 26.0675 25.6 25.4001 25.6H12.6001C11.9327 25.6 11.4001 25.0674 11.4001 24.4V11.6C11.4001 10.9326 11.9327 10.4 12.6001 10.4ZM14.6001 12.4047C14.162 12.4047 13.7678 12.5356 13.4759 12.7813C13.184 13.0269 13.0048 13.3938 13.0048 13.7867C13.0048 14.5336 13.6526 15.1158 14.4767 15.1734C14.4772 15.1737 14.4777 15.174 14.4782 15.1742C14.5175 15.1876 14.5586 15.1947 14.6001 15.1953C15.5093 15.1953 16.1954 14.5584 16.1954 13.7867C16.1953 13.7797 16.1951 13.7727 16.1946 13.7656C16.1539 13.0055 15.4763 12.4047 14.6001 12.4047ZM14.6001 13.1953C15.157 13.1953 15.3769 13.444 15.4009 13.7969C15.396 14.1394 15.1841 14.4047 14.6001 14.4047C14.0459 14.4047 13.7954 14.1209 13.7954 13.7867C13.7954 13.6196 13.8564 13.4937 13.9845 13.3859C14.1126 13.2782 14.3182 13.1953 14.6001 13.1953ZM13.4001 15.6C13.1792 15.6 13.0001 15.7791 13.0001 16V23.6C13.0001 23.8209 13.1792 24 13.4001 24H15.8001C16.021 24 16.2001 23.8209 16.2001 23.6V21.2539V16C16.2001 15.7791 16.021 15.6 15.8001 15.6H13.4001ZM17.0001 15.6C16.7792 15.6 16.6001 15.7791 16.6001 16V23.6C16.6001 23.8209 16.7792 24 17.0001 24H19.4001C19.621 24 19.8001 23.8209 19.8001 23.6V19.6C19.8001 19.2681 19.8907 18.938 20.0501 18.7219C20.2095 18.5057 20.4107 18.376 20.7931 18.3828C21.1874 18.3896 21.3961 18.5247 21.554 18.7367C21.7119 18.9488 21.8001 19.2667 21.8001 19.6V23.6C21.8001 23.8209 21.9792 24 22.2001 24H24.6001C24.821 24 25.0001 23.8209 25.0001 23.6V19.3047C25.0001 18.1201 24.6492 17.1817 24.0477 16.5469C23.4463 15.912 22.6098 15.6 21.7251 15.6C20.8843 15.6 20.2444 15.882 19.8001 16.1695V16C19.8001 15.7791 19.621 15.6 19.4001 15.6H17.0001ZM13.8001 16.4H15.4001V21.2539V23.2H13.8001V16.4ZM17.4001 16.4H19.0001V17.0242C19.0001 17.1962 19.1101 17.3489 19.2733 17.4035C19.4364 17.458 19.6161 17.4022 19.7196 17.2648C19.7196 17.2648 20.3478 16.4 21.7251 16.4C22.4264 16.4 23.0278 16.633 23.4673 17.0969C23.9067 17.5607 24.2001 18.2753 24.2001 19.3047V23.2H22.6001V19.6C22.6001 19.1333 22.4883 18.6508 22.1962 18.2586C21.9041 17.8663 21.4128 17.5932 20.8071 17.5828C20.1983 17.572 19.6991 17.8508 19.4063 18.2477C19.1136 18.6445 19.0001 19.1319 19.0001 19.6V23.2H17.4001L17.4001 16.4Z" fill="url(#paint0_linear_609_15)"/>
<defs>
<linearGradient id="paint0_linear_609_15" x1="19.0001" y1="9.60001" x2="19.0001" y2="26.4" gradientUnits="userSpaceOnUse">
<stop stop-color="#7B001E"/>
<stop offset="1" stop-color="#BF2D50"/>
</linearGradient>
</defs>
</svg>
