<svg width="60" height="60" viewBox="0 0 60 60" fill="none" xmlns="http://www.w3.org/2000/svg">
<rect width="60" height="60" rx="5" fill="black"/>
<path d="M14 9C11.2505 9 9 11.2505 9 14V46C9 48.7495 11.2505 51 14 51H46C48.7495 51 51 48.7495 51 46V14C51 11.2505 48.7495 9 46 9H14ZM14 11H46C47.6685 11 49 12.3315 49 14V46C49 47.6685 47.6685 49 46 49H14C12.3315 49 11 47.6685 11 46V14C11 12.3315 12.3315 11 14 11ZM19 16.0117C17.9048 16.0117 16.9192 16.3391 16.1895 16.9531C15.4597 17.5672 15.0117 18.4845 15.0117 19.4668C15.0117 21.334 16.6313 22.7896 18.6914 22.9336C18.6927 22.9342 18.694 22.9349 18.6953 22.9356C18.7935 22.969 18.8963 22.9868 19 22.9883C21.273 22.9883 22.9883 21.3961 22.9883 19.4668C22.9881 19.4492 22.9875 19.4316 22.9863 19.4141C22.8846 17.5138 21.1904 16.0117 19 16.0117ZM19 17.9883C20.3922 17.9883 20.942 18.61 21.0019 19.4922C20.9898 20.3484 20.4601 21.0117 19 21.0117C17.6146 21.0117 16.9883 20.3022 16.9883 19.4668C16.9883 19.0491 17.1407 18.7343 17.4609 18.4649C17.7812 18.1954 18.2952 17.9883 19 17.9883ZM16 24C15.4477 24.0001 15.0001 24.4477 15 25V44C15.0001 44.5523 15.4477 44.9999 16 45H22C22.5523 44.9999 22.9999 44.5523 23 44V38.1348V25C22.9999 24.4477 22.5523 24.0001 22 24H16ZM25 24C24.4477 24.0001 24.0001 24.4477 24 25V44C24.0001 44.5523 24.4477 44.9999 25 45H31C31.5523 44.9999 31.9999 44.5523 32 44V34C32 33.1703 32.2264 32.345 32.625 31.8047C33.0236 31.2643 33.5265 30.9401 34.4824 30.957C35.4682 30.974 35.99 31.3117 36.3848 31.8418C36.7795 32.3719 37 33.1667 37 34V44C37 44.5523 37.4477 44.9999 38 45H44C44.5522 44.9999 44.9999 44.5523 45 44V33.2617C45 30.3002 44.1228 27.9543 42.6191 26.3672C41.1155 24.78 39.0242 24 36.8125 24C34.7105 24 33.1108 24.7049 32 25.4238V25C31.9999 24.4477 31.5522 24.0001 31 24H25ZM17 26H21V38.1348V43H17V26ZM26 26H30V27.5606C30.0001 27.9906 30.2751 28.3723 30.6829 28.5087C31.0907 28.6451 31.5401 28.5055 31.7988 28.1621C31.7988 28.1621 33.3692 26 36.8125 26C38.5658 26 40.0694 26.5826 41.168 27.7422C42.2666 28.9018 43 30.6883 43 33.2617V43H39V34C39 32.8333 38.7205 31.6271 37.9902 30.6465C37.26 29.6659 36.0318 28.9831 34.5176 28.957C32.9955 28.93 31.7475 29.627 31.0156 30.6191C30.2837 31.6113 30 32.8297 30 34V43H26L26 26Z" fill="url(#paint0_linear_636_360)"/>
<defs>
<linearGradient id="paint0_linear_636_360" x1="30" y1="9" x2="30" y2="51" gradientUnits="userSpaceOnUse">
<stop stop-color="#7B001E"/>
<stop offset="1" stop-color="#BF2D50"/>
</linearGradient>
</defs>
</svg>
