<svg width="227" height="86" viewBox="0 0 227 86" fill="none" xmlns="http://www.w3.org/2000/svg">
<path d="M129.447 85.808C124.733 85.808 121.142 84.3953 118.673 81.57C116.203 78.7126 114.969 74.8118 114.969 69.8675C114.969 66.5927 115.53 63.7192 116.652 61.2471C117.775 58.7749 119.41 56.8646 121.559 55.5162C123.707 54.1678 126.256 53.4935 129.207 53.4935C130.682 53.4935 132.125 53.6862 133.536 54.0714C134.979 54.4246 136.213 54.8259 137.239 55.2754C138.298 55.6928 138.827 55.9175 138.827 55.9496L138.153 59.4652C137.929 59.3368 137.384 59.096 136.518 58.7428C135.652 58.3576 134.61 57.9883 133.391 57.6352C132.205 57.282 131.083 57.1054 130.024 57.1054C128.229 57.1054 126.77 57.5068 125.647 58.3094C124.525 59.112 123.675 60.4284 123.098 62.2584C122.553 64.0884 122.28 66.5445 122.28 69.6267C122.28 74.1536 122.938 77.3802 124.252 79.3066C125.567 81.2329 127.603 82.1961 130.361 82.1961C131.9 82.1961 133.247 81.875 134.402 81.2329C135.588 80.5587 136.534 79.8363 137.239 79.0658C137.977 78.2631 138.346 77.8136 138.346 77.7173L140.462 80.0289C140.462 80.1895 140.029 80.7674 139.163 81.7626C138.33 82.7579 137.095 83.689 135.46 84.5559C133.824 85.3906 131.82 85.808 129.447 85.808Z" fill="#F5F5F5"/>
<path d="M153.554 85.808C149.962 85.808 147.189 84.7164 145.232 82.5332C143.308 80.35 142.346 77.2518 142.346 73.2386C142.346 69.2254 143.308 66.1272 145.232 63.944C147.189 61.7608 149.962 60.6692 153.554 60.6692C157.177 60.6692 159.951 61.7608 161.875 63.944C163.831 66.1272 164.809 69.2254 164.809 73.2386C164.809 77.2197 163.799 80.3179 161.779 82.5332C159.791 84.7164 157.049 85.808 153.554 85.808ZM153.554 82.6295C154.612 82.6295 155.446 82.3245 156.055 81.7145C156.696 81.1045 157.161 80.1253 157.45 78.7768C157.739 77.4284 157.883 75.5823 157.883 73.2386C157.883 70.8949 157.739 69.0488 157.45 67.7003C157.161 66.3519 156.713 65.3887 156.103 64.8108C155.494 64.2008 154.644 63.8958 153.554 63.8958C152.464 63.8958 151.614 64.2008 151.005 64.8108C150.395 65.3887 149.946 66.3519 149.658 67.7003C149.369 69.0488 149.225 70.8788 149.225 73.1904C149.225 75.5341 149.369 77.3963 149.658 78.7768C149.946 80.1253 150.395 81.1045 151.005 81.7145C151.646 82.3245 152.496 82.6295 153.554 82.6295Z" fill="#F5F5F5"/>
<path d="M175.843 85.808C173.983 85.808 172.428 85.5511 171.178 85.0374C169.927 84.4916 168.981 83.9137 168.34 83.3037C167.698 82.6937 167.378 82.3245 167.378 82.1961L169.157 79.6918C169.157 79.756 169.414 80.045 169.927 80.5587C170.44 81.0724 171.081 81.554 171.851 82.0034C172.653 82.4208 173.535 82.6295 174.497 82.6295C175.683 82.6295 176.597 82.3245 177.238 81.7145C177.88 81.1045 178.2 80.3018 178.2 79.3066C178.2 78.3434 177.864 77.5889 177.19 77.0431C176.517 76.4652 175.507 75.8713 174.16 75.2612C172.909 74.6512 171.899 74.1054 171.129 73.6238C170.392 73.1102 169.751 72.4199 169.205 71.553C168.66 70.6541 168.388 69.5143 168.388 68.1338C168.388 65.7579 169.205 63.9279 170.841 62.6437C172.476 61.3273 174.497 60.6692 176.902 60.6692C177.928 60.6692 178.954 60.7976 179.98 61.0544C181.006 61.3113 181.856 61.5681 182.529 61.825C183.203 62.0818 183.636 62.2584 183.828 62.3547L182.962 65.5814C182.802 65.485 182.433 65.2924 181.856 65.0035C181.279 64.7145 180.573 64.4416 179.74 64.1848C178.938 63.9279 178.2 63.7995 177.527 63.7995C176.533 63.7995 175.763 64.0403 175.218 64.5219C174.673 65.0035 174.4 65.6456 174.4 66.4482C174.4 67.4114 174.753 68.198 175.459 68.808C176.196 69.3859 177.302 70.012 178.777 70.6862C180.092 71.3283 181.15 71.9222 181.952 72.468C182.754 72.9817 183.443 73.6881 184.02 74.587C184.598 75.486 184.886 76.6097 184.886 77.9581C184.886 80.3018 184.101 82.1961 182.529 83.6408C180.99 85.0856 178.761 85.808 175.843 85.808Z" fill="#F5F5F5"/>
<path d="M196.719 85.808C194.442 85.808 192.758 85.2461 191.668 84.1224C190.578 82.9987 190.033 81.1045 190.033 78.4397V64.9071H187.724V62.0176L190.081 61.3434L193.159 53.2046H196.43V61.1989H201.721V64.9071H196.43V76.8023C196.43 78.3113 196.494 79.4671 196.622 80.2697C196.783 81.0403 197.023 81.5861 197.344 81.9071C197.665 82.1961 198.114 82.3406 198.691 82.3406C199.332 82.3406 199.909 82.2763 200.422 82.1479C200.936 82.0195 201.192 81.9392 201.192 81.9071L201.577 84.6522C201.577 84.6843 201.4 84.7966 201.048 84.9893C200.695 85.1819 200.15 85.3585 199.412 85.519C198.707 85.7117 197.809 85.808 196.719 85.808Z" fill="#F5F5F5"/>
<path d="M211.944 85.808C209.7 85.808 207.904 85.2461 206.557 84.1224C205.21 82.9987 204.537 81.4576 204.537 79.4992C204.537 76.6739 205.852 74.6352 208.481 73.3831C211.143 72.0988 214.237 71.3122 217.765 71.0233V69.6267C217.765 67.4435 217.46 65.9506 216.851 65.1479C216.241 64.3132 215.215 63.8958 213.772 63.8958C213.099 63.8958 212.329 64.0242 211.463 64.2811C210.63 64.5379 209.892 64.8108 209.251 65.0998C208.642 65.3887 208.241 65.5814 208.048 65.6777L207.423 62.5955C207.615 62.4992 208.064 62.3066 208.77 62.0176C209.507 61.6966 210.421 61.3916 211.512 61.1026C212.634 60.8137 213.756 60.6692 214.879 60.6692C217.893 60.6692 220.186 61.3113 221.757 62.5955C223.36 63.8476 224.162 66.0148 224.162 69.0969V80.0289C224.162 81.7306 224.499 82.5814 225.172 82.5814C225.429 82.5814 225.733 82.5332 226.086 82.4369C226.439 82.3406 226.679 82.2763 226.808 82.2442L227 84.7485C226.84 84.8127 226.455 84.9251 225.846 85.0856C225.236 85.2461 224.531 85.4067 223.729 85.5672C222.96 85.7277 222.27 85.808 221.661 85.808C220.731 85.808 220.009 85.5832 219.496 85.1338C218.983 84.6522 218.646 83.8816 218.486 82.8221H218.246C218.246 82.9185 218.021 83.2235 217.572 83.7372C217.155 84.2187 216.482 84.6843 215.552 85.1338C214.622 85.5832 213.42 85.808 211.944 85.808ZM214.061 82.5814C214.83 82.5814 215.488 82.3887 216.033 82.0034C216.61 81.6182 217.043 81.2008 217.332 80.7513C217.62 80.2697 217.765 79.9968 217.765 79.9326V73.5757C215.616 73.8004 213.981 74.3141 212.858 75.1168C211.768 75.8873 211.223 77.0752 211.223 78.6805C211.223 79.9647 211.479 80.944 211.993 81.6182C212.506 82.2603 213.195 82.5814 214.061 82.5814Z" fill="#F5F5F5"/>
<path d="M16.731 37.1196V5.81648H23.6094L36.7409 27.0544H36.8371L36.5004 24.8873V5.81648H40.6371V37.1196H35.4422L20.5791 13.6182H20.4829L20.8677 16.4114V37.1196H16.731Z" fill="#F5F5F5"/>
<path d="M50.4673 9.42837C49.5053 9.42837 48.6555 9.10732 47.918 8.4652C47.1804 7.72677 46.8117 6.81176 46.8117 5.72016C46.8117 4.66067 47.1804 3.76171 47.918 3.02328C48.5914 2.38116 49.4412 2.06011 50.4673 2.06011C51.4614 2.06011 52.2791 2.36511 52.9205 2.97512C53.6259 3.71355 53.9787 4.62856 53.9787 5.72016C53.9787 6.84386 53.6259 7.77493 52.9205 8.51336C52.215 9.12337 51.3973 9.42837 50.4673 9.42837ZM47.2446 37.1196V13.0403H53.642V37.1196H47.2446Z" fill="#F5F5F5"/>
<path d="M69.3675 37.6493C65.6798 37.6493 62.8419 36.5898 60.8537 34.4709C58.8976 32.3519 57.9195 29.2697 57.9195 25.2244C57.9195 21.3075 58.9457 18.2093 60.998 15.9298C63.0503 13.6503 65.8882 12.5105 69.5118 12.5105C70.5059 12.5105 71.516 12.655 72.5422 12.944C73.6004 13.2008 74.4822 13.4898 75.1877 13.8108C75.8932 14.0998 76.3421 14.2924 76.5345 14.3887L75.9092 17.4709C75.7489 17.3745 75.348 17.198 74.7067 16.9411C74.0654 16.6522 73.3278 16.3793 72.4941 16.1224C71.6603 15.8656 70.9067 15.7372 70.2333 15.7372C69.0148 15.7372 68.0207 15.994 67.2511 16.5077C66.4815 17.0214 65.8882 17.9685 65.4714 19.3491C65.0545 20.6975 64.8461 22.6238 64.8461 25.1281C64.8461 28.6918 65.295 31.1319 66.1929 32.4482C67.0908 33.7645 68.3734 34.4227 70.0409 34.4227C71.1633 34.4227 72.1253 34.1819 72.927 33.7003C73.7607 33.1866 74.4021 32.6569 74.851 32.1111C75.3 31.5332 75.5244 31.1961 75.5244 31.0998L77.7852 32.5445C77.7852 32.7371 77.4966 33.2669 76.9193 34.1337C76.3421 34.9685 75.4282 35.7711 74.1776 36.5417C72.927 37.2801 71.3236 37.6493 69.3675 37.6493Z" fill="#F5F5F5"/>
<path d="M90.5939 37.6493C87.0023 37.6493 84.2285 36.5577 82.2724 34.3745C80.3484 32.1914 79.3864 29.0931 79.3864 25.0799C79.3864 21.0667 80.3484 17.9685 82.2724 15.7853C84.2285 13.6021 87.0023 12.5105 90.5939 12.5105C94.2175 12.5105 96.9913 13.6021 98.9153 15.7853C100.871 17.9685 101.849 21.0667 101.849 25.0799C101.849 29.061 100.839 32.1592 98.8191 34.3745C96.8309 36.5577 94.0892 37.6493 90.5939 37.6493ZM90.5939 34.4709C91.6521 34.4709 92.4858 34.1659 93.0951 33.5558C93.7364 32.9458 94.2014 31.9666 94.49 30.6182C94.7786 29.2697 94.9229 27.4236 94.9229 25.0799C94.9229 22.7362 94.7786 20.8901 94.49 19.5417C94.2014 18.1932 93.7525 17.2301 93.1432 16.6522C92.5339 16.0422 91.6841 15.7372 90.5939 15.7372C89.5036 15.7372 88.6538 16.0422 88.0445 16.6522C87.4352 17.2301 86.9863 18.1932 86.6977 19.5417C86.4091 20.8901 86.2648 22.7202 86.2648 25.0318C86.2648 27.3755 86.4091 29.2376 86.6977 30.6182C86.9863 31.9666 87.4352 32.9458 88.0445 33.5558C88.6859 34.1659 89.5356 34.4709 90.5939 34.4709Z" fill="#F5F5F5"/>
<path d="M106.149 37.1196V1.19325L112.547 0.807983V37.1196H106.149Z" fill="#F5F5F5"/>
<path d="M128.127 37.6493C124.567 37.6493 121.793 36.6701 119.805 34.7117C117.849 32.7211 116.871 29.655 116.871 25.5134C116.871 21.3396 117.833 18.1451 119.757 15.9298C121.681 13.6824 124.279 12.5587 127.55 12.5587C130.532 12.5587 132.841 13.5058 134.476 15.4C136.144 17.2622 136.977 19.943 136.977 23.4425C136.977 24.2452 136.913 24.9194 136.785 25.4652C136.689 26.011 136.625 26.3481 136.592 26.4765H123.653C123.685 29.366 124.102 31.4208 124.904 32.6408C125.738 33.8287 127.069 34.4227 128.896 34.4227C129.987 34.4227 130.949 34.198 131.782 33.7485C132.616 33.2669 133.274 32.7532 133.755 32.2074C134.236 31.6295 134.476 31.3084 134.476 31.2442L136.641 32.9298C136.641 33.0582 136.304 33.5237 135.63 34.3264C134.989 35.129 134.027 35.8835 132.744 36.5898C131.494 37.2962 129.955 37.6493 128.127 37.6493ZM131.013 23.3462V22.2386C131.013 19.7985 130.756 18.0969 130.243 17.1338C129.73 16.1385 128.832 15.6408 127.55 15.6408C126.652 15.6408 125.93 15.8656 125.385 16.3151C124.872 16.7645 124.471 17.5511 124.182 18.6748C123.894 19.7664 123.717 21.3236 123.653 23.3462H131.013Z" fill="#F5F5F5"/>
<path d="M10.0209 22.6275C10.0209 24.5976 8.42572 26.1948 6.4579 26.1948C4.49009 26.1948 2.89486 24.5976 2.89486 22.6275C2.89486 20.6573 4.49009 19.0601 6.4579 19.0601C8.42572 19.0601 10.0209 20.6573 10.0209 22.6275Z" fill="#BF2D50"/>
<path d="M7.12609 22.6275C7.12609 24.5976 5.53086 26.1948 3.56305 26.1948C1.59523 26.1948 0 24.5976 0 22.6275C0 20.6573 1.59523 19.0601 3.56305 19.0601C5.53086 19.0601 7.12609 20.6573 7.12609 22.6275Z" fill="#7B001E"/>
</svg>
