<svg width="243" height="72" viewBox="0 0 243 72" fill="none" xmlns="http://www.w3.org/2000/svg">
<path d="M0.544001 6.2H14.872C20.2 6.2 24.328 7.544 27.256 10.232C30.232 12.872 31.72 16.808 31.72 22.04C31.72 25.784 30.904 28.88 29.272 31.328C27.64 33.776 25.552 35.576 23.008 36.728C20.464 37.832 17.824 38.384 15.088 38.384H10.48V53H0.544001V6.2ZM13.936 33.776C16.336 33.776 18.112 32.96 19.264 31.328C20.416 29.648 20.992 26.696 20.992 22.472C20.992 18.2 20.416 15.2 19.264 13.472C18.112 11.744 16.336 10.88 13.936 10.88H10.48V33.776H13.936ZM37.7106 17H44.4786L46.0626 23.048H46.3506C46.3506 22.76 46.5426 22.064 46.9266 20.96C47.3106 19.808 48.0066 18.728 49.0146 17.72C50.0706 16.712 51.4626 16.208 53.1906 16.208C54.1506 16.208 55.2306 16.352 56.4306 16.64C57.6786 16.928 58.4946 17.12 58.8786 17.216L58.0146 23.912C57.6306 23.816 56.7666 23.624 55.4226 23.336C54.1266 23.048 52.9986 22.904 52.0386 22.904C50.9346 22.904 50.0226 23.24 49.3026 23.912C48.6306 24.536 48.1266 25.208 47.7906 25.928C47.4546 26.648 47.2866 27.08 47.2866 27.224V53H37.7106V17ZM77.8484 53.792C72.4724 53.792 68.3204 52.16 65.3924 48.896C62.5124 45.632 61.0724 41 61.0724 35C61.0724 29 62.5124 24.368 65.3924 21.104C68.3204 17.84 72.4724 16.208 77.8484 16.208C83.2724 16.208 87.4244 17.84 90.3044 21.104C93.2324 24.368 94.6964 29 94.6964 35C94.6964 40.952 93.1844 45.584 90.1604 48.896C87.1844 52.16 83.0804 53.792 77.8484 53.792ZM77.8484 49.04C79.4324 49.04 80.6804 48.584 81.5924 47.672C82.5524 46.76 83.2484 45.296 83.6804 43.28C84.1124 41.264 84.3284 38.504 84.3284 35C84.3284 31.496 84.1124 28.736 83.6804 26.72C83.2484 24.704 82.5764 23.264 81.6644 22.4C80.7524 21.488 79.4804 21.032 77.8484 21.032C76.2164 21.032 74.9444 21.488 74.0324 22.4C73.1204 23.264 72.4484 24.704 72.0164 26.72C71.5844 28.736 71.3684 31.472 71.3684 34.928C71.3684 38.432 71.5844 41.216 72.0164 43.28C72.4484 45.296 73.1204 46.76 74.0324 47.672C74.9924 48.584 76.2644 49.04 77.8484 49.04ZM107.901 11.6C106.461 11.6 105.189 11.12 104.085 10.16C102.981 9.056 102.429 7.688 102.429 6.056C102.429 4.472 102.981 3.128 104.085 2.024C105.093 1.064 106.365 0.583997 107.901 0.583997C109.389 0.583997 110.613 1.04 111.573 1.952C112.629 3.056 113.157 4.424 113.157 6.056C113.157 7.736 112.629 9.128 111.573 10.232C110.517 11.144 109.293 11.6 107.901 11.6ZM99.9085 71.792C98.5165 71.792 97.3405 71.624 96.3805 71.288C95.3725 71 94.6045 70.664 94.0765 70.28C93.5005 69.896 93.2125 69.68 93.2125 69.632L94.7965 65.312C94.8925 65.36 95.1325 65.504 95.5165 65.744C95.8525 65.984 96.3085 66.2 96.8845 66.392C97.4605 66.584 98.0365 66.68 98.6125 66.68C100.149 66.68 101.253 65.816 101.925 64.088C102.645 62.408 103.005 59.408 103.005 55.088V17H112.581V55.088C112.581 60.896 111.429 65.12 109.125 67.76C106.869 70.448 103.797 71.792 99.9085 71.792ZM135.928 53.792C130.6 53.792 126.448 52.328 123.472 49.4C120.544 46.424 119.08 41.84 119.08 35.648C119.08 29.408 120.52 24.632 123.4 21.32C126.28 17.96 130.168 16.28 135.064 16.28C139.528 16.28 142.984 17.696 145.432 20.528C147.928 23.312 149.176 27.32 149.176 32.552C149.176 33.752 149.08 34.76 148.888 35.576C148.744 36.392 148.648 36.896 148.6 37.088H129.232C129.28 41.408 129.904 44.48 131.104 46.304C132.352 48.08 134.344 48.968 137.08 48.968C138.712 48.968 140.152 48.632 141.4 47.96C142.648 47.24 143.632 46.472 144.352 45.656C145.072 44.792 145.432 44.312 145.432 44.216L148.672 46.736C148.672 46.928 148.168 47.624 147.16 48.824C146.2 50.024 144.76 51.152 142.84 52.208C140.968 53.264 138.664 53.792 135.928 53.792ZM140.248 32.408V30.752C140.248 27.104 139.864 24.56 139.096 23.12C138.328 21.632 136.984 20.888 135.064 20.888C133.72 20.888 132.64 21.224 131.824 21.896C131.056 22.568 130.456 23.744 130.024 25.424C129.592 27.056 129.328 29.384 129.232 32.408H140.248ZM166.718 53.792C163.31 53.792 160.79 52.952 159.158 51.272C157.526 49.592 156.71 46.76 156.71 42.776V22.544H153.254V18.224L156.782 17.216L161.39 5.048H166.286V17H174.206V22.544H166.286V40.328C166.286 42.584 166.382 44.312 166.574 45.512C166.814 46.664 167.174 47.48 167.654 47.96C168.134 48.392 168.806 48.608 169.67 48.608C170.63 48.608 171.494 48.512 172.262 48.32C173.03 48.128 173.414 48.008 173.414 47.96L173.99 52.064C173.99 52.112 173.726 52.28 173.198 52.568C172.67 52.856 171.854 53.12 170.75 53.36C169.694 53.648 168.35 53.792 166.718 53.792ZM195.341 53.792C189.965 53.792 185.813 52.16 182.885 48.896C180.005 45.632 178.565 41 178.565 35C178.565 29 180.005 24.368 182.885 21.104C185.813 17.84 189.965 16.208 195.341 16.208C200.765 16.208 204.917 17.84 207.797 21.104C210.725 24.368 212.189 29 212.189 35C212.189 40.952 210.677 45.584 207.653 48.896C204.677 52.16 200.573 53.792 195.341 53.792ZM195.341 49.04C196.925 49.04 198.173 48.584 199.085 47.672C200.045 46.76 200.741 45.296 201.173 43.28C201.605 41.264 201.821 38.504 201.821 35C201.821 31.496 201.605 28.736 201.173 26.72C200.741 24.704 200.069 23.264 199.157 22.4C198.245 21.488 196.973 21.032 195.341 21.032C193.709 21.032 192.437 21.488 191.525 22.4C190.613 23.264 189.941 24.704 189.509 26.72C189.077 28.736 188.861 31.472 188.861 34.928C188.861 38.432 189.077 41.216 189.509 43.28C189.941 45.296 190.613 46.76 191.525 47.672C192.485 48.584 193.757 49.04 195.341 49.04ZM228.705 53.792C225.921 53.792 223.593 53.408 221.721 52.64C219.849 51.824 218.433 50.96 217.473 50.048C216.513 49.136 216.033 48.584 216.033 48.392L218.697 44.648C218.697 44.744 219.081 45.176 219.849 45.944C220.617 46.712 221.577 47.432 222.729 48.104C223.929 48.728 225.249 49.04 226.689 49.04C228.465 49.04 229.833 48.584 230.793 47.672C231.753 46.76 232.233 45.56 232.233 44.072C232.233 42.632 231.729 41.504 230.721 40.688C229.713 39.824 228.201 38.936 226.185 38.024C224.313 37.112 222.801 36.296 221.649 35.576C220.545 34.808 219.585 33.776 218.769 32.48C217.953 31.136 217.545 29.432 217.545 27.368C217.545 23.816 218.769 21.08 221.217 19.16C223.665 17.192 226.689 16.208 230.289 16.208C231.825 16.208 233.361 16.4 234.897 16.784C236.433 17.168 237.705 17.552 238.713 17.936C239.721 18.32 240.369 18.584 240.657 18.728L239.361 23.552C239.121 23.408 238.569 23.12 237.705 22.688C236.841 22.256 235.785 21.848 234.537 21.464C233.337 21.08 232.233 20.888 231.225 20.888C229.737 20.888 228.585 21.248 227.769 21.968C226.953 22.688 226.545 23.648 226.545 24.848C226.545 26.288 227.073 27.464 228.129 28.376C229.233 29.24 230.889 30.176 233.097 31.184C235.065 32.144 236.649 33.032 237.849 33.848C239.049 34.616 240.081 35.672 240.945 37.016C241.809 38.36 242.241 40.04 242.241 42.056C242.241 45.56 241.065 48.392 238.713 50.552C236.409 52.712 233.073 53.792 228.705 53.792Z" fill="url(#paint0_linear_614_71)"/>
<defs>
<linearGradient id="paint0_linear_614_71" x1="127" y1="0" x2="127" y2="53" gradientUnits="userSpaceOnUse">
<stop stop-color="#7B001E"/>
<stop offset="1" stop-color="#BF2D50"/>
</linearGradient>
</defs>
</svg>
