<svg width="312" height="57" viewBox="0 0 312 57" fill="none" xmlns="http://www.w3.org/2000/svg">
<path d="M14.416 55.792C11.248 55.792 8.608 55.384 6.496 54.568C4.384 53.704 2.8 52.792 1.744 51.832C0.736 50.872 0.232 50.296 0.232 50.104L2.968 45.928C2.968 46.024 3.424 46.48 4.336 47.296C5.296 48.064 6.568 48.784 8.152 49.456C9.784 50.128 11.656 50.464 13.768 50.464C16.024 50.464 17.776 49.864 19.024 48.664C20.272 47.464 20.896 45.88 20.896 43.912C20.896 42.664 20.56 41.584 19.888 40.672C19.216 39.712 18.376 38.92 17.368 38.296C16.408 37.624 15.04 36.784 13.264 35.776C10.96 34.576 9.064 33.424 7.576 32.32C6.088 31.216 4.816 29.776 3.76 28C2.704 26.224 2.176 24.04 2.176 21.448C2.176 18.616 2.824 16.144 4.12 14.032C5.416 11.92 7.216 10.312 9.52 9.208C11.824 8.056 14.44 7.48 17.368 7.48C19.288 7.48 21.088 7.72 22.768 8.2C24.496 8.68 25.936 9.232 27.088 9.856C28.288 10.432 28.888 10.744 28.888 10.792L27.736 15.688C27.496 15.544 26.896 15.232 25.936 14.752C25.024 14.224 23.848 13.72 22.408 13.24C20.968 12.76 19.504 12.52 18.016 12.52C16.192 12.52 14.728 13.048 13.624 14.104C12.52 15.112 11.968 16.528 11.968 18.352C11.968 20.368 12.616 21.976 13.912 23.176C15.208 24.376 17.2 25.696 19.888 27.136C22.288 28.432 24.208 29.608 25.648 30.664C27.088 31.72 28.312 33.16 29.32 34.984C30.376 36.76 30.904 38.992 30.904 41.68C30.904 44.608 30.16 47.128 28.672 49.24C27.232 51.352 25.264 52.984 22.768 54.136C20.272 55.24 17.488 55.792 14.416 55.792ZM52.3015 55.792C46.9255 55.792 42.7735 54.16 39.8455 50.896C36.9655 47.632 35.5255 43 35.5255 37C35.5255 31 36.9655 26.368 39.8455 23.104C42.7735 19.84 46.9255 18.208 52.3015 18.208C57.7255 18.208 61.8775 19.84 64.7575 23.104C67.6855 26.368 69.1495 31 69.1495 37C69.1495 42.952 67.6375 47.584 64.6135 50.896C61.6375 54.16 57.5335 55.792 52.3015 55.792ZM52.3015 51.04C53.8855 51.04 55.1335 50.584 56.0455 49.672C57.0055 48.76 57.7015 47.296 58.1335 45.28C58.5655 43.264 58.7815 40.504 58.7815 37C58.7815 33.496 58.5655 30.736 58.1335 28.72C57.7015 26.704 57.0295 25.264 56.1175 24.4C55.2055 23.488 53.9335 23.032 52.3015 23.032C50.6695 23.032 49.3975 23.488 48.4855 24.4C47.5735 25.264 46.9015 26.704 46.4695 28.72C46.0375 30.736 45.8215 33.472 45.8215 36.928C45.8215 40.432 46.0375 43.216 46.4695 45.28C46.9015 47.296 47.5735 48.76 48.4855 49.672C49.4455 50.584 50.7175 51.04 52.3015 51.04ZM93.3696 56.08C91.4496 56.08 89.7696 55.816 88.3296 55.288C86.9376 54.76 85.8336 54.208 85.0176 53.632C84.2496 53.008 83.8656 52.648 83.8656 52.552H83.7216L82.1376 55H75.5856V1.288L85.1616 0.711999V21.376H85.4496C85.4496 21.28 85.7616 20.944 86.3856 20.368C87.0096 19.744 87.9696 19.192 89.2656 18.712C90.5616 18.184 92.1696 17.92 94.0896 17.92C96.9216 17.92 99.4176 18.688 101.578 20.224C103.738 21.76 105.418 23.92 106.618 26.704C107.818 29.488 108.418 32.68 108.418 36.28C108.418 42.232 107.074 47.032 104.386 50.68C101.746 54.28 98.0736 56.08 93.3696 56.08ZM90.8496 50.608C93.4896 50.608 95.3616 49.552 96.4656 47.44C97.5696 45.28 98.1216 41.632 98.1216 36.496C98.1216 33.184 97.8816 30.592 97.4016 28.72C96.9696 26.848 96.2496 25.528 95.2416 24.76C94.2336 23.944 92.8896 23.536 91.2096 23.536C89.9616 23.536 88.8816 23.824 87.9696 24.4C87.0576 24.928 86.3616 25.528 85.8816 26.2C85.4016 26.824 85.1616 27.184 85.1616 27.28V47.944C85.1616 48.04 85.3776 48.328 85.8096 48.808C86.2416 49.24 86.8656 49.648 87.6816 50.032C88.5456 50.416 89.6016 50.608 90.8496 50.608ZM114.82 19H121.588L123.172 25.048H123.46C123.46 24.76 123.652 24.064 124.036 22.96C124.42 21.808 125.116 20.728 126.124 19.72C127.18 18.712 128.572 18.208 130.3 18.208C131.26 18.208 132.34 18.352 133.54 18.64C134.788 18.928 135.604 19.12 135.988 19.216L135.124 25.912C134.74 25.816 133.876 25.624 132.532 25.336C131.236 25.048 130.108 24.904 129.148 24.904C128.044 24.904 127.132 25.24 126.412 25.912C125.74 26.536 125.236 27.208 124.9 27.928C124.564 28.648 124.396 29.08 124.396 29.224V55H114.82V19ZM153.975 55.792C148.647 55.792 144.495 54.328 141.519 51.4C138.591 48.424 137.127 43.84 137.127 37.648C137.127 31.408 138.567 26.632 141.447 23.32C144.327 19.96 148.215 18.28 153.111 18.28C157.575 18.28 161.031 19.696 163.479 22.528C165.975 25.312 167.223 29.32 167.223 34.552C167.223 35.752 167.127 36.76 166.935 37.576C166.791 38.392 166.695 38.896 166.647 39.088H147.279C147.327 43.408 147.951 46.48 149.151 48.304C150.399 50.08 152.391 50.968 155.127 50.968C156.759 50.968 158.199 50.632 159.447 49.96C160.695 49.24 161.679 48.472 162.399 47.656C163.119 46.792 163.479 46.312 163.479 46.216L166.719 48.736C166.719 48.928 166.215 49.624 165.207 50.824C164.247 52.024 162.807 53.152 160.887 54.208C159.015 55.264 156.711 55.792 153.975 55.792ZM158.295 34.408V32.752C158.295 29.104 157.911 26.56 157.143 25.12C156.375 23.632 155.031 22.888 153.111 22.888C151.767 22.888 150.687 23.224 149.871 23.896C149.103 24.568 148.503 25.744 148.071 27.424C147.639 29.056 147.375 31.384 147.279 34.408H158.295ZM191.812 19H199.516L200.74 22.24H200.956C200.956 22.144 201.388 21.76 202.252 21.088C203.116 20.368 204.244 19.72 205.636 19.144C207.076 18.568 208.684 18.28 210.46 18.28C212.428 18.28 214.06 18.592 215.356 19.216C216.652 19.84 217.66 20.8 218.38 22.096C219.196 21.424 219.892 20.896 220.468 20.512C221.092 20.08 222.124 19.6 223.564 19.072C225.052 18.544 226.732 18.28 228.604 18.28C232.012 18.28 234.46 19.192 235.948 21.016C237.436 22.792 238.18 25.744 238.18 29.872V55H228.604V30.592C228.604 28 228.292 26.296 227.668 25.48C227.092 24.616 226.132 24.184 224.788 24.184C223.588 24.184 222.556 24.496 221.692 25.12C220.828 25.696 220.156 26.296 219.676 26.92C219.772 28.072 219.82 29.008 219.82 29.728V55H210.244V30.592C210.244 28.048 209.932 26.344 209.308 25.48C208.732 24.616 207.796 24.184 206.5 24.184C205.252 24.184 204.172 24.496 203.26 25.12C202.348 25.744 201.724 26.296 201.388 26.776V55H191.812V19ZM251.339 13.6C249.899 13.6 248.627 13.12 247.523 12.16C246.419 11.056 245.867 9.688 245.867 8.056C245.867 6.472 246.419 5.128 247.523 4.024C248.531 3.064 249.803 2.584 251.339 2.584C252.827 2.584 254.051 3.04 255.011 3.952C256.067 5.056 256.595 6.424 256.595 8.056C256.595 9.736 256.067 11.128 255.011 12.232C253.955 13.144 252.731 13.6 251.339 13.6ZM246.515 55V19H256.091V55H246.515ZM264.726 19H272.43L273.654 22.24H273.87C273.87 22.144 274.302 21.76 275.166 21.088C276.03 20.368 277.158 19.72 278.55 19.144C279.99 18.568 281.598 18.28 283.374 18.28C285.342 18.28 286.974 18.592 288.27 19.216C289.566 19.84 290.574 20.8 291.294 22.096C292.11 21.424 292.806 20.896 293.382 20.512C294.006 20.08 295.038 19.6 296.478 19.072C297.966 18.544 299.646 18.28 301.518 18.28C304.926 18.28 307.374 19.192 308.862 21.016C310.35 22.792 311.094 25.744 311.094 29.872V55H301.518V30.592C301.518 28 301.206 26.296 300.582 25.48C300.006 24.616 299.046 24.184 297.702 24.184C296.502 24.184 295.47 24.496 294.606 25.12C293.742 25.696 293.07 26.296 292.59 26.92C292.686 28.072 292.734 29.008 292.734 29.728V55H283.158V30.592C283.158 28.048 282.846 26.344 282.222 25.48C281.646 24.616 280.71 24.184 279.414 24.184C278.166 24.184 277.086 24.496 276.174 25.12C275.262 25.744 274.638 26.296 274.302 26.776V55H264.726V19Z" fill="url(#paint0_linear_614_74)"/>
<defs>
<linearGradient id="paint0_linear_614_74" x1="160" y1="2" x2="160" y2="55" gradientUnits="userSpaceOnUse">
<stop stop-color="#7B001E"/>
<stop offset="1" stop-color="#BF2D50"/>
</linearGradient>
</defs>
</svg>
