<svg width="60" height="60" viewBox="0 0 60 60" fill="none" xmlns="http://www.w3.org/2000/svg">
<rect width="60" height="60" rx="5" fill="black"/>
<path d="M51.9988 40.1692V46.2353C52.001 46.7984 51.8863 47.3559 51.6619 47.8718C51.4375 48.3878 51.1084 48.851 50.6957 49.2317C50.2829 49.6124 49.7957 49.9022 49.2651 50.0827C48.7344 50.2631 48.1722 50.3301 47.6144 50.2794C41.4256 49.6033 35.4809 47.4771 30.2578 44.0717C25.3984 40.9672 21.2785 36.825 18.1907 31.9394C14.7917 26.6643 12.6765 20.6584 12.0163 14.4083C11.9661 13.8491 12.0322 13.2855 12.2104 12.7535C12.3886 12.2214 12.6751 11.7325 13.0516 11.3178C13.4281 10.9031 13.8863 10.5718 14.3972 10.345C14.908 10.1182 15.4602 10.0007 16.0186 10.0002H22.0522C23.0282 9.99054 23.9744 10.338 24.7145 10.9779C25.4545 11.6178 25.9379 12.5064 26.0745 13.4781C26.3292 15.4194 26.8015 17.3255 27.4824 19.1601C27.753 19.8838 27.8115 20.6704 27.6511 21.4265C27.4907 22.1827 27.1181 22.8768 26.5773 23.4266L24.0231 25.9946C26.8862 31.0569 31.0552 35.2484 36.0903 38.1269L38.6445 35.5589C39.1913 35.0152 39.8817 34.6406 40.6338 34.4793C41.3859 34.318 42.1682 34.3769 42.8881 34.649C44.7128 35.3335 46.6086 35.8084 48.5395 36.0644C49.5165 36.203 50.4087 36.6977 51.0465 37.4545C51.6843 38.2114 52.0232 39.1775 51.9988 40.1692Z" stroke="url(#paint0_linear_718_8)" stroke-width="2" stroke-linecap="round" stroke-linejoin="round"/>
<defs>
<linearGradient id="paint0_linear_718_8" x1="32" y1="10" x2="32" y2="50.2958" gradientUnits="userSpaceOnUse">
<stop stop-color="#7B001E"/>
<stop offset="1" stop-color="#BF2D50"/>
</linearGradient>
</defs>
</svg>
