<svg width="108" height="27" viewBox="0 0 108 27" fill="none" xmlns="http://www.w3.org/2000/svg">
<rect width="108" height="27" rx="5" fill="url(#paint0_linear_807_2)"/>
<path d="M19 5.35107C16.9118 5.35107 14.8235 6.1455 13.2344 7.73456C10.0563 10.9127 10.0563 16.0877 13.2344 19.2658C14.8235 20.8549 16.9188 21.6564 19 21.6564C21.0813 21.6564 23.1766 20.8549 24.7657 19.2658C27.9438 16.0877 27.9438 10.9127 24.7657 7.73456C23.1766 6.1455 21.0883 5.35107 19 5.35107ZM19 6.18768C20.8704 6.18768 22.7408 6.90476 24.1752 8.32507C27.0158 11.1798 27.0158 15.8206 24.1752 18.6753C21.3205 21.53 16.6798 21.53 13.8392 18.6753C10.9845 15.8206 10.9843 11.1798 13.8249 8.32507C15.2593 6.90476 17.1297 6.18768 19 6.18768ZM19 10.4064C18.761 10.4064 18.5782 10.5892 18.5782 10.8283V13.0783H16.3282C16.0891 13.0783 15.9063 13.2611 15.9063 13.5002C15.9063 13.7392 16.0891 13.9221 16.3282 13.9221H18.5782V16.1721C18.5782 16.4111 18.761 16.5939 19 16.5939C19.2391 16.5939 19.4219 16.4111 19.4219 16.1721V13.9221H21.6719C21.911 13.9221 22.0938 13.7392 22.0938 13.5002C22.0938 13.2611 21.911 13.0783 21.6719 13.0783H19.4219V10.8283C19.4219 10.5892 19.2391 10.4064 19 10.4064Z" fill="#141414"/>
<path d="M45.7 8.854L42.62 18.5H41.192L38.084 8.854H39.512L41.934 17.058L44.356 8.854H45.7ZM52.3258 14.594C52.3258 14.8087 52.3165 15.028 52.2978 15.252H47.5938C47.6498 16.064 47.8552 16.6613 48.2098 17.044C48.5645 17.4267 49.0218 17.618 49.5818 17.618C49.9365 17.618 50.2632 17.5667 50.5618 17.464C50.8605 17.3613 51.1732 17.198 51.4998 16.974L52.0598 17.744C51.2758 18.36 50.4172 18.668 49.4838 18.668C48.4572 18.668 47.6545 18.332 47.0758 17.66C46.5065 16.988 46.2218 16.064 46.2218 14.888C46.2218 14.1227 46.3432 13.446 46.5858 12.858C46.8378 12.2607 47.1925 11.794 47.6498 11.458C48.1165 11.122 48.6625 10.954 49.2878 10.954C50.2678 10.954 51.0192 11.276 51.5418 11.92C52.0645 12.564 52.3258 13.4553 52.3258 14.594ZM51.0518 14.216C51.0518 13.488 50.9072 12.9327 50.6178 12.55C50.3285 12.1673 49.8945 11.976 49.3158 11.976C48.2612 11.976 47.6872 12.7507 47.5938 14.3H51.0518V14.216ZM55.6427 18.052C55.6427 18.7333 55.5587 19.2793 55.3907 19.69C55.2227 20.1007 54.9754 20.432 54.6487 20.684C54.3314 20.9453 53.8834 21.2067 53.3047 21.468L52.9267 20.53C53.2907 20.362 53.5707 20.194 53.7667 20.026C53.9627 19.8673 54.1074 19.6387 54.2007 19.34C54.3034 19.0507 54.3547 18.6493 54.3547 18.136V11.122H55.6427V18.052ZM54.9987 7.58C55.2694 7.58 55.4887 7.664 55.6567 7.832C55.8247 8 55.9087 8.21 55.9087 8.462C55.9087 8.714 55.8247 8.924 55.6567 9.092C55.4887 9.25067 55.2694 9.33 54.9987 9.33C54.7374 9.33 54.5227 9.25067 54.3547 9.092C54.1867 8.924 54.1027 8.714 54.1027 8.462C54.1027 8.21 54.1867 8 54.3547 7.832C54.5227 7.664 54.7374 7.58 54.9987 7.58ZM63.2766 16.778C63.2766 17.0767 63.3279 17.3007 63.4306 17.45C63.5332 17.59 63.6872 17.6973 63.8926 17.772L63.5986 18.668C63.2159 18.6213 62.9079 18.514 62.6746 18.346C62.4412 18.178 62.2686 17.9167 62.1566 17.562C61.6619 18.2993 60.9292 18.668 59.9586 18.668C59.2306 18.668 58.6566 18.4627 58.2366 18.052C57.8166 17.6413 57.6066 17.1047 57.6066 16.442C57.6066 15.658 57.8866 15.056 58.4466 14.636C59.0159 14.216 59.8186 14.006 60.8546 14.006H61.9886V13.46C61.9886 12.9373 61.8626 12.564 61.6106 12.34C61.3586 12.116 60.9712 12.004 60.4486 12.004C59.9072 12.004 59.2446 12.1347 58.4606 12.396L58.1386 11.458C59.0532 11.122 59.9026 10.954 60.6866 10.954C61.5546 10.954 62.2032 11.1687 62.6326 11.598C63.0619 12.018 63.2766 12.62 63.2766 13.404V16.778ZM60.2526 17.702C60.9899 17.702 61.5686 17.3193 61.9886 16.554V14.86H61.0226C59.6599 14.86 58.9786 15.364 58.9786 16.372C58.9786 16.8107 59.0859 17.142 59.3006 17.366C59.5152 17.59 59.8326 17.702 60.2526 17.702ZM78.3209 18.5H77.0329L76.6969 14.146C76.5569 12.438 76.4775 11.1267 76.4589 10.212L74.3729 17.408H73.1269L70.9289 10.198C70.9289 11.3647 70.8682 12.7133 70.7469 14.244L70.4249 18.5H69.1649L69.9629 8.854H71.7549L73.7849 15.868L75.7169 8.854H77.5229L78.3209 18.5ZM85.4934 16.778C85.4934 17.0767 85.5447 17.3007 85.6474 17.45C85.75 17.59 85.904 17.6973 86.1094 17.772L85.8154 18.668C85.4327 18.6213 85.1247 18.514 84.8914 18.346C84.658 18.178 84.4854 17.9167 84.3734 17.562C83.8787 18.2993 83.146 18.668 82.1754 18.668C81.4474 18.668 80.8734 18.4627 80.4534 18.052C80.0334 17.6413 79.8234 17.1047 79.8234 16.442C79.8234 15.658 80.1034 15.056 80.6634 14.636C81.2327 14.216 82.0354 14.006 83.0714 14.006H84.2054V13.46C84.2054 12.9373 84.0794 12.564 83.8274 12.34C83.5754 12.116 83.188 12.004 82.6654 12.004C82.124 12.004 81.4614 12.1347 80.6774 12.396L80.3554 11.458C81.27 11.122 82.1194 10.954 82.9034 10.954C83.7714 10.954 84.42 11.1687 84.8494 11.598C85.2787 12.018 85.4934 12.62 85.4934 13.404V16.778ZM82.4694 17.702C83.2067 17.702 83.7854 17.3193 84.2054 16.554V14.86H83.2394C81.8767 14.86 81.1954 15.364 81.1954 16.372C81.1954 16.8107 81.3027 17.142 81.5174 17.366C81.732 17.59 82.0494 17.702 82.4694 17.702ZM89.4266 11.122V18.5H88.1386V11.122H89.4266ZM88.7686 7.58C89.0393 7.58 89.2586 7.664 89.4266 7.832C89.5946 8 89.6786 8.21 89.6786 8.462C89.6786 8.714 89.5946 8.924 89.4266 9.092C89.2586 9.25067 89.0393 9.33 88.7686 9.33C88.5073 9.33 88.2926 9.25067 88.1246 9.092C87.9566 8.924 87.8726 8.714 87.8726 8.462C87.8726 8.21 87.9566 8 88.1246 7.832C88.2926 7.664 88.5073 7.58 88.7686 7.58ZM94.0918 10.954C94.5958 10.954 95.0484 11.024 95.4498 11.164C95.8511 11.304 96.2338 11.514 96.5978 11.794L96.0518 12.606C95.7158 12.3913 95.3938 12.2327 95.0858 12.13C94.7871 12.0273 94.4698 11.976 94.1338 11.976C93.7138 11.976 93.3824 12.0647 93.1398 12.242C92.8971 12.41 92.7758 12.6433 92.7758 12.942C92.7758 13.2407 92.8878 13.474 93.1118 13.642C93.3451 13.81 93.7604 13.9733 94.3578 14.132C95.1791 14.3373 95.7904 14.6173 96.1918 14.972C96.6024 15.3267 96.8078 15.812 96.8078 16.428C96.8078 17.156 96.5231 17.7113 95.9538 18.094C95.3938 18.4767 94.7078 18.668 93.8958 18.668C92.7758 18.668 91.8471 18.346 91.1098 17.702L91.7958 16.918C92.4211 17.394 93.1118 17.632 93.8678 17.632C94.3531 17.632 94.7358 17.534 95.0158 17.338C95.3051 17.1327 95.4498 16.8573 95.4498 16.512C95.4498 16.26 95.3984 16.0593 95.2958 15.91C95.1931 15.7513 95.0158 15.616 94.7638 15.504C94.5118 15.3827 94.1431 15.2567 93.6578 15.126C92.8738 14.9207 92.3044 14.6453 91.9498 14.3C91.6044 13.9547 91.4318 13.516 91.4318 12.984C91.4318 12.6013 91.5438 12.256 91.7678 11.948C92.0011 11.6307 92.3184 11.388 92.7198 11.22C93.1304 11.0427 93.5878 10.954 94.0918 10.954Z" fill="#141414"/>
<defs>
<linearGradient id="paint0_linear_807_2" x1="54" y1="0" x2="54" y2="27" gradientUnits="userSpaceOnUse">
<stop stop-color="#7B001E"/>
<stop offset="1" stop-color="#BF2D50"/>
</linearGradient>
</defs>
</svg>
