<svg width="120" height="36" viewBox="0 0 120 36" fill="none" xmlns="http://www.w3.org/2000/svg">
<rect opacity="0.5" width="120" height="36" rx="5" fill="#090909"/>
<path d="M30.64 25L27.18 12H30.12L32.52 21.84H32.56L35.22 12H37.44L40.18 21.78H40.24L42.5 12H44.26L40.86 25H38.5L35.78 15.4H35.74L33.04 25H30.64ZM45.6609 10.08L48.3209 9.92V15.68H48.4009C48.4009 15.6533 48.5076 15.5667 48.7209 15.42C48.9476 15.2733 49.2543 15.1333 49.6409 15C50.0276 14.8667 50.4809 14.8 51.0009 14.8C52.0409 14.8 52.8143 15.08 53.3209 15.64C53.8276 16.1867 54.0809 17.0467 54.0809 18.22V25H51.4409V18.44C51.4409 17.6667 51.3409 17.1467 51.1409 16.88C50.9409 16.6 50.5876 16.46 50.0809 16.46C49.7476 16.46 49.4476 16.5133 49.1809 16.62C48.9276 16.7267 48.7209 16.8467 48.5609 16.98C48.4009 17.1 48.3209 17.1667 48.3209 17.18V25H45.6609V10.08ZM58.8231 25.22C57.8898 25.22 57.1431 24.9867 56.5831 24.52C56.0231 24.0533 55.7431 23.4133 55.7431 22.6C55.7431 21.4267 56.2898 20.58 57.3831 20.06C58.4898 19.5267 59.7765 19.2 61.2431 19.08V18.5C61.2431 17.5933 61.1165 16.9733 60.8631 16.64C60.6098 16.2933 60.1831 16.12 59.5831 16.12C59.3031 16.12 58.9831 16.1733 58.6231 16.28C58.2765 16.3867 57.9698 16.5 57.7031 16.62C57.4498 16.74 57.2831 16.82 57.2031 16.86L56.9431 15.58C57.0231 15.54 57.2098 15.46 57.5031 15.34C57.8098 15.2067 58.1898 15.08 58.6431 14.96C59.1098 14.84 59.5765 14.78 60.0431 14.78C61.2965 14.78 62.2498 15.0467 62.9031 15.58C63.5698 16.1 63.9031 17 63.9031 18.28V22.82C63.9031 23.5267 64.0431 23.88 64.3231 23.88C64.4298 23.88 64.5565 23.86 64.7031 23.82C64.8498 23.78 64.9498 23.7533 65.0031 23.74L65.0831 24.78C65.0165 24.8067 64.8565 24.8533 64.6031 24.92C64.3498 24.9867 64.0565 25.0533 63.7231 25.12C63.4031 25.1867 63.1165 25.22 62.8631 25.22C62.4765 25.22 62.1765 25.1267 61.9631 24.94C61.7498 24.74 61.6098 24.42 61.5431 23.98H61.4431C61.4431 24.02 61.3498 24.1467 61.1631 24.36C60.9898 24.56 60.7098 24.7533 60.3231 24.94C59.9365 25.1267 59.4365 25.22 58.8231 25.22ZM59.7031 23.88C60.0231 23.88 60.2965 23.8 60.5231 23.64C60.7631 23.48 60.9431 23.3067 61.0631 23.12C61.1831 22.92 61.2431 22.8067 61.2431 22.78V20.14C60.3498 20.2333 59.6698 20.4467 59.2031 20.78C58.7498 21.1 58.5231 21.5933 58.5231 22.26C58.5231 22.7933 58.6298 23.2 58.8431 23.48C59.0565 23.7467 59.3431 23.88 59.7031 23.88ZM69.797 25.22C68.8504 25.22 68.1504 24.9867 67.697 24.52C67.2437 24.0533 67.017 23.2667 67.017 22.16V16.54H66.057V15.34L67.037 15.06L68.317 11.68H69.677V15H71.877V16.54H69.677V21.48C69.677 22.1067 69.7037 22.5867 69.757 22.92C69.8237 23.24 69.9237 23.4667 70.057 23.6C70.1904 23.72 70.377 23.78 70.617 23.78C70.8837 23.78 71.1237 23.7533 71.337 23.7C71.5504 23.6467 71.657 23.6133 71.657 23.6L71.817 24.74C71.817 24.7533 71.7437 24.8 71.597 24.88C71.4504 24.96 71.2237 25.0333 70.917 25.1C70.6237 25.18 70.2504 25.22 69.797 25.22ZM76.5078 25.22C75.7345 25.22 75.0878 25.1133 74.5678 24.9C74.0478 24.6733 73.6545 24.4333 73.3878 24.18C73.1211 23.9267 72.9878 23.7733 72.9878 23.72L73.7278 22.68C73.7278 22.7067 73.8345 22.8267 74.0478 23.04C74.2611 23.2533 74.5278 23.4533 74.8478 23.64C75.1811 23.8133 75.5478 23.9 75.9478 23.9C76.4411 23.9 76.8211 23.7733 77.0878 23.52C77.3545 23.2667 77.4878 22.9333 77.4878 22.52C77.4878 22.12 77.3478 21.8067 77.0678 21.58C76.7878 21.34 76.3678 21.0933 75.8078 20.84C75.2878 20.5867 74.8678 20.36 74.5478 20.16C74.2411 19.9467 73.9745 19.66 73.7478 19.3C73.5211 18.9267 73.4078 18.4533 73.4078 17.88C73.4078 16.8933 73.7478 16.1333 74.4278 15.6C75.1078 15.0533 75.9478 14.78 76.9478 14.78C77.3745 14.78 77.8011 14.8333 78.2278 14.94C78.6545 15.0467 79.0078 15.1533 79.2878 15.26C79.5678 15.3667 79.7478 15.44 79.8278 15.48L79.4678 16.82C79.4011 16.78 79.2478 16.7 79.0078 16.58C78.7678 16.46 78.4745 16.3467 78.1278 16.24C77.7945 16.1333 77.4878 16.08 77.2078 16.08C76.7945 16.08 76.4745 16.18 76.2478 16.38C76.0211 16.58 75.9078 16.8467 75.9078 17.18C75.9078 17.58 76.0545 17.9067 76.3478 18.16C76.6545 18.4 77.1145 18.66 77.7278 18.94C78.2745 19.2067 78.7145 19.4533 79.0478 19.68C79.3811 19.8933 79.6678 20.1867 79.9078 20.56C80.1478 20.9333 80.2678 21.4 80.2678 21.96C80.2678 22.9333 79.9411 23.72 79.2878 24.32C78.6478 24.92 77.7211 25.22 76.5078 25.22ZM84.4677 25.22C83.5343 25.22 82.7877 24.9867 82.2277 24.52C81.6677 24.0533 81.3877 23.4133 81.3877 22.6C81.3877 21.4267 81.9343 20.58 83.0277 20.06C84.1343 19.5267 85.421 19.2 86.8877 19.08V18.5C86.8877 17.5933 86.761 16.9733 86.5077 16.64C86.2543 16.2933 85.8277 16.12 85.2277 16.12C84.9477 16.12 84.6277 16.1733 84.2677 16.28C83.921 16.3867 83.6143 16.5 83.3477 16.62C83.0943 16.74 82.9277 16.82 82.8477 16.86L82.5877 15.58C82.6677 15.54 82.8543 15.46 83.1477 15.34C83.4543 15.2067 83.8343 15.08 84.2877 14.96C84.7543 14.84 85.221 14.78 85.6877 14.78C86.941 14.78 87.8943 15.0467 88.5477 15.58C89.2143 16.1 89.5477 17 89.5477 18.28V22.82C89.5477 23.5267 89.6877 23.88 89.9677 23.88C90.0743 23.88 90.201 23.86 90.3477 23.82C90.4943 23.78 90.5943 23.7533 90.6477 23.74L90.7277 24.78C90.661 24.8067 90.501 24.8533 90.2477 24.92C89.9943 24.9867 89.701 25.0533 89.3677 25.12C89.0477 25.1867 88.761 25.22 88.5077 25.22C88.121 25.22 87.821 25.1267 87.6077 24.94C87.3943 24.74 87.2543 24.42 87.1877 23.98H87.0877C87.0877 24.02 86.9943 24.1467 86.8077 24.36C86.6343 24.56 86.3543 24.7533 85.9677 24.94C85.581 25.1267 85.081 25.22 84.4677 25.22ZM85.3477 23.88C85.6677 23.88 85.941 23.8 86.1677 23.64C86.4077 23.48 86.5877 23.3067 86.7077 23.12C86.8277 22.92 86.8877 22.8067 86.8877 22.78V20.14C85.9943 20.2333 85.3143 20.4467 84.8477 20.78C84.3943 21.1 84.1677 21.5933 84.1677 22.26C84.1677 22.7933 84.2743 23.2 84.4877 23.48C84.701 23.7467 84.9877 23.88 85.3477 23.88ZM92.3016 15H94.4416L94.8016 15.9H94.8616C94.8616 15.8733 94.9749 15.7667 95.2016 15.58C95.4282 15.38 95.7416 15.2 96.1416 15.04C96.5416 14.8667 97.0216 14.78 97.5816 14.78C98.7682 14.78 99.7016 15.2333 100.382 16.14C101.062 17.0467 101.402 18.2667 101.402 19.8C101.402 20.88 101.242 21.8333 100.922 22.66C100.602 23.4733 100.142 24.1067 99.5416 24.56C98.9549 25 98.2549 25.22 97.4416 25.22C96.9216 25.22 96.4816 25.16 96.1216 25.04C95.7616 24.9333 95.4882 24.82 95.3016 24.7C95.1149 24.5667 95.0216 24.4867 95.0216 24.46H94.9616V30L92.3016 30.08V15ZM96.4416 23.7C96.9482 23.7 97.3482 23.58 97.6416 23.34C97.9482 23.1 98.1749 22.7067 98.3216 22.16C98.4682 21.6 98.5416 20.8333 98.5416 19.86C98.5416 18.94 98.4682 18.2267 98.3216 17.72C98.1882 17.2 97.9816 16.84 97.7016 16.64C97.4349 16.44 97.0816 16.34 96.6416 16.34C96.3216 16.34 96.0349 16.4 95.7816 16.52C95.5416 16.64 95.3482 16.7667 95.2016 16.9C95.0682 17.0333 94.9882 17.1333 94.9616 17.2V23.04C94.9882 23.08 95.0549 23.1533 95.1616 23.26C95.2682 23.3533 95.4282 23.4533 95.6416 23.56C95.8682 23.6533 96.1349 23.7 96.4416 23.7ZM103.2 15H105.34L105.7 15.9H105.76C105.76 15.8733 105.873 15.7667 106.1 15.58C106.327 15.38 106.64 15.2 107.04 15.04C107.44 14.8667 107.92 14.78 108.48 14.78C109.667 14.78 110.6 15.2333 111.28 16.14C111.96 17.0467 112.3 18.2667 112.3 19.8C112.3 20.88 112.14 21.8333 111.82 22.66C111.5 23.4733 111.04 24.1067 110.44 24.56C109.853 25 109.153 25.22 108.34 25.22C107.82 25.22 107.38 25.16 107.02 25.04C106.66 24.9333 106.387 24.82 106.2 24.7C106.013 24.5667 105.92 24.4867 105.92 24.46H105.86V30L103.2 30.08V15ZM107.34 23.7C107.847 23.7 108.247 23.58 108.54 23.34C108.847 23.1 109.073 22.7067 109.22 22.16C109.367 21.6 109.44 20.8333 109.44 19.86C109.44 18.94 109.367 18.2267 109.22 17.72C109.087 17.2 108.88 16.84 108.6 16.64C108.333 16.44 107.98 16.34 107.54 16.34C107.22 16.34 106.933 16.4 106.68 16.52C106.44 16.64 106.247 16.7667 106.1 16.9C105.967 17.0333 105.887 17.1333 105.86 17.2V23.04C105.887 23.08 105.953 23.1533 106.06 23.26C106.167 23.3533 106.327 23.4533 106.54 23.56C106.767 23.6533 107.033 23.7 107.34 23.7Z" fill="#F5F5F5"/>
<path fill-rule="evenodd" clip-rule="evenodd" d="M19.7562 14.2014C18.4436 12.9341 16.6979 12.236 14.8381 12.2352C11.0059 12.2352 7.88695 15.2426 7.88546 18.939C7.88492 20.1206 8.20507 21.274 8.81351 22.2907L7.82715 25.7648L11.5128 24.8325C12.5283 25.3666 13.6717 25.6481 14.8353 25.6485H14.8381C14.8379 25.6485 14.8384 25.6485 14.8381 25.6485C18.6699 25.6485 21.7891 22.6409 21.7907 18.9444C21.7914 17.153 21.0689 15.4686 19.7562 14.2014ZM14.8381 24.5163H14.8358C13.7989 24.5159 12.7818 24.2472 11.8946 23.7395L11.6836 23.6188L9.49646 24.172L10.0803 22.1157L9.94285 21.9049C9.36441 21.0177 9.05891 19.9923 9.05936 18.9394C9.0606 15.8671 11.653 13.3675 14.8404 13.3675C16.3839 13.368 17.8348 13.9484 18.9259 15.0017C20.0169 16.0549 20.6174 17.455 20.6168 18.9439C20.6155 22.0165 18.0232 24.5163 14.8381 24.5163Z" fill="url(#paint0_linear_727_19)"/>
<path fill-rule="evenodd" clip-rule="evenodd" d="M18.0079 20.3429C17.8342 20.259 16.9801 19.8538 16.8209 19.7979C16.6617 19.742 16.5458 19.714 16.43 19.8817C16.3142 20.0494 15.9813 20.4267 15.88 20.5386C15.7786 20.6503 15.6773 20.6644 15.5036 20.5804C15.3299 20.4966 14.7701 20.3197 14.1066 19.749C13.5901 19.3048 13.2415 18.7563 13.1401 18.5885C13.0388 18.4209 13.1293 18.3302 13.2163 18.2467C13.2945 18.1716 13.3901 18.051 13.4769 17.9532C13.5638 17.8554 13.5927 17.7855 13.6506 17.6737C13.7085 17.5619 13.6796 17.4641 13.6361 17.3803C13.5927 17.2964 13.2453 16.4719 13.1005 16.1364C12.9595 15.8098 12.8163 15.8541 12.7096 15.8489C12.6085 15.844 12.4925 15.843 12.3767 15.843C12.2609 15.843 12.0727 15.8849 11.9135 16.0526C11.7542 16.2203 11.3054 16.6256 11.3054 17.4501C11.3054 18.2746 11.9279 19.0712 12.0148 19.183C12.1016 19.2948 13.2398 20.9868 14.9824 21.7124C15.3969 21.885 15.7205 21.9881 15.9728 22.0653C16.3889 22.1928 16.7677 22.1748 17.067 22.1316C17.4008 22.0835 18.0948 21.7264 18.2396 21.3351C18.3843 20.9438 18.3843 20.6084 18.3409 20.5385C18.2975 20.4687 18.1816 20.4267 18.0079 20.3429Z" fill="url(#paint1_linear_727_19)"/>
<defs>
<linearGradient id="paint0_linear_727_19" x1="14.8089" y1="12.2352" x2="14.8089" y2="25.7648" gradientUnits="userSpaceOnUse">
<stop stop-color="#7B001E"/>
<stop offset="1" stop-color="#BF2D50"/>
</linearGradient>
<linearGradient id="paint1_linear_727_19" x1="14.8358" y1="15.843" x2="14.8358" y2="22.1638" gradientUnits="userSpaceOnUse">
<stop stop-color="#7B001E"/>
<stop offset="1" stop-color="#BF2D50"/>
</linearGradient>
</defs>
</svg>
