<svg width="225" height="70" viewBox="0 0 225 70" fill="none" xmlns="http://www.w3.org/2000/svg">
<rect opacity="0.5" width="225" height="70" rx="5" fill="#090909"/>
<path d="M67.824 46L62.288 25.2H66.992L70.832 40.944H70.896L75.152 25.2H78.704L83.088 40.848H83.184L86.8 25.2H89.616L84.176 46H80.4L76.048 30.64H75.984L71.664 46H67.824ZM91.8575 22.128L96.1135 21.872V31.088H96.2415C96.2415 31.0453 96.4122 30.9067 96.7535 30.672C97.1162 30.4373 97.6068 30.2133 98.2255 30C98.8442 29.7867 99.5695 29.68 100.402 29.68C102.066 29.68 103.303 30.128 104.114 31.024C104.924 31.8987 105.33 33.2747 105.33 35.152V46H101.106V35.504C101.106 34.2667 100.946 33.4347 100.626 33.008C100.306 32.56 99.7402 32.336 98.9295 32.336C98.3962 32.336 97.9162 32.4213 97.4895 32.592C97.0842 32.7627 96.7535 32.9547 96.4975 33.168C96.2415 33.36 96.1135 33.4667 96.1135 33.488V46H91.8575V22.128ZM112.917 46.352C111.424 46.352 110.229 45.9787 109.333 45.232C108.437 44.4853 107.989 43.4613 107.989 42.16C107.989 40.2827 108.864 38.928 110.613 38.096C112.384 37.2427 114.442 36.72 116.789 36.528V35.6C116.789 34.1493 116.586 33.1573 116.181 32.624C115.776 32.0693 115.093 31.792 114.133 31.792C113.685 31.792 113.173 31.8773 112.597 32.048C112.042 32.2187 111.552 32.4 111.125 32.592C110.72 32.784 110.453 32.912 110.325 32.976L109.909 30.928C110.037 30.864 110.336 30.736 110.805 30.544C111.296 30.3307 111.904 30.128 112.629 29.936C113.376 29.744 114.122 29.648 114.869 29.648C116.874 29.648 118.4 30.0747 119.445 30.928C120.512 31.76 121.045 33.2 121.045 35.248V42.512C121.045 43.6427 121.269 44.208 121.717 44.208C121.888 44.208 122.09 44.176 122.325 44.112C122.56 44.048 122.72 44.0053 122.805 43.984L122.933 45.648C122.826 45.6907 122.57 45.7653 122.165 45.872C121.76 45.9787 121.29 46.0853 120.757 46.192C120.245 46.2987 119.786 46.352 119.381 46.352C118.762 46.352 118.282 46.2027 117.941 45.904C117.6 45.584 117.376 45.072 117.269 44.368H117.109C117.109 44.432 116.96 44.6347 116.661 44.976C116.384 45.296 115.936 45.6053 115.317 45.904C114.698 46.2027 113.898 46.352 112.917 46.352ZM114.325 44.208C114.837 44.208 115.274 44.08 115.637 43.824C116.021 43.568 116.309 43.2907 116.501 42.992C116.693 42.672 116.789 42.4907 116.789 42.448V38.224C115.36 38.3733 114.272 38.7147 113.525 39.248C112.8 39.76 112.437 40.5493 112.437 41.616C112.437 42.4693 112.608 43.12 112.949 43.568C113.29 43.9947 113.749 44.208 114.325 44.208ZM130.475 46.352C128.961 46.352 127.841 45.9787 127.115 45.232C126.39 44.4853 126.027 43.2267 126.027 41.456V32.464H124.491V30.544L126.059 30.096L128.107 24.688H130.283V30H133.803V32.464H130.283V40.368C130.283 41.3707 130.326 42.1387 130.411 42.672C130.518 43.184 130.678 43.5467 130.891 43.76C131.105 43.952 131.403 44.048 131.787 44.048C132.214 44.048 132.598 44.0053 132.939 43.92C133.281 43.8347 133.451 43.7813 133.451 43.76L133.707 45.584C133.707 45.6053 133.59 45.68 133.355 45.808C133.121 45.936 132.758 46.0533 132.267 46.16C131.798 46.288 131.201 46.352 130.475 46.352ZM141.213 46.352C139.975 46.352 138.941 46.1813 138.109 45.84C137.277 45.4773 136.647 45.0933 136.221 44.688C135.794 44.2827 135.581 44.0373 135.581 43.952L136.765 42.288C136.765 42.3307 136.935 42.5227 137.277 42.864C137.618 43.2053 138.045 43.5253 138.557 43.824C139.09 44.1013 139.677 44.24 140.317 44.24C141.106 44.24 141.714 44.0373 142.141 43.632C142.567 43.2267 142.781 42.6933 142.781 42.032C142.781 41.392 142.557 40.8907 142.109 40.528C141.661 40.144 140.989 39.7493 140.093 39.344C139.261 38.9387 138.589 38.576 138.077 38.256C137.586 37.9147 137.159 37.456 136.797 36.88C136.434 36.2827 136.253 35.5253 136.253 34.608C136.253 33.0293 136.797 31.8133 137.885 30.96C138.973 30.0853 140.317 29.648 141.917 29.648C142.599 29.648 143.282 29.7333 143.965 29.904C144.647 30.0747 145.213 30.2453 145.661 30.416C146.109 30.5867 146.397 30.704 146.525 30.768L145.949 32.912C145.842 32.848 145.597 32.72 145.213 32.528C144.829 32.336 144.359 32.1547 143.805 31.984C143.271 31.8133 142.781 31.728 142.333 31.728C141.671 31.728 141.159 31.888 140.797 32.208C140.434 32.528 140.253 32.9547 140.253 33.488C140.253 34.128 140.487 34.6507 140.957 35.056C141.447 35.44 142.183 35.856 143.165 36.304C144.039 36.7307 144.743 37.1253 145.277 37.488C145.81 37.8293 146.269 38.2987 146.653 38.896C147.037 39.4933 147.229 40.24 147.229 41.136C147.229 42.6933 146.706 43.952 145.661 44.912C144.637 45.872 143.154 46.352 141.213 46.352ZM153.948 46.352C152.455 46.352 151.26 45.9787 150.364 45.232C149.468 44.4853 149.02 43.4613 149.02 42.16C149.02 40.2827 149.895 38.928 151.644 38.096C153.415 37.2427 155.474 36.72 157.82 36.528V35.6C157.82 34.1493 157.618 33.1573 157.212 32.624C156.807 32.0693 156.124 31.792 155.164 31.792C154.716 31.792 154.204 31.8773 153.628 32.048C153.074 32.2187 152.583 32.4 152.156 32.592C151.751 32.784 151.484 32.912 151.356 32.976L150.94 30.928C151.068 30.864 151.367 30.736 151.836 30.544C152.327 30.3307 152.935 30.128 153.66 29.936C154.407 29.744 155.154 29.648 155.9 29.648C157.906 29.648 159.431 30.0747 160.476 30.928C161.543 31.76 162.076 33.2 162.076 35.248V42.512C162.076 43.6427 162.3 44.208 162.748 44.208C162.919 44.208 163.122 44.176 163.356 44.112C163.591 44.048 163.751 44.0053 163.836 43.984L163.964 45.648C163.858 45.6907 163.602 45.7653 163.196 45.872C162.791 45.9787 162.322 46.0853 161.788 46.192C161.276 46.2987 160.818 46.352 160.412 46.352C159.794 46.352 159.314 46.2027 158.972 45.904C158.631 45.584 158.407 45.072 158.3 44.368H158.14C158.14 44.432 157.991 44.6347 157.692 44.976C157.415 45.296 156.967 45.6053 156.348 45.904C155.73 46.2027 154.93 46.352 153.948 46.352ZM155.356 44.208C155.868 44.208 156.306 44.08 156.668 43.824C157.052 43.568 157.34 43.2907 157.532 42.992C157.724 42.672 157.82 42.4907 157.82 42.448V38.224C156.391 38.3733 155.303 38.7147 154.556 39.248C153.831 39.76 153.468 40.5493 153.468 41.616C153.468 42.4693 153.639 43.12 153.98 43.568C154.322 43.9947 154.78 44.208 155.356 44.208ZM166.483 30H169.907L170.483 31.44H170.579C170.579 31.3973 170.76 31.2267 171.123 30.928C171.485 30.608 171.987 30.32 172.627 30.064C173.267 29.7867 174.035 29.648 174.931 29.648C176.829 29.648 178.323 30.3733 179.411 31.824C180.499 33.2747 181.043 35.2267 181.043 37.68C181.043 39.408 180.787 40.9333 180.275 42.256C179.763 43.5573 179.027 44.5707 178.067 45.296C177.128 46 176.008 46.352 174.707 46.352C173.875 46.352 173.171 46.256 172.595 46.064C172.019 45.8933 171.581 45.712 171.283 45.52C170.984 45.3067 170.835 45.1787 170.835 45.136H170.739V54L166.483 54.128V30ZM173.107 43.92C173.917 43.92 174.557 43.728 175.027 43.344C175.517 42.96 175.88 42.3307 176.115 41.456C176.349 40.56 176.467 39.3333 176.467 37.776C176.467 36.304 176.349 35.1627 176.115 34.352C175.901 33.52 175.571 32.944 175.123 32.624C174.696 32.304 174.131 32.144 173.427 32.144C172.915 32.144 172.456 32.24 172.051 32.432C171.667 32.624 171.357 32.8267 171.123 33.04C170.909 33.2533 170.781 33.4133 170.739 33.52V42.864C170.781 42.928 170.888 43.0453 171.059 43.216C171.229 43.3653 171.485 43.5253 171.827 43.696C172.189 43.8453 172.616 43.92 173.107 43.92ZM183.92 30H187.344L187.92 31.44H188.016C188.016 31.3973 188.197 31.2267 188.56 30.928C188.923 30.608 189.424 30.32 190.064 30.064C190.704 29.7867 191.472 29.648 192.368 29.648C194.267 29.648 195.76 30.3733 196.848 31.824C197.936 33.2747 198.48 35.2267 198.48 37.68C198.48 39.408 198.224 40.9333 197.712 42.256C197.2 43.5573 196.464 44.5707 195.504 45.296C194.565 46 193.445 46.352 192.144 46.352C191.312 46.352 190.608 46.256 190.032 46.064C189.456 45.8933 189.019 45.712 188.72 45.52C188.421 45.3067 188.272 45.1787 188.272 45.136H188.176V54L183.92 54.128V30ZM190.544 43.92C191.355 43.92 191.995 43.728 192.464 43.344C192.955 42.96 193.317 42.3307 193.552 41.456C193.787 40.56 193.904 39.3333 193.904 37.776C193.904 36.304 193.787 35.1627 193.552 34.352C193.339 33.52 193.008 32.944 192.56 32.624C192.133 32.304 191.568 32.144 190.864 32.144C190.352 32.144 189.893 32.24 189.488 32.432C189.104 32.624 188.795 32.8267 188.56 33.04C188.347 33.2533 188.219 33.4133 188.176 33.52V42.864C188.219 42.928 188.325 43.0453 188.496 43.216C188.667 43.3653 188.923 43.5253 189.264 43.696C189.627 43.8453 190.053 43.92 190.544 43.92Z" fill="#F5F5F5"/>
<path fill-rule="evenodd" clip-rule="evenodd" d="M44.5428 25.6694C42.0816 23.2053 38.8085 21.8477 35.3213 21.8463C28.136 21.8463 22.2879 27.6939 22.2851 34.8814C22.2841 37.1791 22.8844 39.4217 24.0252 41.3986L22.1758 48.1537L29.0864 46.341C30.9905 47.3795 33.1343 47.9269 35.3161 47.9277H35.3214C35.3209 47.9277 35.3218 47.9277 35.3214 47.9277C42.5059 47.9277 48.3545 42.0795 48.3575 34.8918C48.3588 31.4086 47.004 28.1333 44.5428 25.6694ZM35.3213 45.7261H35.3169C33.3728 45.7253 31.4658 45.203 29.8022 44.2158L29.4066 43.981L25.3057 45.0567L26.4004 41.0584L26.1427 40.6484C25.0581 38.9233 24.4853 36.9294 24.4862 34.8822C24.4885 28.9082 29.3492 24.048 35.3257 24.048C38.2197 24.0489 40.9402 25.1775 42.9859 27.2255C45.0316 29.2735 46.1575 31.9958 46.1564 34.8909C46.1539 40.8654 41.2934 45.7261 35.3213 45.7261Z" fill="url(#paint0_linear_609_30)"/>
<path fill-rule="evenodd" clip-rule="evenodd" d="M41.2645 37.6112C40.9388 37.4481 39.3373 36.6603 39.0388 36.5515C38.7402 36.4428 38.523 36.3884 38.3059 36.7145C38.0888 37.0405 37.4645 37.7743 37.2745 37.9917C37.0845 38.209 36.8945 38.2363 36.5688 38.0731C36.2431 37.9101 35.1936 37.5662 33.9494 36.4565C32.9811 35.5927 32.3274 34.5261 32.1373 34.2C31.9473 33.8739 32.1171 33.6977 32.2802 33.5352C32.4267 33.3892 32.6059 33.1548 32.7688 32.9646C32.9317 32.7744 32.9859 32.6384 33.0945 32.4212C33.2031 32.2038 33.1489 32.0136 33.0674 31.8506C32.9859 31.6875 32.3345 30.0843 32.0631 29.432C31.7987 28.7969 31.5302 28.883 31.3302 28.8728C31.1405 28.8634 30.923 28.8614 30.7059 28.8614C30.4888 28.8614 30.1359 28.943 29.8374 29.269C29.5388 29.5951 28.6973 30.3832 28.6973 31.9863C28.6973 33.5896 29.8644 35.1385 30.0273 35.3558C30.1901 35.5733 32.3242 38.8632 35.5917 40.2742C36.3688 40.6098 36.9755 40.8102 37.4486 40.9603C38.2289 41.2082 38.939 41.1732 39.5002 41.0893C40.126 40.9958 41.4274 40.3014 41.6988 39.5406C41.9702 38.7797 41.9702 38.1274 41.8887 37.9916C41.8073 37.8558 41.5902 37.7743 41.2645 37.6112Z" fill="url(#paint1_linear_609_30)"/>
<defs>
<linearGradient id="paint0_linear_609_30" x1="35.2666" y1="21.8463" x2="35.2666" y2="48.1537" gradientUnits="userSpaceOnUse">
<stop stop-color="#7B001E"/>
<stop offset="1" stop-color="#BF2D50"/>
</linearGradient>
<linearGradient id="paint1_linear_609_30" x1="35.3167" y1="28.8614" x2="35.3167" y2="41.1518" gradientUnits="userSpaceOnUse">
<stop stop-color="#7B001E"/>
<stop offset="1" stop-color="#BF2D50"/>
</linearGradient>
</defs>
</svg>
