<svg width="60" height="60" viewBox="0 0 60 60" fill="none" xmlns="http://www.w3.org/2000/svg">
<rect width="60" height="60" rx="5" fill="black"/>
<path fill-rule="evenodd" clip-rule="evenodd" d="M44.172 15.8724C40.4118 12.0875 35.4112 10.0022 30.0835 10C19.1059 10 10.1713 18.9821 10.167 30.0224C10.1655 33.5516 11.0826 36.9963 12.8255 40.0329L10 50.4091L20.558 47.6246C23.4669 49.2199 26.7422 50.0607 30.0756 50.0619H30.0836C30.083 50.0619 30.0843 50.0619 30.0836 50.0619C41.0601 50.0619 49.9954 41.0789 50 30.0384C50.0019 24.6879 47.9322 19.6571 44.172 15.8724ZM30.0836 46.6801H30.0768C27.1066 46.679 24.1932 45.8766 21.6516 44.3603L21.0472 43.9996L14.7819 45.6519L16.4543 39.5105L16.0606 38.8807C14.4036 36.2309 13.5285 33.1682 13.5298 30.0235C13.5333 20.8473 20.9594 13.3819 30.0903 13.3819C34.5117 13.3833 38.668 15.1168 41.7934 18.2626C44.9187 21.4085 46.6389 25.59 46.6372 30.037C46.6334 39.2139 39.2076 46.6801 30.0836 46.6801Z" fill="url(#paint0_linear_718_10)"/>
<path fill-rule="evenodd" clip-rule="evenodd" d="M39.1634 34.2158C38.6658 33.9654 36.2191 32.7552 35.7629 32.5881C35.3068 32.4211 34.975 32.3376 34.6433 32.8385C34.3116 33.3393 33.3579 34.4663 33.0676 34.8003C32.7773 35.134 32.4869 35.1761 31.9894 34.9254C31.4918 34.675 29.8883 34.1467 27.9876 32.4422C26.5081 31.1154 25.5094 29.4771 25.219 28.9761C24.9288 28.4753 25.1882 28.2045 25.4373 27.955C25.6612 27.7307 25.935 27.3707 26.1838 27.0785C26.4326 26.7864 26.5156 26.5775 26.6814 26.2439C26.8473 25.9099 26.7645 25.6177 26.64 25.3673C26.5156 25.1169 25.5203 22.6542 25.1057 21.6523C24.7016 20.6768 24.2914 20.809 23.9859 20.7934C23.6961 20.7789 23.3639 20.7759 23.0322 20.7759C22.7005 20.7759 22.1612 20.9011 21.7052 21.4019C21.2491 21.9028 19.9634 23.1134 19.9634 25.5758C19.9634 28.0386 21.7466 30.4177 21.9954 30.7515C22.2442 31.0856 25.5045 36.139 30.4965 38.3062C31.6838 38.8218 32.6108 39.1296 33.3335 39.3601C34.5256 39.741 35.6105 39.6872 36.4679 39.5584C37.4241 39.4147 39.4122 38.3481 39.8269 37.1795C40.2416 36.0107 40.2416 35.0088 40.1171 34.8002C39.9928 34.5916 39.661 34.4663 39.1634 34.2158Z" fill="url(#paint1_linear_718_10)"/>
<defs>
<linearGradient id="paint0_linear_718_10" x1="30" y1="10" x2="30" y2="50.4091" gradientUnits="userSpaceOnUse">
<stop stop-color="#7B001E"/>
<stop offset="1" stop-color="#BF2D50"/>
</linearGradient>
<linearGradient id="paint1_linear_718_10" x1="30.0765" y1="20.7759" x2="30.0765" y2="39.6544" gradientUnits="userSpaceOnUse">
<stop stop-color="#7B001E"/>
<stop offset="1" stop-color="#BF2D50"/>
</linearGradient>
</defs>
</svg>
